<svg version="1.1" id="Layer_1" xmlns="http://www.w3.org/2000/svg" xmlns:xlink="http://www.w3.org/1999/xlink" x="0px" y="0px"
	 width="100%" viewBox="0 0 190 88" enable-background="new 0 0 190 88" xml:space="preserve">
<path fill="#FDFDFD" opacity="1.000000" stroke="none" 
	d="
M1.000000,81.000000 
	C1.000000,54.366600 1.000000,27.733202 1.000000,1.049901 
	C64.221024,1.049901 127.442093,1.049901 191.000000,1.049901 
	C191.000000,27.686617 191.000000,54.374649 190.611404,81.525467 
	C187.479843,81.672043 184.736893,81.355843 181.578293,81.037903 
	C179.785614,80.901611 178.408585,80.767059 176.892136,80.272964 
	C171.592209,79.704018 166.431702,79.494637 160.921417,79.417328 
	C159.834595,78.533447 159.097534,77.517494 158.354935,76.542267 
	C158.349396,76.583000 158.429642,76.600906 158.854462,76.614502 
	C162.518677,76.072784 165.758102,75.517471 169.414276,75.030655 
	C175.195389,73.732841 181.875610,75.765617 185.581329,69.162674 
	C186.501526,68.406799 187.503693,67.636703 187.506332,66.863205 
	C187.514008,64.606842 187.122391,62.349117 186.917099,59.715874 
	C186.015121,55.633270 185.083359,51.926720 184.320419,47.953533 
	C184.357468,46.942810 184.225677,46.198723 184.297791,45.060600 
	C183.824890,43.834587 183.286331,42.478168 182.448471,42.257339 
	C177.678528,41.000179 172.837189,40.013966 167.771423,38.690403 
	C160.879105,36.007145 154.291214,33.397327 147.564484,31.215542 
	C144.869751,30.341520 141.869461,30.409592 138.636505,30.010603 
	C137.520691,29.918083 136.776642,29.863806 136.072784,29.407288 
	C136.172440,27.233955 136.289993,25.669445 133.527557,26.327909 
	C131.510696,26.808655 129.335281,26.761555 127.234154,26.727295 
	C118.809967,26.589937 110.387207,26.365839 101.628937,26.123066 
	C100.516151,26.353613 99.738342,26.634907 98.628418,26.933487 
	C97.209892,27.063181 96.123497,27.175589 94.702682,27.254938 
	C93.790955,27.468203 93.213623,27.714523 92.378029,27.917980 
	C91.464508,27.997650 90.809250,28.120180 89.784119,27.996668 
	C86.337257,28.637730 83.260292,29.524834 79.842758,30.244555 
	C78.998680,30.057848 78.495163,30.038525 77.652237,29.939257 
	C76.853165,30.220568 76.393501,30.581823 75.966080,30.963234 
	C75.998314,30.983393 75.978401,30.910004 75.620193,30.735346 
	C74.497032,31.373861 73.732086,32.187035 72.592026,32.981220 
	C70.828255,33.364315 69.439590,33.766396 67.697952,34.155991 
	C65.230377,35.429401 63.115791,36.715294 60.648170,38.040779 
	C58.077904,39.627205 55.860664,41.174038 53.354393,42.721886 
	C52.681770,42.758636 52.298183,42.794373 51.692719,42.832455 
	C51.470837,42.834801 51.032928,42.906803 50.617157,42.953140 
	C45.794758,43.940956 41.374569,44.824543 36.988094,45.852055 
	C35.202831,46.270248 33.490799,47.001091 31.408842,47.627380 
	C30.396173,47.715263 29.720114,47.765446 28.774635,47.583862 
	C24.347494,48.267593 20.114695,48.947575 16.075594,50.235180 
	C14.782736,50.647316 14.002529,52.667610 12.678704,53.819214 
	C2.902241,55.582348 2.900001,55.585056 3.018237,65.335052 
	C3.074434,66.758743 3.122306,67.859566 3.175415,69.317665 
	C3.268264,70.801949 3.182839,71.979515 3.493132,73.041458 
	C3.791482,74.062523 4.499408,74.963913 5.364006,76.124939 
	C8.079560,76.647232 10.458478,76.962471 13.004972,77.534126 
	C13.768488,77.916039 14.364427,78.041534 14.804308,78.375847 
	C14.100389,78.996414 13.552528,79.408165 12.723589,79.939743 
	C11.951519,80.311073 11.460528,80.562569 10.695826,80.532745 
	C7.281409,80.500954 4.140705,80.750481 1.000000,81.000000 
z"/>
<path fill="#EDEDED" opacity="1.000000" stroke="none" 
	d="
M181.993927,81.039642 
	C184.736893,81.355843 187.479843,81.672043 190.611404,81.994125 
	C191.000000,84.327751 191.000000,86.655495 191.000000,88.984795 
	C127.666664,88.986343 64.333328,88.986343 0.999999,88.979515 
	C1.000000,86.644943 1.000000,84.317207 1.000000,81.494736 
	C4.140705,80.750481 7.281409,80.500954 10.534279,80.861237 
	C9.789767,81.789345 8.933089,82.107651 6.882370,82.869598 
	C15.141010,86.436890 22.692175,84.627075 30.451252,85.156677 
	C34.262833,85.191040 37.628487,85.111313 41.458527,85.103569 
	C74.950424,85.126923 107.977936,85.078285 141.445953,85.150452 
	C144.922684,85.193031 147.958908,85.114815 151.457581,85.118469 
	C157.891815,85.041939 163.863556,84.883545 170.281677,84.880035 
	C175.136810,84.755463 179.545563,84.475998 185.270462,84.113113 
	C183.346451,82.308350 182.670181,81.673996 181.993927,81.039642 
z"/>
<path fill="#111212" opacity="1.000000" stroke="none" 
	d="
M141.005447,85.029648 
	C107.977936,85.078285 74.950424,85.126923 41.476913,84.758171 
	C42.992741,82.220383 44.954559,80.099983 47.226288,77.980591 
	C47.947033,77.982147 48.357876,77.982674 48.903458,78.431190 
	C50.017376,79.020515 50.996315,79.283455 51.975765,79.285393 
	C76.635979,79.334305 101.296249,79.360580 125.956505,79.357491 
	C126.652695,79.357407 127.348831,78.992630 128.337372,78.716125 
	C127.331093,77.868332 126.699547,77.336250 126.347382,76.555023 
	C129.561646,76.180588 131.495102,75.289780 131.080856,71.702126 
	C130.905319,70.181824 131.641312,68.556274 132.117477,66.694176 
	C132.866959,65.286507 133.461975,64.163216 134.268585,62.898750 
	C134.576401,62.444729 134.672638,62.131882 135.033142,61.693489 
	C135.806686,60.990990 136.315964,60.414036 137.194672,59.769779 
	C142.024307,58.834934 146.484497,57.967392 151.172241,57.357628 
	C154.338211,59.713017 157.276627,61.810627 160.289734,64.267303 
	C160.918213,65.963028 161.859222,67.272537 161.955185,68.641296 
	C162.280853,73.285942 164.669846,74.773315 168.990982,74.098557 
	C168.995239,74.578331 168.996368,74.770241 168.997513,74.962151 
	C165.758102,75.517471 162.518677,76.072784 158.755112,76.186371 
	C158.157547,75.163132 158.084152,74.581619 158.348175,73.946991 
	C159.565384,70.659279 160.218719,67.498451 156.061142,65.694092 
	C156.041245,65.489914 156.014847,65.080467 156.184418,64.972305 
	C156.229950,64.570213 156.105911,64.276291 155.679474,63.970459 
	C154.974182,63.937855 154.571289,63.917160 154.026154,63.680313 
	C153.599838,63.276237 153.315735,63.088314 153.032700,62.684052 
	C153.033768,62.467709 153.025803,62.035095 152.869354,61.773033 
	C152.146454,61.332306 151.580032,61.153641 151.009491,60.983467 
	C151.005386,60.991959 151.028458,60.970310 150.746002,60.681847 
	C148.333313,60.267288 146.176178,59.864876 144.078079,60.069080 
	C138.694122,60.593094 134.555527,66.302048 135.919617,71.417854 
	C135.906952,73.221909 135.909332,74.609802 135.682343,76.210098 
	C137.303787,79.291550 139.154617,82.160599 141.005447,85.029648 
M129.116394,79.351837 
	C130.340576,79.453316 131.564743,79.554802 132.788925,79.656281 
	C132.789612,79.139946 132.790298,78.623611 132.790985,78.107269 
	C131.592300,78.255722 130.393631,78.404175 129.116394,79.351837 
z"/>
<path fill="#747D88" opacity="1.000000" stroke="none" 
	d="
M186.887299,60.091930 
	C187.122391,62.349117 187.514008,64.606842 187.506332,66.863205 
	C187.503693,67.636703 186.501526,68.406799 185.380951,68.794807 
	C182.867920,68.307556 180.929962,68.203949 178.986160,67.732391 
	C179.636627,66.533684 180.292953,65.702919 181.230469,65.018173 
	C182.578583,64.635002 183.645508,64.105797 184.712418,63.576591 
	C183.466614,63.064571 182.220825,62.552555 180.778091,61.765053 
	C178.727264,61.615971 176.873383,61.742367 174.725891,61.605484 
	C168.500793,59.888268 161.571060,61.616264 157.060699,55.515060 
	C159.262115,54.483433 161.493332,54.026031 163.492828,53.079262 
	C166.856522,51.486538 172.169128,52.852741 173.254669,47.075382 
	C174.074860,47.078197 174.543640,47.116627 174.887787,47.416626 
	C174.833084,48.469147 174.903030,49.260098 175.088684,50.311279 
	C175.784897,51.023827 176.365387,51.476147 177.232651,51.998489 
	C177.708878,52.121681 177.898361,52.174843 178.052277,52.599373 
	C178.781540,58.074997 182.004440,60.117325 186.887299,60.091930 
z"/>
<path fill="#B0B8C1" opacity="1.000000" stroke="none" 
	d="
M12.987768,53.952122 
	C14.002529,52.667610 14.782736,50.647316 16.075594,50.235180 
	C20.114695,48.947575 24.347494,48.267593 28.569450,47.872749 
	C27.083551,49.589760 25.533421,50.786118 23.684216,51.965698 
	C22.851276,52.044250 22.317410,52.139580 21.783545,52.234913 
	C21.833872,52.453999 21.884199,52.673088 21.934526,52.892178 
	C22.626066,52.599274 23.317606,52.306366 24.442932,52.018112 
	C33.038414,51.350990 41.195518,50.609623 49.365955,50.070366 
	C50.871922,49.970970 52.431892,50.689800 53.970207,51.442978 
	C54.033234,52.962288 54.092991,54.069584 54.111290,55.471092 
	C54.044018,56.159306 54.018200,56.553318 53.685013,57.079941 
	C50.283504,56.943127 47.189365,56.673698 43.801220,56.211758 
	C41.026726,55.343319 38.541382,54.083530 36.066696,54.104134 
	C29.419605,54.159466 22.777073,54.762207 15.778650,55.086685 
	C14.612304,54.667900 13.800036,54.310009 12.987768,53.952122 
z"/>
<path fill="#090A0A" opacity="1.000000" stroke="none" 
	d="
M14.960365,78.167023 
	C14.364427,78.041534 13.768488,77.916039 13.221008,77.231888 
	C14.912854,76.343658 16.556242,76.014099 18.424683,75.639404 
	C17.892920,75.036064 17.497221,74.587112 17.120834,73.810974 
	C17.167416,73.051605 17.194687,72.619415 17.576427,72.100601 
	C18.305664,70.687286 18.680428,69.360603 19.123531,67.694778 
	C20.142841,65.317024 21.093809,63.278397 22.350239,61.052238 
	C29.311686,55.031197 36.571819,56.063515 44.286636,59.175491 
	C45.088104,60.536945 45.601269,61.709610 45.729202,62.943039 
	C44.565536,62.969528 43.787106,62.935257 42.959488,62.592743 
	C42.271965,61.856705 41.633621,61.428909 40.991817,60.760098 
	C40.988361,60.519081 40.990509,60.037003 40.788429,59.763382 
	C39.704735,59.339554 38.823116,59.189346 37.632782,59.073498 
	C36.544132,59.742283 35.764206,60.376713 34.671257,60.969486 
	C33.942631,60.859440 33.527027,60.791054 32.831223,60.505421 
	C26.341713,60.472485 22.000505,65.825562 21.989021,73.028236 
	C21.985849,75.018013 21.384148,77.006836 20.682590,79.003479 
	C19.809221,79.033485 19.310328,79.056107 18.488895,78.954865 
	C17.097692,78.609673 16.029030,78.388344 14.960365,78.167023 
z"/>
<path fill="#414244" opacity="1.000000" stroke="none" 
	d="
M158.010742,74.000107 
	C158.084152,74.581619 158.157547,75.163132 158.330292,76.172775 
	C158.429642,76.600906 158.349396,76.583000 158.052795,76.767883 
	C156.835205,78.299316 155.914200,79.645882 154.676437,81.035782 
	C153.888214,81.697639 153.416763,82.316162 152.782318,83.172966 
	C152.076187,83.560158 151.533020,83.709068 150.819702,83.570587 
	C149.104782,82.528091 147.560043,81.772980 146.028931,80.754623 
	C146.013809,80.141571 145.985046,79.791779 146.036743,79.060486 
	C145.858658,77.621887 145.600128,76.564766 145.341599,75.507660 
	C144.969040,75.886261 144.596481,76.264870 143.911530,76.861931 
	C142.653824,77.181213 141.708527,77.282043 140.846771,77.145241 
	C141.023270,76.578529 141.116211,76.249458 141.361603,75.734253 
	C140.938522,74.971077 140.362991,74.394035 139.864655,73.487991 
	C140.962814,72.416000 141.983810,71.673012 143.006012,70.557755 
	C143.021759,69.439819 143.036285,68.694145 143.415833,67.863518 
	C144.247528,67.591698 144.714233,67.404831 145.484772,67.384888 
	C146.216202,66.392883 146.643784,65.233948 147.316544,64.202255 
	C148.026077,64.876297 148.490402,65.423080 149.084778,66.216972 
	C149.508728,66.685806 149.802643,66.907532 150.201691,67.325829 
	C150.306793,67.522392 150.480133,67.933113 150.424072,68.289001 
	C150.367813,69.120117 150.367599,69.595337 150.277679,70.304764 
	C150.131058,70.696167 150.074142,70.853378 149.735367,70.845871 
	C148.859802,70.287720 148.266113,69.894287 147.672424,69.500862 
	C147.503693,70.046188 147.041229,70.731705 147.221909,71.110260 
	C147.741226,72.198372 148.520615,73.162354 149.222260,74.481033 
	C149.978683,74.831314 150.710632,74.875679 151.556763,74.813950 
	C151.670914,74.707855 151.959335,74.589653 152.319763,74.709869 
	C153.431885,74.907784 154.183578,74.985489 154.960541,75.308159 
	C155.129562,75.832329 155.273315,76.111534 155.417084,76.390739 
	C155.293991,75.915276 155.170898,75.439812 155.035614,74.722946 
	C155.023407,74.481537 154.970688,74.000999 155.350555,73.995300 
	C156.490540,73.993103 157.250641,73.996605 158.010742,74.000107 
M144.370743,70.482872 
	C144.370743,70.482872 144.584396,70.599998 144.584396,70.599998 
	C144.584396,70.599998 144.550064,70.361687 144.370743,70.482872 
z"/>
<path fill="#555A61" opacity="1.000000" stroke="none" 
	d="
M139.008255,30.048845 
	C141.869461,30.409592 144.869751,30.341520 147.564484,31.215542 
	C154.291214,33.397327 160.879105,36.007145 167.800262,39.059799 
	C168.384995,41.110088 168.692215,42.545750 168.720367,44.239334 
	C166.353256,44.597961 164.265182,44.698669 162.143570,44.476280 
	C162.132416,43.500420 162.154800,42.847660 162.526825,42.100601 
	C162.700134,41.007832 162.789917,39.309746 162.304077,39.124943 
	C159.255173,37.965195 156.078079,37.142479 152.545166,36.154110 
	C149.773071,35.734364 147.399231,35.368786 144.757263,35.114891 
	C143.967316,35.473877 143.445480,35.721180 142.768158,35.731194 
	C142.072052,34.971668 141.531418,34.449432 140.839996,33.647194 
	C140.128891,32.261078 139.568573,31.154963 139.008255,30.048845 
z"/>
<path fill="#8A8F95" opacity="1.000000" stroke="none" 
	d="
M12.678705,53.819214 
	C13.800036,54.310009 14.612304,54.667900 15.750710,55.439049 
	C15.017700,57.876259 13.958551,59.900211 12.688178,62.099487 
	C12.302614,62.776436 12.128275,63.278061 11.613235,63.906994 
	C8.518328,64.360268 5.764120,64.686234 3.009911,65.012192 
	C2.900001,55.585056 2.902241,55.582348 12.678705,53.819214 
z"/>
<path fill="#252729" opacity="1.000000" stroke="none" 
	d="
M3.018237,65.335052 
	C5.764120,64.686234 8.518328,64.360268 11.612950,64.279762 
	C11.965103,65.019005 11.976842,65.512787 11.995229,66.367035 
	C12.676608,68.485962 13.351340,70.244438 14.079406,72.352119 
	C15.122334,73.180267 16.111929,73.659210 17.101524,74.138153 
	C17.497221,74.587112 17.892920,75.036064 18.424683,75.639404 
	C16.556242,76.014099 14.912854,76.343658 13.053431,76.975464 
	C10.458478,76.962471 8.079560,76.647232 5.576064,75.867645 
	C7.364524,72.145821 6.681851,70.217804 3.170178,68.960388 
	C3.122306,67.859566 3.074434,66.758743 3.018237,65.335052 
z"/>
<path fill="#1C1B1B" opacity="1.000000" stroke="none" 
	d="
M18.811436,79.078728 
	C19.310328,79.056107 19.809221,79.033485 21.090359,78.995605 
	C22.965038,78.951271 24.057474,78.922195 25.341269,79.019791 
	C25.775734,79.344421 25.953861,79.589584 26.092453,80.229546 
	C27.413706,82.065605 28.709515,83.554085 30.005325,85.042572 
	C22.692175,84.627075 15.141010,86.436890 6.882370,82.869598 
	C8.933089,82.107651 9.789767,81.789345 10.807991,81.142548 
	C11.460528,80.562569 11.951519,80.311073 13.114856,80.019730 
	C15.461946,79.679504 17.136690,79.379112 18.811436,79.078728 
z"/>
<path fill="#71767C" opacity="1.000000" stroke="none" 
	d="
M101.963913,26.173813 
	C110.387207,26.365839 118.809967,26.589937 127.234154,26.727295 
	C129.335281,26.761555 131.510696,26.808655 133.527557,26.327909 
	C136.289993,25.669445 136.172440,27.233955 135.999969,29.724464 
	C133.271561,30.322229 130.656174,30.200577 127.711227,30.045570 
	C126.941772,29.977886 126.501862,29.943558 125.792374,29.618446 
	C119.662247,28.917154 113.801704,28.506645 107.518471,28.057220 
	C105.398979,28.051510 103.702164,28.084713 102.001907,27.793768 
	C101.986954,27.037683 101.975433,26.605749 101.963913,26.173813 
z"/>
<path fill="#B0B8C1" opacity="1.000000" stroke="none" 
	d="
M31.745449,47.589676 
	C33.490799,47.001091 35.202831,46.270248 36.988094,45.852055 
	C41.374569,44.824543 45.794758,43.940956 50.643379,43.202156 
	C51.239204,43.664448 51.393036,43.924065 51.546864,44.183678 
	C51.669441,43.732487 51.792023,43.281300 51.914600,42.830109 
	C52.298183,42.794373 52.681770,42.758636 53.744617,42.808830 
	C54.949791,42.930531 55.475700,42.966297 56.000805,43.001030 
	C56.000000,43.000000 55.997940,42.998405 56.125340,43.229820 
	C56.541393,43.656727 56.830051,43.852226 57.062294,44.278633 
	C57.005878,44.509548 56.870148,44.965111 56.567593,45.031357 
	C55.842464,45.726154 55.419888,46.354702 54.610424,47.138367 
	C46.730843,47.392216 39.238144,47.490948 31.745449,47.589676 
z"/>
<path fill="#7F8895" opacity="1.000000" stroke="none" 
	d="
M31.408842,47.627380 
	C39.238144,47.490948 46.730843,47.392216 54.615036,47.535988 
	C54.998726,48.834900 54.990917,49.891308 54.729324,50.971684 
	C54.306004,51.007423 54.136471,51.019196 53.966934,51.030968 
	C52.431892,50.689800 50.871922,49.970970 49.365955,50.070366 
	C41.195518,50.609623 33.038414,51.350990 24.437393,52.010307 
	C23.998064,51.997860 23.983286,51.982471 23.983288,51.982475 
	C25.533421,50.786118 27.083551,49.589760 28.838867,48.104515 
	C29.720114,47.765446 30.396173,47.715263 31.408842,47.627380 
z"/>
<path fill="#1A1A1A" opacity="1.000000" stroke="none" 
	d="
M150.989868,83.857971 
	C151.533020,83.709068 152.076187,83.560158 153.109375,83.153366 
	C154.063995,82.261139 154.528595,81.626793 154.993195,80.992447 
	C155.914200,79.645882 156.835205,78.299316 158.058350,76.727142 
	C159.097534,77.517494 159.834595,78.533447 161.007385,79.829132 
	C164.679962,80.690002 167.916809,81.271141 171.026184,82.147537 
	C170.544235,83.203583 170.189774,83.964363 169.835312,84.725143 
	C163.863556,84.883545 157.891815,85.041939 151.454254,84.823822 
	C150.988937,84.250854 150.989395,84.054413 150.989868,83.857971 
z"/>
<path fill="#4D5157" opacity="1.000000" stroke="none" 
	d="
M168.999420,43.981407 
	C168.692215,42.545750 168.384995,41.110088 168.048950,39.305031 
	C172.837189,40.013966 177.678528,41.000179 182.448471,42.257339 
	C183.286331,42.478168 183.824890,43.834587 184.068726,45.156677 
	C182.763657,45.765785 181.891541,45.884773 180.572525,45.984932 
	C178.643265,45.879639 177.160873,45.793182 175.716873,45.409073 
	C175.104782,44.861942 174.454300,44.612465 173.406845,44.305313 
	C171.673050,44.158901 170.336243,44.070152 168.999420,43.981407 
z"/>
<path fill="#B5BAC1" opacity="1.000000" stroke="none" 
	d="
M186.917099,59.715874 
	C182.004440,60.117325 178.781540,58.074997 178.303528,52.624767 
	C180.444077,50.925922 182.297836,49.573044 184.151596,48.220165 
	C185.083359,51.926720 186.015121,55.633270 186.917099,59.715874 
z"/>
<path fill="#5A5E5E" opacity="1.000000" stroke="none" 
	d="
M101.628937,26.123066 
	C101.975433,26.605749 101.986954,27.037683 101.841431,28.148136 
	C101.448174,30.675350 101.211937,32.524048 100.896774,34.990410 
	C103.427002,34.990410 105.208466,34.990410 107.011620,35.359314 
	C107.055389,36.465893 107.077469,37.203564 106.815697,37.958275 
	C106.343040,37.990623 106.154228,38.005936 105.538559,38.013519 
	C103.125587,38.036266 101.139473,38.066742 99.077454,37.739956 
	C98.002045,35.595303 97.002541,33.807911 96.002701,31.648577 
	C95.988548,30.532938 95.974731,29.789240 96.321747,29.011478 
	C97.441887,28.290339 98.201210,27.603268 98.960533,26.916199 
	C99.738342,26.634907 100.516151,26.353613 101.628937,26.123066 
z"/>
<path fill="#191A1D" opacity="1.000000" stroke="none" 
	d="
M178.992020,68.100342 
	C180.929962,68.203949 182.867920,68.307556 185.006241,68.779022 
	C181.875610,75.765617 175.195389,73.732841 169.414276,75.030655 
	C168.996368,74.770241 168.995239,74.578331 169.262680,73.857597 
	C172.941483,72.050331 177.559387,72.957184 178.992020,68.100342 
z"/>
<path fill="#767676" opacity="1.000000" stroke="none" 
	d="
M170.281677,84.880035 
	C170.189774,83.964363 170.544235,83.203583 171.420319,82.160294 
	C173.638489,81.462692 175.335007,81.047600 177.031540,80.632515 
	C178.408585,80.767059 179.785614,80.901611 181.578293,81.037903 
	C182.670181,81.673996 183.346451,82.308350 185.270462,84.113113 
	C179.545563,84.475998 175.136810,84.755463 170.281677,84.880035 
z"/>
<path fill="#363B3D" opacity="1.000000" stroke="none" 
	d="
M128.040771,30.078924 
	C130.656174,30.200577 133.271561,30.322229 135.959778,30.126703 
	C136.776642,29.863806 137.520691,29.918083 138.636505,30.010605 
	C139.568573,31.154963 140.128891,32.261078 140.475220,33.722336 
	C137.471298,34.501587 134.681366,34.925701 131.674072,35.253017 
	C131.456726,35.156219 131.023117,34.960186 130.995453,34.665516 
	C130.647491,33.907284 130.327194,33.443722 129.969345,32.674599 
	C129.301453,31.605669 128.671112,30.842297 128.040771,30.078924 
z"/>
<path fill="#B0B8C1" opacity="1.000000" stroke="none" 
	d="
M68.050934,34.168472 
	C69.439590,33.766396 70.828255,33.364315 72.850304,32.971245 
	C73.655746,32.989094 73.827789,32.997932 74.087708,33.235085 
	C74.359451,33.756836 74.620667,33.939995 75.193649,34.083477 
	C75.779106,34.264339 75.976768,34.502048 75.896484,35.116337 
	C73.265953,36.434975 69.595108,35.713684 68.741882,39.909294 
	C67.308937,40.047474 66.156906,40.032093 65.129379,39.704071 
	C66.186241,37.650448 67.118584,35.909462 68.050934,34.168472 
z"/>
<path fill="#EDEDED" opacity="1.000000" stroke="none" 
	d="
M176.892136,80.272964 
	C175.335007,81.047600 173.638489,81.462692 171.547821,81.865036 
	C167.916809,81.271141 164.679962,80.690002 161.357147,79.697060 
	C166.431702,79.494637 171.592209,79.704018 176.892136,80.272964 
z"/>
<path fill="#C6C9CA" opacity="1.000000" stroke="none" 
	d="
M56.001610,43.002064 
	C55.475700,42.966297 54.949791,42.930531 54.033653,42.807819 
	C55.860664,41.174038 58.077904,39.627205 60.685440,38.078442 
	C61.075745,38.076511 61.150311,38.151863 61.102028,38.541397 
	C61.052570,39.989418 61.051395,41.047909 60.902283,42.402542 
	C59.542461,43.148365 58.330582,43.598045 57.118706,44.047722 
	C56.830051,43.852226 56.541393,43.656727 56.265251,43.177982 
	C56.185711,42.930508 56.093658,42.966286 56.001610,43.002064 
z"/>
<path fill="#3E434B" opacity="1.000000" stroke="none" 
	d="
M80.183319,30.411938 
	C83.260292,29.524834 86.337257,28.637730 89.369202,28.259922 
	C88.881531,29.209545 88.438896,29.649874 87.738220,30.354450 
	C84.652084,31.077774 81.823997,31.536850 79.120033,31.779678 
	C79.557213,31.179600 79.870270,30.795769 80.183319,30.411938 
z"/>
<path fill="#B15652" opacity="1.000000" stroke="none" 
	d="
M184.320419,47.953529 
	C182.297836,49.573044 180.444077,50.925922 178.339081,52.253403 
	C177.898361,52.174843 177.708878,52.121681 177.390656,51.698681 
	C177.513290,50.466667 177.764679,49.604488 178.013000,48.489784 
	C178.009705,47.900520 178.009476,47.563789 178.349915,47.175880 
	C179.466843,46.751057 180.243134,46.377411 181.019409,46.003761 
	C181.891541,45.884773 182.763657,45.765785 183.864838,45.550716 
	C184.225677,46.198723 184.357468,46.942810 184.320419,47.953529 
z"/>
<path fill="#393A3D" opacity="1.000000" stroke="none" 
	d="
M3.175415,69.317665 
	C6.681851,70.217804 7.364524,72.145821 5.239426,75.660591 
	C4.499408,74.963913 3.791482,74.062523 3.493132,73.041458 
	C3.182839,71.979515 3.268264,70.801949 3.175415,69.317665 
z"/>
<path fill="#3E434B" opacity="1.000000" stroke="none" 
	d="
M95.960922,29.045544 
	C95.974731,29.789240 95.988548,30.532938 95.631165,31.719721 
	C93.537926,32.291451 91.815880,32.420090 90.078163,32.238506 
	C90.014488,31.308939 89.966476,30.689592 90.325470,30.035307 
	C91.367088,29.320526 92.001694,28.640686 92.636299,27.960844 
	C93.213623,27.714523 93.790955,27.468203 94.720306,27.607445 
	C95.368538,28.343853 95.664734,28.694696 95.960922,29.045544 
z"/>
<path fill="#C6C9CA" opacity="1.000000" stroke="none" 
	d="
M67.697952,34.155991 
	C67.118584,35.909462 66.186241,37.650448 64.964088,39.967018 
	C64.470276,40.577919 64.266273,40.613243 64.045395,40.255058 
	C63.069111,39.291656 62.109711,38.721760 61.150311,38.151863 
	C61.150311,38.151863 61.075745,38.076511 61.038471,38.038849 
	C63.115791,36.715294 65.230377,35.429401 67.697952,34.155991 
z"/>
<path fill="#939EA8" opacity="1.000000" stroke="none" 
	d="
M79.842758,30.244555 
	C79.870270,30.795769 79.557213,31.179600 78.780167,31.789608 
	C77.197182,32.681484 76.078194,33.347179 74.959213,34.012878 
	C74.620667,33.939995 74.359451,33.756836 74.235001,32.977760 
	C74.855751,31.964750 75.417076,31.437378 75.978401,30.910004 
	C75.978401,30.910004 75.998314,30.983393 76.270340,30.961081 
	C77.025459,30.632246 77.508545,30.325724 77.991638,30.019201 
	C78.495163,30.038525 78.998680,30.057848 79.842758,30.244555 
z"/>
<path fill="#EDEDED" opacity="1.000000" stroke="none" 
	d="
M18.488895,78.954865 
	C17.136690,79.379112 15.461946,79.679504 13.395934,79.899902 
	C13.552528,79.408165 14.100389,78.996414 14.804308,78.375847 
	C16.029030,78.388344 17.097692,78.609673 18.488895,78.954865 
z"/>
<path fill="#71767C" opacity="1.000000" stroke="none" 
	d="
M96.321747,29.011477 
	C95.664734,28.694696 95.368538,28.343853 95.054718,27.640501 
	C96.123497,27.175589 97.209892,27.063181 98.628418,26.933485 
	C98.201210,27.603268 97.441887,28.290339 96.321747,29.011477 
z"/>
<path fill="#34383F" opacity="1.000000" stroke="none" 
	d="
M92.378029,27.917980 
	C92.001694,28.640686 91.367088,29.320526 90.006142,30.033398 
	C88.851959,30.074354 88.424110,30.082279 87.996269,30.090202 
	C88.438896,29.649874 88.881531,29.209545 89.739082,28.505962 
	C90.809250,28.120180 91.464508,27.997650 92.378029,27.917980 
z"/>
<path fill="#777F86" opacity="1.000000" stroke="none" 
	d="
M75.620193,30.735348 
	C75.417076,31.437378 74.855751,31.964750 74.147133,32.749451 
	C73.827789,32.997932 73.655746,32.989094 73.225418,32.990234 
	C73.732086,32.187035 74.497032,31.373861 75.620193,30.735348 
z"/>
<path fill="#777F86" opacity="1.000000" stroke="none" 
	d="
M77.652237,29.939257 
	C77.508545,30.325724 77.025459,30.632246 76.238098,30.940922 
	C76.393501,30.581823 76.853165,30.220568 77.652237,29.939257 
z"/>
<path fill="#C6C9CA" opacity="1.000000" stroke="none" 
	d="
M51.692719,42.832455 
	C51.792023,43.281300 51.669441,43.732487 51.546864,44.183678 
	C51.393036,43.924065 51.239204,43.664448 51.059151,43.155819 
	C51.032928,42.906803 51.470837,42.834801 51.692719,42.832455 
z"/>
<path fill="#2B2C2C" opacity="1.000000" stroke="none" 
	d="
M30.451254,85.156677 
	C28.709515,83.554085 27.413706,82.065605 26.430191,80.230797 
	C28.058084,79.629509 29.373684,79.374557 30.941681,79.368416 
	C32.184414,79.082710 33.174755,78.548187 34.346222,78.042702 
	C34.527355,78.071732 34.893532,78.094482 35.153515,78.278618 
	C35.750221,79.383850 36.086941,80.304947 36.427044,81.235298 
	C37.021519,80.425102 37.544212,79.712738 38.457123,78.993759 
	C42.289349,79.474327 43.929176,77.901978 43.968620,74.134781 
	C43.278801,72.546471 42.591492,71.326950 42.180107,69.899506 
	C42.310520,68.154167 42.165001,66.616745 41.941917,64.803139 
	C41.556534,64.049713 41.248711,63.572487 40.979691,63.011932 
	C41.018497,62.928604 41.117195,62.773502 41.426647,62.849411 
	C42.160290,62.917206 42.584480,62.909096 43.008671,62.900986 
	C43.787106,62.935257 44.565536,62.969528 45.712589,62.965256 
	C46.081207,62.926704 46.038067,62.960316 46.029110,63.314728 
	C46.362194,64.277611 46.704239,64.886070 47.129330,65.515137 
	C47.212376,65.535736 47.486542,65.691658 47.492195,66.062149 
	C47.304028,70.281624 47.110203,74.130600 46.916382,77.979576 
	C44.954559,80.099983 42.992741,82.220383 41.012527,84.686188 
	C37.628487,85.111313 34.262833,85.191040 30.451254,85.156677 
z"/>
<path fill="#2C2C2D" opacity="1.000000" stroke="none" 
	d="
M150.819702,83.570587 
	C150.989395,84.054413 150.988937,84.250854 150.991791,84.741943 
	C147.958908,85.114815 144.922684,85.193031 141.445953,85.150452 
	C139.154617,82.160599 137.303787,79.291550 135.914337,76.225571 
	C136.375732,76.028625 136.837036,76.073830 136.997314,76.360489 
	C138.114014,77.056381 139.070465,77.465607 140.137543,78.110054 
	C140.505936,78.572334 140.763702,78.799393 141.053925,79.233948 
	C141.086365,79.441444 141.081833,79.861465 140.896423,79.983467 
	C140.862549,80.397827 141.014099,80.690186 141.569458,80.980064 
	C143.320618,80.991013 144.667969,81.004440 146.015305,81.017868 
	C147.560043,81.772980 149.104782,82.528091 150.819702,83.570587 
z"/>
<path fill="#383B41" opacity="1.000000" stroke="none" 
	d="
M178.986160,67.732391 
	C177.559387,72.957184 172.941483,72.050331 169.259567,73.569748 
	C164.669846,74.773315 162.280853,73.285942 161.955185,68.641296 
	C161.859222,67.272537 160.918213,65.963028 160.676727,64.297417 
	C166.033188,65.723366 170.530319,63.822712 175.019485,61.868763 
	C176.873383,61.742367 178.727264,61.615971 180.780121,62.119514 
	C180.969162,63.457027 180.959229,64.164589 180.949280,64.872154 
	C180.292953,65.702919 179.636627,66.533684 178.986160,67.732391 
z"/>
<path fill="#67707C" opacity="1.000000" stroke="none" 
	d="
M136.825241,59.837082 
	C136.315964,60.414036 135.806686,60.990990 134.922302,61.692543 
	C134.547211,61.817142 134.322281,61.826290 134.297821,61.550072 
	C134.244049,60.905220 134.214706,60.536579 134.344940,60.062187 
	C134.476242,59.758099 134.447998,59.559765 134.419754,59.361431 
	C134.238647,59.527607 134.057541,59.693783 133.626068,59.977577 
	C132.902542,60.376339 132.429367,60.657482 131.653214,60.793442 
	C127.891319,59.118671 124.432419,57.589092 120.536690,56.045792 
	C118.055191,56.062588 116.010529,56.093109 113.600098,56.098969 
	C112.502197,56.096302 111.770042,56.118309 110.582977,56.092350 
	C107.098389,56.055889 104.068718,56.067394 100.605637,56.050598 
	C97.781952,56.362480 95.391685,56.702667 92.538048,57.036407 
	C89.642479,57.033104 87.182625,57.262524 84.786629,56.969589 
	C82.778999,56.724136 80.845940,55.868782 79.272255,55.107239 
	C83.450844,54.632210 87.237038,54.333424 91.436813,54.061581 
	C93.233406,54.059742 94.616425,54.030964 96.340874,54.014057 
	C97.131805,53.957378 97.581306,53.888832 98.482567,53.862411 
	C101.977798,53.757725 105.021263,53.610909 108.485519,53.572975 
	C110.912697,53.569862 112.919090,53.457867 115.301109,53.514160 
	C116.475365,53.582657 117.273994,53.482864 118.374992,53.485580 
	C119.096954,53.546867 119.516541,53.505646 120.270096,53.616280 
	C121.084488,53.733368 121.564919,53.698601 122.404900,53.763683 
	C123.507370,53.917854 124.250298,53.972176 125.244446,54.292183 
	C128.886734,55.483871 132.277802,56.409870 135.924988,57.722523 
	C136.395798,58.685146 136.610519,59.261112 136.825241,59.837082 
z"/>
<path fill="#E5E5E4" opacity="1.000000" stroke="none" 
	d="
M126.068008,76.804176 
	C126.699547,77.336250 127.331093,77.868332 128.337372,78.716125 
	C127.348831,78.992630 126.652695,79.357407 125.956505,79.357491 
	C101.296249,79.360580 76.635979,79.334305 51.975765,79.285393 
	C50.996315,79.283455 50.017376,79.020515 49.184620,78.349365 
	C49.995720,77.431786 50.660397,77.044029 51.601528,76.808174 
	C52.917057,76.979286 53.956139,76.998482 55.386116,77.177628 
	C71.391953,77.312782 87.006989,77.310760 102.621742,77.243935 
	C105.732826,77.230621 108.842857,76.969498 112.408096,76.892258 
	C115.922012,76.828094 118.981194,76.694305 122.439606,76.622330 
	C123.915222,76.724159 124.991615,76.764168 126.068008,76.804176 
z"/>
<path fill="#4B5259" opacity="1.000000" stroke="none" 
	d="
M174.725891,61.605484 
	C170.530319,63.822712 166.033188,65.723366 160.602005,63.938354 
	C157.276627,61.810627 154.338211,59.713017 151.192932,56.990925 
	C151.002548,55.878410 151.019043,55.390381 151.414886,54.928871 
	C153.524933,55.260021 155.255615,55.564648 156.986298,55.869278 
	C161.571060,61.616264 168.500793,59.888268 174.725891,61.605484 
z"/>
<path fill="#2C2C2D" opacity="1.000000" stroke="none" 
	d="
M135.934647,71.001686 
	C134.555527,66.302048 138.694122,60.593094 144.078079,60.069080 
	C146.176178,59.864876 148.333313,60.267288 150.363922,60.695595 
	C149.172913,61.685345 148.081497,62.372883 146.624756,63.058228 
	C145.151215,64.045349 144.043015,65.034660 142.721603,66.133102 
	C142.249832,66.451790 142.074158,66.716431 141.679611,67.165314 
	C140.259125,68.174896 139.140442,69.055305 137.911713,70.169342 
	C137.528290,70.603844 137.254913,70.804718 136.719818,71.005348 
	C136.283600,71.003967 136.109116,71.002823 135.934647,71.001686 
z"/>
<path fill="#40454C" opacity="1.000000" stroke="none" 
	d="
M151.035538,54.902348 
	C151.019043,55.390381 151.002548,55.878410 150.965363,56.733147 
	C146.484497,57.967392 142.024307,58.834934 137.194672,59.769775 
	C136.610519,59.261112 136.395798,58.685146 136.237335,57.536987 
	C136.568878,56.326283 136.844193,55.687767 137.367462,54.948410 
	C138.063232,54.597473 138.511063,54.347382 139.174408,54.408249 
	C143.271790,54.780254 147.153656,54.841301 151.035538,54.902348 
z"/>
<path fill="#2A2D31" opacity="1.000000" stroke="none" 
	d="
M126.347382,76.555023 
	C124.991615,76.764168 123.915222,76.724159 122.447449,76.388824 
	C122.034546,75.782677 122.021523,75.471497 122.331512,75.089081 
	C123.075455,75.003075 123.504868,74.987953 124.295784,74.993011 
	C125.438087,74.342537 126.218887,73.671875 127.004166,72.621765 
	C127.324913,70.546547 127.641182,68.850784 128.181686,67.012856 
	C128.605423,66.582993 128.804916,66.295296 129.296356,66.129761 
	C130.379868,66.494133 131.171432,66.736343 131.963013,66.978554 
	C131.641312,68.556274 130.905319,70.181824 131.080856,71.702126 
	C131.495102,75.289780 129.561646,76.180588 126.347382,76.555023 
z"/>
<path fill="#2C2C2D" opacity="1.000000" stroke="none" 
	d="
M158.348175,73.946991 
	C157.250641,73.996605 156.490540,73.993103 155.361496,73.992195 
	C154.992554,73.994789 155.005264,74.005684 154.849640,73.736359 
	C154.113770,73.253792 153.533539,73.040543 152.962708,72.632446 
	C152.972092,72.437592 153.001221,72.048515 153.000153,71.784729 
	C152.999390,71.345070 152.999695,71.169212 153.170013,70.733963 
	C153.872574,68.983040 154.405136,67.491508 155.224335,65.983376 
	C155.700974,65.943939 155.891006,65.921112 156.081039,65.898277 
	C160.218719,67.498451 159.565384,70.659279 158.348175,73.946991 
z"/>
<path fill="#090A0A" opacity="1.000000" stroke="none" 
	d="
M51.325081,76.656265 
	C50.660397,77.044029 49.995720,77.431786 49.049881,77.901375 
	C48.357876,77.982674 47.947033,77.982147 47.226284,77.980591 
	C47.110203,74.130600 47.304028,70.281624 47.893326,66.167206 
	C49.189632,67.604233 50.090462,69.306709 50.975910,71.480392 
	C51.082043,73.519814 51.203560,75.088043 51.325081,76.656265 
z"/>
<path fill="#202122" opacity="1.000000" stroke="none" 
	d="
M146.990097,63.060425 
	C148.081497,62.372883 149.172913,61.685345 150.646393,60.984055 
	C151.028458,60.970310 151.005386,60.991959 151.170959,61.238094 
	C151.899628,61.667854 152.462708,61.851475 153.025803,62.035095 
	C153.025803,62.035095 153.033768,62.467709 152.916962,62.967026 
	C152.534409,64.007713 152.268692,64.549080 151.893524,65.292313 
	C151.588577,65.744011 151.339813,65.917587 151.039139,65.768456 
	C151.040482,65.522018 150.984299,65.032356 150.976746,64.787827 
	C150.860519,64.261566 150.751846,63.979820 150.643173,63.698074 
	C150.415771,64.045448 150.188370,64.392822 149.740952,64.897964 
	C149.332199,65.360451 149.143463,65.665161 148.954742,65.969872 
	C148.490402,65.423080 148.026077,64.876297 147.291595,63.948692 
	C147.011017,63.398727 147.000549,63.229576 146.990097,63.060425 
z"/>
<path fill="#383B40" opacity="1.000000" stroke="none" 
	d="
M132.117462,66.694176 
	C131.171432,66.736343 130.379868,66.494133 129.400162,65.868217 
	C129.472717,64.987686 129.733414,64.490860 129.998886,63.750717 
	C130.003662,63.507404 130.005264,63.020691 130.271912,62.893257 
	C131.011108,62.156757 131.483658,61.547691 131.956207,60.938629 
	C132.429367,60.657482 132.902542,60.376339 133.701370,60.056519 
	C134.027039,60.017838 134.185379,60.167942 134.185379,60.167942 
	C134.214706,60.536579 134.244049,60.905220 134.080261,61.651657 
	C133.778015,62.135231 133.557831,62.299252 133.577789,62.337345 
	C133.708557,62.586731 133.891251,62.808880 134.056992,63.039925 
	C133.461975,64.163216 132.866959,65.286507 132.117462,66.694176 
z"/>
<path fill="#6A6967" opacity="1.000000" stroke="none" 
	d="
M129.155670,78.952225 
	C130.393631,78.404175 131.592300,78.255722 132.790985,78.107269 
	C132.790298,78.623611 132.789612,79.139946 132.788925,79.656281 
	C131.564743,79.554802 130.340576,79.453316 129.155670,78.952225 
z"/>
<path fill="#504749" opacity="1.000000" stroke="none" 
	d="
M135.919617,71.417854 
	C136.109116,71.002823 136.283600,71.003967 136.729645,71.391388 
	C137.123245,72.793480 137.245300,73.809280 137.276917,75.044174 
	C137.186478,75.263260 137.068634,75.717064 137.024994,75.815506 
	C136.981339,75.913956 136.837036,76.073830 136.837036,76.073830 
	C136.837036,76.073830 136.375732,76.028625 136.143738,76.013153 
	C135.909332,74.609802 135.906952,73.221909 135.919617,71.417854 
z"/>
<path fill="#202122" opacity="1.000000" stroke="none" 
	d="
M156.061142,65.694092 
	C155.891006,65.921112 155.700974,65.943939 155.025223,65.886322 
	C154.289886,65.631142 154.107559,65.402687 154.025970,64.812996 
	C154.095734,64.302467 154.132050,64.099464 154.168381,63.896465 
	C154.571289,63.917160 154.974182,63.937855 155.687805,64.245087 
	C156.003967,64.714561 156.009399,64.897514 156.014847,65.080467 
	C156.014847,65.080467 156.041245,65.489914 156.061142,65.694092 
z"/>
<path fill="#2C2C2D" opacity="1.000000" stroke="none" 
	d="
M154.026154,63.680313 
	C154.132050,64.099464 154.095734,64.302467 153.694534,64.795586 
	C152.887421,65.087288 152.445206,65.088867 152.002975,65.090454 
	C152.268692,64.549080 152.534409,64.007713 152.915894,63.183369 
	C153.315735,63.088314 153.599838,63.276237 154.026154,63.680313 
z"/>
<path fill="#2C2C2D" opacity="1.000000" stroke="none" 
	d="
M152.869354,61.773033 
	C152.462708,61.851475 151.899628,61.667854 151.175064,61.229603 
	C151.580032,61.153641 152.146454,61.332306 152.869354,61.773033 
z"/>
<path fill="#40454C" opacity="1.000000" stroke="none" 
	d="
M134.268585,62.898750 
	C133.891251,62.808880 133.708557,62.586731 133.577789,62.337345 
	C133.557831,62.299252 133.778015,62.135231 134.104706,61.927872 
	C134.322281,61.826290 134.547211,61.817142 134.658051,61.818089 
	C134.672638,62.131882 134.576401,62.444729 134.268585,62.898750 
z"/>
<path fill="#2C2C2D" opacity="1.000000" stroke="none" 
	d="
M156.184418,64.972305 
	C156.009399,64.897514 156.003967,64.714561 155.990204,64.256989 
	C156.105911,64.276291 156.229950,64.570213 156.184418,64.972305 
z"/>
<path fill="#C3CDD8" opacity="1.000000" stroke="none" 
	d="
M151.414886,54.928871 
	C147.153656,54.841301 143.271790,54.780254 139.190506,54.156975 
	C138.993607,53.426910 138.996109,53.259079 139.290222,52.948532 
	C140.389053,51.549706 141.196304,50.293583 142.265350,48.938225 
	C143.016922,48.572159 143.506668,48.305328 144.295349,48.324574 
	C149.030533,48.694630 153.466766,48.778610 158.261276,48.901119 
	C159.428848,48.316372 160.238144,47.693096 161.504517,47.060219 
	C165.350952,47.011330 168.740295,46.972046 172.325714,46.965797 
	C172.521759,46.998837 172.903259,47.110996 172.903259,47.110996 
	C172.169128,52.852741 166.856522,51.486538 163.492828,53.079262 
	C161.493332,54.026031 159.262115,54.483433 157.060699,55.515060 
	C155.255615,55.564648 153.524933,55.260021 151.414886,54.928871 
z"/>
<path fill="#4B5259" opacity="1.000000" stroke="none" 
	d="
M181.230469,65.018173 
	C180.959229,64.164589 180.969162,63.457027 180.977051,62.395000 
	C182.220825,62.552555 183.466614,63.064571 184.712418,63.576591 
	C183.645508,64.105797 182.578583,64.635002 181.230469,65.018173 
z"/>
<path fill="#CE4B4F" opacity="1.000000" stroke="none" 
	d="
M178.009247,47.227055 
	C178.009476,47.563789 178.009705,47.900520 177.728241,48.677971 
	C176.622025,49.429474 175.797485,49.740265 174.972961,50.051056 
	C174.903030,49.260098 174.833084,48.469147 175.261856,47.373413 
	C176.510132,47.121441 177.259689,47.174248 178.009247,47.227055 
z"/>
<path fill="#593433" opacity="1.000000" stroke="none" 
	d="
M178.349915,47.175880 
	C177.259689,47.174248 176.510132,47.121441 175.386505,47.111847 
	C174.543640,47.116627 174.074860,47.078197 173.254669,47.075382 
	C172.903259,47.110996 172.521759,46.998837 172.412231,46.691708 
	C172.811707,46.124378 173.320709,45.864178 174.133209,45.683540 
	C174.850632,45.744308 175.264572,45.725517 175.678497,45.706726 
	C177.160873,45.793182 178.643265,45.879639 180.572525,45.984932 
	C180.243134,46.377411 179.466843,46.751057 178.349915,47.175880 
z"/>
<path fill="#A22D2B" opacity="1.000000" stroke="none" 
	d="
M175.088684,50.311283 
	C175.797485,49.740265 176.622025,49.429474 177.731323,48.930496 
	C177.764679,49.604488 177.513290,50.466667 177.103882,51.628654 
	C176.365387,51.476147 175.784897,51.023827 175.088684,50.311283 
z"/>
<path fill="#555C64" opacity="1.000000" stroke="none" 
	d="
M12.899403,61.924168 
	C13.958551,59.900211 15.017700,57.876259 16.104790,55.499939 
	C22.777073,54.762207 29.419605,54.159466 36.066696,54.104134 
	C38.541382,54.083530 41.026726,55.343319 43.782269,56.643307 
	C44.037663,57.840481 44.017998,58.413589 43.998333,58.986702 
	C36.571819,56.063515 29.311686,55.031197 22.164368,60.744873 
	C18.748489,61.058083 15.823946,61.491127 12.899403,61.924168 
M17.426395,57.464165 
	C17.426395,57.464165 17.526123,57.406513 17.426395,57.464165 
z"/>
<path fill="#4A5059" opacity="1.000000" stroke="none" 
	d="
M44.286636,59.175491 
	C44.017998,58.413589 44.037663,57.840481 44.076279,56.835819 
	C47.189365,56.673698 50.283504,56.943127 53.681145,57.426018 
	C53.988106,58.099689 53.991558,58.559898 53.997971,59.418987 
	C54.005325,60.884434 54.009716,61.951004 54.012520,63.358192 
	C53.906940,64.556892 53.802948,65.414978 53.648464,66.689735 
	C52.173237,65.195297 51.088150,64.096077 49.991280,62.756382 
	C49.860703,62.240406 49.741909,61.964912 49.623112,61.689423 
	C49.499218,61.776569 49.375320,61.863720 49.251423,61.950867 
	C49.500015,62.301231 49.748604,62.651592 49.889809,63.214447 
	C49.358620,63.609844 48.934818,63.792747 48.264336,63.704201 
	C47.357788,63.275272 46.697926,63.117794 46.038067,62.960316 
	C46.038067,62.960316 46.081207,62.926704 46.097820,62.904491 
	C45.601269,61.709610 45.088104,60.536945 44.286636,59.175491 
z"/>
<path fill="#67707C" opacity="1.000000" stroke="none" 
	d="
M53.995010,59.020103 
	C53.991558,58.559898 53.988106,58.099689 53.988518,57.293404 
	C54.018200,56.553318 54.044018,56.159306 54.303787,55.457298 
	C54.537739,55.149303 54.923729,55.101261 55.370438,55.099579 
	C57.576771,55.167160 59.336388,55.236423 61.080986,55.662392 
	C61.014961,56.978481 60.963959,57.937866 60.593185,58.909420 
	C59.847263,58.942600 59.421108,58.963612 58.578552,58.975372 
	C56.773098,58.984123 55.384056,59.002113 53.995010,59.020103 
z"/>
<path fill="#939EA8" opacity="1.000000" stroke="none" 
	d="
M54.923729,55.101261 
	C54.923729,55.101261 54.537739,55.149303 54.345242,55.163094 
	C54.092991,54.069584 54.033234,52.962288 53.970207,51.442978 
	C54.136471,51.019196 54.306004,51.007423 54.738640,50.995392 
	C55.001743,50.995132 55.018162,51.043365 55.009399,51.446510 
	C54.975002,52.933521 54.949368,54.017391 54.923729,55.101261 
z"/>
<path fill="#7F8895" opacity="1.000000" stroke="none" 
	d="
M24.003605,52.005661 
	C23.317606,52.306366 22.626066,52.599274 21.934526,52.892178 
	C21.884199,52.673088 21.833872,52.453999 21.783545,52.234913 
	C22.317410,52.139580 22.851276,52.044250 23.684214,51.965698 
	C23.983286,51.982471 23.998064,51.997860 24.003605,52.005661 
z"/>
<path fill="#2F2F30" opacity="1.000000" stroke="none" 
	d="
M25.149908,78.893127 
	C24.057474,78.922195 22.965038,78.951271 21.464836,78.988220 
	C21.384148,77.006836 21.985849,75.018013 21.989021,73.028236 
	C22.000505,65.825562 26.341713,60.472485 32.600769,60.718628 
	C32.468166,61.720512 32.285824,62.291939 31.844425,63.040737 
	C31.643536,64.114334 31.701704,65.010567 31.726622,66.260506 
	C32.284309,67.283920 32.875244,67.953621 33.466179,68.623322 
	C33.670090,68.071609 33.874001,67.519905 34.308220,66.845581 
	C34.743313,66.441895 34.948101,66.160812 35.328392,65.896408 
	C35.503899,65.913078 35.853371,65.959877 36.109505,65.967087 
	C36.536442,65.976585 36.707249,65.978874 37.016350,66.185165 
	C37.323868,66.693726 37.577244,66.889145 38.186676,66.984085 
	C38.639931,66.995811 38.821274,66.998894 38.908142,67.278618 
	C38.704113,67.716461 38.594563,67.877655 38.420784,68.264481 
	C38.283691,68.798203 38.161709,69.085442 37.625511,69.254982 
	C35.515984,69.770065 33.771549,70.381981 31.657261,70.996613 
	C30.549067,70.994537 29.810728,70.989746 28.734251,70.961060 
	C27.314045,73.589157 26.231976,76.241142 25.149908,78.893127 
z"/>
<path fill="#3C4047" opacity="1.000000" stroke="none" 
	d="
M12.688178,62.099487 
	C15.823946,61.491127 18.748489,61.058083 21.858906,60.932404 
	C21.093809,63.278397 20.142841,65.317024 18.871939,67.538727 
	C18.034821,67.148483 17.517639,66.575157 16.583027,66.000412 
	C14.773259,66.001518 13.380919,66.004044 11.988581,66.006569 
	C11.976842,65.512787 11.965103,65.019005 11.953650,64.152451 
	C12.128275,63.278061 12.302614,62.776436 12.688178,62.099487 
z"/>
<path fill="#202122" opacity="1.000000" stroke="none" 
	d="
M36.878059,65.981163 
	C36.707249,65.978874 36.536442,65.976585 36.136658,65.598923 
	C35.599880,63.819408 35.292080,62.415279 34.984280,61.011147 
	C35.764206,60.376713 36.544132,59.742283 37.687401,59.372093 
	C39.030666,59.769890 40.010586,59.903446 40.990509,60.037003 
	C40.990509,60.037003 40.988361,60.519081 40.993439,61.057541 
	C41.038074,61.988503 41.077637,62.381001 41.117195,62.773502 
	C41.117195,62.773502 41.018497,62.928604 40.662941,62.964500 
	C39.523357,63.293228 38.739326,63.586052 37.678909,64.032455 
	C37.227703,64.784409 37.052883,65.382790 36.878059,65.981163 
z"/>
<path fill="#393A3D" opacity="1.000000" stroke="none" 
	d="
M17.000458,66.001831 
	C17.517639,66.575157 18.034821,67.148483 18.803596,67.877861 
	C18.680428,69.360603 18.305664,70.687286 17.518188,72.053970 
	C17.105476,72.093964 16.999771,71.999695 16.999893,71.571350 
	C17.000162,69.429283 17.000309,67.715553 17.000458,66.001831 
z"/>
<path fill="#5A5E5E" opacity="1.000000" stroke="none" 
	d="
M34.671257,60.969486 
	C35.292080,62.415279 35.599880,63.819408 35.880527,65.591705 
	C35.853371,65.959877 35.503899,65.913078 35.278015,65.538300 
	C34.069252,64.396797 33.086365,63.630081 32.103481,62.863365 
	C32.285824,62.291939 32.468166,61.720512 32.880966,60.935875 
	C33.527027,60.791054 33.942631,60.859440 34.671257,60.969486 
z"/>
<path fill="#393A3D" opacity="1.000000" stroke="none" 
	d="
M17.120834,73.810974 
	C16.111929,73.659210 15.122334,73.180267 14.450550,72.351524 
	C15.512164,72.001045 16.255968,72.000366 16.999771,71.999695 
	C16.999771,71.999695 17.105476,72.093964 17.163715,72.140594 
	C17.194687,72.619415 17.167416,73.051605 17.120834,73.810974 
z"/>
<path fill="#0D0E0E" opacity="1.000000" stroke="none" 
	d="
M40.788429,59.763382 
	C40.010586,59.903446 39.030666,59.769890 37.996124,59.337738 
	C38.823116,59.189346 39.704735,59.339554 40.788429,59.763382 
z"/>
<path fill="#0D0E0E" opacity="1.000000" stroke="none" 
	d="
M41.426651,62.849411 
	C41.077637,62.381001 41.038074,61.988503 40.996895,61.298557 
	C41.633621,61.428909 42.271965,61.856705 42.959488,62.592743 
	C42.584480,62.909096 42.160290,62.917206 41.426651,62.849411 
z"/>
<path fill="#111212" opacity="1.000000" stroke="none" 
	d="
M151.893524,65.292313 
	C152.445206,65.088867 152.887421,65.087288 153.661087,65.103111 
	C154.107559,65.402687 154.289886,65.631142 154.738617,65.902924 
	C154.405136,67.491508 153.872574,68.983040 152.793732,70.738876 
	C151.494934,70.994278 150.742447,70.985359 149.990662,70.989929 
	C149.991379,71.003418 150.017242,71.010582 150.017242,71.010582 
	C150.074142,70.853378 150.131058,70.696167 150.543655,70.238373 
	C151.287201,69.350067 151.675064,68.762352 151.933685,67.965057 
	C151.379150,67.829796 150.953873,67.904129 150.518127,67.965088 
	C150.507660,67.951714 150.480133,67.933113 150.480133,67.933113 
	C150.480133,67.933113 150.306793,67.522392 150.285095,67.085434 
	C150.521530,66.437279 150.779663,66.226082 151.037796,66.014893 
	C151.339813,65.917587 151.588577,65.744011 151.893524,65.292313 
z"/>
<path fill="#1B1D20" opacity="1.000000" stroke="none" 
	d="
M153.001221,72.048515 
	C153.001221,72.048515 152.972092,72.437592 152.693634,72.829666 
	C152.261932,73.629768 152.108704,74.037804 151.957230,74.481766 
	C151.959000,74.517700 151.959335,74.589653 151.959335,74.589653 
	C151.959335,74.589653 151.670914,74.707855 151.368042,74.541595 
	C150.442719,74.308594 149.820267,74.241852 149.197800,74.175110 
	C148.520615,73.162354 147.741226,72.198372 147.221909,71.110260 
	C147.041229,70.731705 147.503693,70.046188 147.672424,69.500862 
	C148.266113,69.894287 148.859802,70.287720 149.735367,70.845871 
	C150.017242,71.010582 149.991379,71.003418 150.176971,71.275314 
	C151.242111,71.714317 152.121658,71.881416 153.001221,72.048515 
z"/>
<path fill="#141516" opacity="1.000000" stroke="none" 
	d="
M137.367371,74.825081 
	C137.245300,73.809280 137.123245,72.793480 136.991364,71.391632 
	C137.254913,70.804718 137.528290,70.603844 138.281128,70.163879 
	C140.175323,70.259872 141.590073,70.594948 143.004807,70.930023 
	C141.983810,71.673012 140.962814,72.416000 139.640320,73.670853 
	C138.813385,74.412056 138.287964,74.641396 137.663116,74.864929 
	C137.563675,74.859138 137.367371,74.825081 137.367371,74.825081 
z"/>
<path fill="#0B0C0C" opacity="1.000000" stroke="none" 
	d="
M146.624756,63.058228 
	C147.000549,63.229576 147.011017,63.398727 147.046417,63.821442 
	C146.643784,65.233948 146.216202,66.392883 145.384094,67.139206 
	C144.297989,66.492393 143.616394,66.258186 142.934799,66.023972 
	C144.043015,65.034660 145.151215,64.045349 146.624756,63.058228 
z"/>
<path fill="#111212" opacity="1.000000" stroke="none" 
	d="
M141.081833,79.861465 
	C141.081833,79.861465 141.086365,79.441444 140.942703,78.907738 
	C140.694595,78.169777 140.590164,77.965530 140.562531,77.672119 
	C140.639313,77.582954 140.763229,77.382881 140.763229,77.382874 
	C141.708527,77.282043 142.653824,77.181213 143.962677,77.226868 
	C144.869583,78.062889 145.412933,78.752434 145.956284,79.441978 
	C145.985046,79.791779 146.013809,80.141571 146.028931,80.754623 
	C144.667969,81.004440 143.320618,80.991013 141.547394,80.699829 
	C141.108276,80.235207 141.095047,80.048332 141.081833,79.861465 
z"/>
<path fill="#635A5B" opacity="1.000000" stroke="none" 
	d="
M143.006012,70.557755 
	C141.590073,70.594948 140.175323,70.259872 138.391174,69.930252 
	C139.140442,69.055305 140.259125,68.174896 141.796326,67.381897 
	C142.425995,67.746796 142.704651,67.906517 143.050812,67.948479 
	C143.036285,68.694145 143.021759,69.439819 143.006012,70.557755 
z"/>
<path fill="#6A6967" opacity="1.000000" stroke="none" 
	d="
M146.036743,79.060486 
	C145.412933,78.752434 144.869583,78.062889 144.275070,77.008415 
	C144.596481,76.264870 144.969040,75.886261 145.341599,75.507660 
	C145.600128,76.564766 145.858658,77.621887 146.036743,79.060486 
z"/>
<path fill="#6A6967" opacity="1.000000" stroke="none" 
	d="
M140.026901,77.874832 
	C139.070465,77.465607 138.114014,77.056381 136.997314,76.360489 
	C136.837036,76.073830 136.981339,75.913956 137.206177,75.805191 
	C137.431000,75.696426 137.779419,75.584679 138.194748,75.701874 
	C139.476440,75.852837 140.342789,75.886612 141.209152,75.920380 
	C141.116211,76.249458 141.023270,76.578529 140.846771,77.145248 
	C140.763229,77.382881 140.639313,77.582954 140.447449,77.691605 
	C140.255600,77.800262 140.026901,77.874832 140.026901,77.874832 
z"/>
<path fill="#504749" opacity="1.000000" stroke="none" 
	d="
M141.361603,75.734253 
	C140.342789,75.886612 139.476440,75.852837 138.223434,75.524216 
	C137.836792,75.229378 137.762558,74.870735 137.762558,74.870728 
	C138.287964,74.641396 138.813385,74.412056 139.563141,73.999855 
	C140.362991,74.394035 140.938522,74.971077 141.361603,75.734253 
z"/>
<path fill="#252729" opacity="1.000000" stroke="none" 
	d="
M143.415833,67.863518 
	C142.704651,67.906517 142.425995,67.746796 142.098145,67.252731 
	C142.074158,66.716431 142.249832,66.451790 142.721603,66.133102 
	C143.616394,66.258186 144.297989,66.492393 145.080261,66.972282 
	C144.714233,67.404831 144.247528,67.591698 143.415833,67.863518 
z"/>
<path fill="#838787" opacity="1.000000" stroke="none" 
	d="
M149.222260,74.481033 
	C149.820267,74.241852 150.442719,74.308594 151.253891,74.647690 
	C150.710632,74.875679 149.978683,74.831314 149.222260,74.481033 
z"/>
<path fill="#2C2C2D" opacity="1.000000" stroke="none" 
	d="
M154.676437,81.035782 
	C154.528595,81.626793 154.063995,82.261139 153.272339,82.915085 
	C153.416763,82.316162 153.888214,81.697639 154.676437,81.035782 
z"/>
<path fill="#1B1D20" opacity="1.000000" stroke="none" 
	d="
M150.424072,68.289001 
	C150.480133,67.933113 150.507660,67.951714 150.895676,68.061264 
	C151.543442,68.172089 151.803177,68.173370 152.062927,68.174644 
	C151.675064,68.762352 151.287201,69.350067 150.633362,70.004173 
	C150.367599,69.595337 150.367813,69.120117 150.424072,68.289001 
z"/>
<path fill="#6A6967" opacity="1.000000" stroke="none" 
	d="
M151.039139,65.768448 
	C150.779663,66.226082 150.521530,66.437279 150.179993,66.888870 
	C149.802643,66.907532 149.508728,66.685806 149.084778,66.216972 
	C149.143463,65.665161 149.332199,65.360451 149.995026,64.978073 
	C150.640869,64.944382 150.812592,64.988373 150.984299,65.032356 
	C150.984299,65.032356 151.040482,65.522018 151.039139,65.768448 
z"/>
<path fill="#202122" opacity="1.000000" stroke="none" 
	d="
M152.319763,74.709869 
	C151.959335,74.589653 151.959000,74.517700 152.312927,74.314011 
	C153.446335,74.075447 154.225800,74.040565 155.005264,74.005684 
	C155.005264,74.005684 154.992554,73.994789 154.981628,73.997894 
	C154.970688,74.000999 155.023407,74.481537 155.006607,74.746658 
	C154.989807,75.011787 154.935287,75.063194 154.935287,75.063194 
	C154.183578,74.985489 153.431885,74.907784 152.319763,74.709869 
z"/>
<path fill="#202122" opacity="1.000000" stroke="none" 
	d="
M155.018814,74.988068 
	C155.170898,75.439812 155.293991,75.915276 155.417084,76.390739 
	C155.273315,76.111534 155.129562,75.832329 154.960541,75.308159 
	C154.935287,75.063194 154.989807,75.011787 155.018814,74.988068 
z"/>
<path fill="#1B1D20" opacity="1.000000" stroke="none" 
	d="
M144.460403,70.422279 
	C144.550064,70.361687 144.584396,70.599998 144.584396,70.599998 
	C144.584396,70.599998 144.370743,70.482872 144.460403,70.422279 
z"/>
<path fill="#9EA8B3" opacity="1.000000" stroke="none" 
	d="
M173.829697,45.603981 
	C173.320709,45.864178 172.811707,46.124378 172.216187,46.658669 
	C168.740295,46.972046 165.350952,47.011330 161.151154,47.038292 
	C159.528168,47.638176 158.715591,48.250385 157.903015,48.862595 
	C153.466766,48.778610 149.030533,48.694630 144.269791,48.040455 
	C143.666473,47.218781 143.387650,46.967300 143.108826,46.715820 
	C142.740402,47.489697 142.371979,48.263577 142.003555,49.037460 
	C141.196304,50.293583 140.389053,51.549706 139.244202,52.555088 
	C136.271484,51.535614 133.636353,50.766876 130.911224,49.600174 
	C129.500168,48.795029 128.167618,48.009335 126.860115,48.049000 
	C122.248001,48.188911 117.644478,48.611759 113.025146,48.575520 
	C112.003319,46.986855 110.994057,45.749973 110.391235,44.405781 
	C112.197655,44.209839 113.597641,44.121212 115.131645,44.344185 
	C118.489563,44.544960 121.713470,44.434132 125.055145,44.669987 
	C127.775887,45.046410 130.378860,45.076149 133.451263,45.090172 
	C143.339508,44.982761 152.758316,44.891068 162.177124,44.799377 
	C164.265182,44.698669 166.353256,44.597961 168.720367,44.239330 
	C170.336243,44.070152 171.673050,44.158901 173.422806,44.509842 
	C173.835999,45.049366 173.833984,45.326679 173.829697,45.603981 
z"/>
<path fill="#7B848F" opacity="1.000000" stroke="none" 
	d="
M162.143570,44.476280 
	C152.758316,44.891068 143.339508,44.982761 133.458435,44.811916 
	C132.997849,44.364586 132.999527,44.179787 133.333298,43.829224 
	C137.128342,42.799419 140.591309,41.935379 144.133484,41.449699 
	C148.807526,41.884239 153.402344,41.940422 158.414093,42.007843 
	C159.946411,42.077686 161.061798,42.136292 162.177185,42.194901 
	C162.154800,42.847660 162.132416,43.500420 162.143570,44.476280 
z"/>
<path fill="#A9B3BE" opacity="1.000000" stroke="none" 
	d="
M157.997177,41.996605 
	C153.402344,41.940422 148.807526,41.884239 144.406952,41.301193 
	C147.946365,39.086082 145.017761,36.936749 145.025375,35.003208 
	C147.399231,35.368786 149.773071,35.734364 152.627625,36.482819 
	C154.737946,38.575996 156.367569,40.286301 157.997177,41.996605 
z"/>
<path fill="#474C4E" opacity="1.000000" stroke="none" 
	d="
M144.757263,35.114891 
	C145.017761,36.936749 147.946365,39.086082 144.327759,40.922836 
	C140.591309,41.935379 137.128342,42.799419 132.997925,43.806843 
	C131.887115,43.890907 131.443771,43.831585 131.027222,43.503624 
	C131.367722,42.823437 131.681427,42.411888 132.328827,41.994999 
	C133.295044,41.635601 133.927536,41.281544 134.560043,40.927483 
	C134.044846,40.621170 133.529663,40.314857 132.637054,40.005589 
	C131.504654,40.003609 130.749649,40.004581 129.997162,40.002861 
	C129.999695,40.000168 129.994431,40.004890 130.150543,39.760666 
	C130.869995,39.005825 131.433334,38.495213 131.946716,37.936752 
	C131.896744,37.888912 131.885635,37.751007 132.342987,37.824982 
	C135.719070,37.926674 138.642838,38.047768 141.551636,37.891117 
	C142.042068,37.864704 142.467926,36.639694 142.923630,35.968483 
	C143.445480,35.721180 143.967316,35.473877 144.757263,35.114891 
z"/>
<path fill="#838787" opacity="1.000000" stroke="none" 
	d="
M142.768158,35.731190 
	C142.467926,36.639694 142.042068,37.864704 141.551636,37.891117 
	C138.642838,38.047768 135.719070,37.926674 132.361221,37.525158 
	C131.911880,36.550846 131.901657,35.950329 131.891418,35.349815 
	C134.681366,34.925701 137.471298,34.501587 140.626007,34.002335 
	C141.531418,34.449432 142.072052,34.971668 142.768158,35.731190 
z"/>
<path fill="#939EA8" opacity="1.000000" stroke="none" 
	d="
M158.414093,42.007843 
	C156.367569,40.286301 154.737946,38.575996 153.025864,36.536987 
	C156.078079,37.142479 159.255173,37.965195 162.304077,39.124943 
	C162.789917,39.309746 162.700134,41.007832 162.526825,42.100601 
	C161.061798,42.136292 159.946411,42.077686 158.414093,42.007843 
z"/>
<path fill="#34383F" opacity="1.000000" stroke="none" 
	d="
M16.999893,71.571350 
	C16.255968,72.000366 15.512164,72.001045 14.397216,72.002312 
	C13.351340,70.244438 12.676608,68.485962 11.995229,66.367035 
	C13.380919,66.004044 14.773259,66.001518 16.583027,66.000412 
	C17.000309,67.715553 17.000162,69.429283 16.999893,71.571350 
z"/>
<path fill="#635A5B" opacity="1.000000" stroke="none" 
	d="
M25.341269,79.019791 
	C26.231976,76.241142 27.314045,73.589157 28.870056,71.239029 
	C30.234278,72.732819 31.124557,73.924767 32.018570,75.372406 
	C32.027817,75.798508 32.033337,75.968903 31.952137,76.357803 
	C31.910095,77.056778 31.954775,77.537239 31.824711,78.248520 
	C31.329737,78.692757 31.009508,78.906174 30.689281,79.119598 
	C29.373684,79.374557 28.058084,79.629509 26.404747,79.883217 
	C25.953861,79.589584 25.775734,79.344421 25.341269,79.019791 
z"/>
<path fill="#3F4443" opacity="1.000000" stroke="none" 
	d="
M127.711227,30.045570 
	C128.671112,30.842297 129.301453,31.605669 129.500198,32.688316 
	C122.033554,32.659012 114.998497,32.310436 107.987862,31.724365 
	C108.012276,31.486872 108.040543,31.010218 108.498245,31.004583 
	C114.657944,30.635710 120.359940,30.272469 126.061943,29.909227 
	C126.501862,29.943558 126.941772,29.977886 127.711227,30.045570 
z"/>
<path fill="#141516" opacity="1.000000" stroke="none" 
	d="
M108.040543,31.010218 
	C108.040543,31.010218 108.012276,31.486872 107.716080,31.925953 
	C107.278656,33.242004 107.137413,34.118969 106.997704,34.997391 
	C106.999229,34.998848 106.989929,34.990410 106.989929,34.990410 
	C105.208466,34.990410 103.427002,34.990410 100.896774,34.990410 
	C101.211937,32.524048 101.448174,30.675350 101.844879,28.472284 
	C103.702164,28.084713 105.398979,28.051510 107.525162,28.420837 
	C107.983208,29.552317 108.011879,30.281267 108.040543,31.010218 
z"/>
<path fill="#363B3D" opacity="1.000000" stroke="none" 
	d="
M108.498245,31.004583 
	C108.011879,30.281267 107.983208,29.552317 107.947845,28.459751 
	C113.801704,28.506645 119.662247,28.917154 125.792374,29.618446 
	C120.359940,30.272469 114.657944,30.635710 108.498245,31.004583 
z"/>
<path fill="#8B949F" opacity="1.000000" stroke="none" 
	d="
M54.992424,50.971424 
	C54.990917,49.891308 54.998726,48.834900 55.001923,47.380867 
	C55.419888,46.354702 55.842464,45.726154 56.745922,45.370499 
	C64.337524,49.584789 67.070000,49.246101 70.961365,43.955727 
	C71.406395,43.958534 71.661392,43.966949 72.063065,44.213135 
	C72.809753,44.303703 73.409866,44.153252 74.250687,43.996078 
	C74.491379,43.989353 74.972916,43.983402 75.263275,44.287979 
	C82.656448,44.055138 89.759262,43.517723 97.028000,43.324127 
	C100.128952,43.761715 103.063980,43.855488 106.016235,44.221931 
	C106.018219,44.676094 106.002975,44.857582 105.761215,45.349625 
	C99.365311,46.114017 93.195938,46.567848 86.571907,47.011433 
	C81.390427,47.358730 76.663612,47.716274 71.399559,48.114456 
	C72.646683,49.024776 73.276993,49.484859 73.448830,49.949303 
	C66.999634,50.316895 61.008896,50.680130 55.018162,51.043365 
	C55.018162,51.043365 55.001743,50.995132 54.992424,50.971424 
z"/>
<path fill="#1B1D20" opacity="1.000000" stroke="none" 
	d="
M70.771225,43.964577 
	C67.070000,49.246101 64.337524,49.584789 57.048477,45.304253 
	C56.870148,44.965111 57.005878,44.509548 57.062294,44.278633 
	C58.330582,43.598045 59.542461,43.148365 61.170601,42.298302 
	C62.411999,41.481468 63.237141,41.065018 64.062279,40.648567 
	C64.266273,40.613243 64.470276,40.577919 64.839577,40.279652 
	C66.156906,40.032093 67.308937,40.047474 68.987595,40.028542 
	C69.681885,40.065121 69.849564,40.136013 69.955505,40.405109 
	C69.893768,40.603317 70.003799,41.003834 70.048630,41.386467 
	C70.319389,42.500923 70.545303,43.232750 70.771225,43.964577 
z"/>
<path fill="#7B848F" opacity="1.000000" stroke="none" 
	d="
M174.133209,45.683540 
	C173.833984,45.326679 173.835999,45.049366 173.819794,44.567513 
	C174.454300,44.612465 175.104782,44.861942 175.716873,45.409073 
	C175.264572,45.725517 174.850632,45.744308 174.133209,45.683540 
z"/>
<path fill="#C6C9CA" opacity="1.000000" stroke="none" 
	d="
M70.017242,40.206902 
	C69.849564,40.136013 69.681885,40.065121 69.268509,39.874985 
	C69.595108,35.713684 73.265953,36.434975 76.323303,35.120228 
	C81.281075,34.099567 85.687454,33.324150 90.093826,32.548729 
	C91.815880,32.420090 93.537926,32.291451 95.631516,32.091663 
	C97.002541,33.807911 98.002045,35.595303 98.976822,37.991100 
	C98.648926,38.776726 98.345764,38.953945 97.807388,38.847820 
	C93.204201,38.722309 88.830872,38.794525 84.470016,39.066574 
	C81.298874,39.264404 78.144211,39.726315 74.620308,40.050125 
	C73.781433,40.101696 73.304459,40.173618 72.692940,40.054890 
	C72.154831,39.636185 71.751251,39.408131 71.116913,39.148819 
	C70.569046,39.133537 70.280724,39.232925 69.964546,39.613235 
	C69.907898,39.810753 70.017242,40.206902 70.017242,40.206902 
z"/>
<path fill="#9FA3A4" opacity="1.000000" stroke="none" 
	d="
M131.674072,35.253014 
	C131.901657,35.950329 131.911880,36.550846 131.903870,37.451187 
	C131.885635,37.751007 131.896744,37.888912 131.478333,37.929550 
	C123.073120,37.960541 115.086334,37.950890 107.099548,37.941238 
	C107.077469,37.203564 107.055389,36.465893 107.011620,35.359314 
	C106.989929,34.990410 106.999229,34.998848 107.466583,34.989166 
	C115.630333,34.973053 123.326721,34.966621 131.023117,34.960186 
	C131.023117,34.960186 131.456726,35.156219 131.674072,35.253014 
z"/>
<path fill="#0B0C0C" opacity="1.000000" stroke="none" 
	d="
M98.042603,39.131165 
	C98.345764,38.953945 98.648926,38.776726 99.052727,38.348362 
	C101.139473,38.066742 103.125587,38.036266 105.599686,38.350563 
	C106.178284,39.142616 106.268883,39.589901 106.258041,40.418808 
	C106.104073,41.850044 106.051537,42.899651 105.999008,43.949265 
	C103.063980,43.855488 100.128952,43.761715 97.207672,43.024250 
	C97.495148,41.297424 97.768875,40.214294 98.042603,39.131165 
z"/>
<path fill="#464B4C" opacity="1.000000" stroke="none" 
	d="
M106.359474,40.037186 
	C106.268883,39.589901 106.178284,39.142616 106.026550,38.358292 
	C106.154228,38.005936 106.343040,37.990623 106.815697,37.958275 
	C115.086334,37.950890 123.073120,37.960541 131.528290,37.977394 
	C131.433334,38.495213 130.869995,39.005825 129.682541,39.759594 
	C121.492111,40.014225 113.925789,40.025703 106.359474,40.037186 
z"/>
<path fill="#5A6060" opacity="1.000000" stroke="none" 
	d="
M130.995453,34.665516 
	C123.326721,34.966621 115.630333,34.973053 107.465057,34.987709 
	C107.137413,34.118969 107.278656,33.242004 107.691666,32.163448 
	C114.998497,32.310436 122.033554,32.659012 129.537750,32.993874 
	C130.327194,33.443722 130.647491,33.907284 130.995453,34.665516 
z"/>
<path fill="#5A5E5E" opacity="1.000000" stroke="none" 
	d="
M90.078163,32.238510 
	C85.687454,33.324150 81.281075,34.099567 76.447891,34.871090 
	C75.976768,34.502048 75.779106,34.264339 75.193649,34.083473 
	C76.078194,33.347179 77.197182,32.681484 78.656036,32.005856 
	C81.823997,31.536850 84.652084,31.077774 87.738220,30.354450 
	C88.424110,30.082279 88.851959,30.074354 89.599136,30.068336 
	C89.966476,30.689592 90.014488,31.308939 90.078163,32.238510 
z"/>
<path fill="#B0B8C1" opacity="1.000000" stroke="none" 
	d="
M64.045395,40.255058 
	C63.237141,41.065018 62.411999,41.481468 61.318542,42.002159 
	C61.051395,41.047909 61.052570,39.989418 61.102028,38.541397 
	C62.109711,38.721760 63.069111,39.291656 64.045395,40.255058 
z"/>
<path fill="#B0B8C1" opacity="1.000000" stroke="none" 
	d="
M56.000805,43.001030 
	C56.093658,42.966286 56.185711,42.930508 56.137852,42.946571 
	C55.997940,42.998405 56.000000,43.000000 56.000805,43.001030 
z"/>
<path fill="#3E434B" opacity="1.000000" stroke="none" 
	d="
M58.994957,58.984619 
	C59.421108,58.963612 59.847263,58.942600 60.978668,58.948872 
	C62.453697,58.986973 63.223473,58.997787 63.995354,59.264095 
	C63.999363,59.689976 64.001266,59.860371 63.942535,60.381050 
	C60.660934,62.670525 58.377010,65.147469 58.816299,69.429184 
	C58.403328,69.730354 58.142101,69.865097 57.558537,70.024567 
	C56.826191,70.715889 56.407726,71.366081 55.619678,72.022217 
	C53.830494,71.688507 52.410892,71.348846 50.991295,71.009186 
	C50.090462,69.306709 49.189632,67.604233 47.887672,65.796707 
	C47.486542,65.691658 47.212376,65.535736 47.417694,65.306091 
	C47.919018,64.709518 48.215019,64.342583 48.511021,63.975651 
	C48.934818,63.792747 49.358620,63.609844 49.891212,63.213470 
	C50.000008,62.999996 50.003052,62.996872 50.003056,62.996868 
	C51.088150,64.096077 52.173237,65.195297 53.648464,66.689735 
	C53.802948,65.414978 53.906940,64.556892 54.376488,63.347633 
	C56.159687,61.659176 57.577320,60.321896 58.994957,58.984619 
z"/>
<path fill="#191A1D" opacity="1.000000" stroke="none" 
	d="
M43.971130,74.503586 
	C43.929176,77.901978 42.289349,79.474327 38.424240,78.630325 
	C37.514774,77.454849 37.028400,76.636192 36.581566,75.560349 
	C36.668972,75.135994 36.716839,74.968819 37.047554,74.820358 
	C37.595272,74.586266 37.860146,74.333450 38.430782,74.244965 
	C40.481407,74.440727 42.226269,74.472153 43.971130,74.503586 
z"/>
<path fill="#141516" opacity="1.000000" stroke="none" 
	d="
M37.990601,69.351814 
	C38.161709,69.085442 38.283691,68.798203 38.506382,68.647644 
	C39.309582,68.749664 39.962955,68.694145 40.616325,68.638634 
	C40.078423,68.093079 39.540520,67.547523 39.002617,67.001968 
	C38.821274,66.998894 38.639931,66.995811 38.199615,66.707520 
	C38.000378,66.058098 38.060120,65.693886 38.507015,65.253571 
	C39.935940,65.144760 40.977711,65.112045 42.019482,65.079330 
	C42.165001,66.616745 42.310520,68.154167 41.874134,69.905823 
	C40.520813,70.401604 39.749390,70.683151 38.981945,70.977959 
	C38.985924,70.991219 39.002468,70.988190 38.932098,70.741776 
	C38.636211,70.258545 38.410690,70.021729 38.152954,69.669266 
	C38.120735,69.553604 37.990601,69.351814 37.990601,69.351814 
z"/>
<path fill="#464B4C" opacity="1.000000" stroke="none" 
	d="
M38.977966,70.964699 
	C39.749390,70.683151 40.520813,70.401604 41.598206,70.113747 
	C42.591492,71.326950 43.278801,72.546471 43.968620,74.134781 
	C42.226269,74.472153 40.481407,74.440727 38.099510,74.199768 
	C37.243080,73.956032 37.023689,73.921822 36.776672,73.873550 
	C36.749039,73.859489 36.689091,73.843651 37.013790,73.618668 
	C37.884983,72.584030 38.431477,71.774361 38.977966,70.964699 
z"/>
<path fill="#5A6060" opacity="1.000000" stroke="none" 
	d="
M36.542027,75.817528 
	C37.028400,76.636192 37.514774,77.454849 38.034023,78.636948 
	C37.544212,79.712738 37.021519,80.425102 36.427044,81.235298 
	C36.086941,80.304947 35.750221,79.383850 35.199203,77.985825 
	C35.003979,77.313065 35.023052,77.117241 35.334061,76.795036 
	C35.937435,76.379967 36.248871,76.091293 36.553280,75.821640 
	C36.546249,75.840675 36.542027,75.817528 36.542027,75.817528 
z"/>
<path fill="#8A8F95" opacity="1.000000" stroke="none" 
	d="
M41.941917,64.803139 
	C40.977711,65.112045 39.935940,65.144760 38.443066,64.893417 
	C37.979740,64.365868 37.967518,64.122368 37.955299,63.878876 
	C38.739326,63.586052 39.523357,63.293228 40.624138,63.047829 
	C41.248711,63.572487 41.556534,64.049713 41.941917,64.803139 
z"/>
<path fill="#6A6967" opacity="1.000000" stroke="none" 
	d="
M30.941679,79.368408 
	C31.009508,78.906174 31.329737,78.692757 32.069839,78.262283 
	C32.489712,78.045227 32.976379,77.980453 33.273392,77.994667 
	C33.768635,78.010475 33.966862,78.012077 34.165092,78.013672 
	C33.174755,78.548187 32.184414,79.082710 30.941679,79.368408 
z"/>
<path fill="#090A0A" opacity="1.000000" stroke="none" 
	d="
M48.264336,63.704201 
	C48.215019,64.342583 47.919018,64.709518 47.334648,65.285492 
	C46.704239,64.886070 46.362194,64.277611 46.029110,63.314728 
	C46.697926,63.117794 47.357788,63.275272 48.264336,63.704201 
z"/>
<path fill="#464B4C" opacity="1.000000" stroke="none" 
	d="
M34.346222,78.042702 
	C33.966862,78.012077 33.768635,78.010475 33.380692,77.790482 
	C33.360680,77.301666 33.594620,77.109428 34.183605,76.999512 
	C34.668156,76.996170 34.861904,76.988693 35.032890,76.971840 
	C35.010132,76.962471 35.042122,76.921425 35.042122,76.921425 
	C35.023052,77.117241 35.003979,77.313065 34.939217,77.801689 
	C34.893532,78.094482 34.527355,78.071732 34.346222,78.042702 
z"/>
<path fill="#393A3D" opacity="1.000000" stroke="none" 
	d="
M140.896423,79.983467 
	C141.095047,80.048332 141.108276,80.235207 141.143585,80.702309 
	C141.014099,80.690186 140.862549,80.397827 140.896423,79.983467 
z"/>
<path fill="#393A3D" opacity="1.000000" stroke="none" 
	d="
M140.137543,78.110054 
	C140.026901,77.874832 140.255600,77.800262 140.370667,77.780777 
	C140.590164,77.965530 140.694595,78.169777 140.910248,78.700241 
	C140.763702,78.799393 140.505936,78.572334 140.137543,78.110054 
z"/>
<path fill="#3E434B" opacity="1.000000" stroke="none" 
	d="
M129.994110,63.994030 
	C129.733414,64.490860 129.472717,64.987686 129.108215,65.746048 
	C128.804916,66.295296 128.605423,66.582993 128.154770,66.979797 
	C127.903618,67.088905 127.839966,67.035469 127.800209,66.847359 
	C127.642410,66.424942 127.466232,66.248840 126.874542,66.064377 
	C125.020821,65.974579 123.524475,65.951340 121.689697,65.880264 
	C120.239517,65.596611 119.127769,65.360786 118.003952,64.712029 
	C116.678680,63.201145 115.391701,61.198288 114.047829,61.159359 
	C107.686882,60.975098 101.304039,61.577473 94.941292,61.415817 
	C88.952621,61.263672 82.979309,60.507412 76.958511,59.692451 
	C75.974312,58.610149 75.030838,57.852333 74.101654,56.840553 
	C74.123764,56.252464 74.131592,55.918335 74.515770,55.450172 
	C76.221375,55.305256 77.550613,55.294369 78.879860,55.283482 
	C80.845940,55.868782 82.778999,56.724136 84.786629,56.969589 
	C87.182625,57.262524 89.642479,57.033104 92.817825,57.318443 
	C96.040649,57.741547 98.520325,57.876171 101.286469,58.299541 
	C103.546333,58.723907 105.599571,59.247562 107.466057,58.863522 
	C108.787498,58.591621 109.856316,57.091930 111.037903,56.140316 
	C111.770042,56.118309 112.502197,56.096302 113.624069,56.489311 
	C114.752403,57.593063 115.561737,58.935703 116.218193,58.864716 
	C120.572220,58.393864 123.728668,60.447460 126.793922,63.107826 
	C127.548576,63.762802 128.911057,63.717438 129.994110,63.994030 
z"/>
<path fill="#A9B3BE" opacity="1.000000" stroke="none" 
	d="
M79.272255,55.107239 
	C77.550613,55.294369 76.221375,55.305256 74.069550,55.253685 
	C69.196648,55.229385 65.146332,55.267536 61.096008,55.305691 
	C59.336388,55.236423 57.576771,55.167160 55.370438,55.099579 
	C54.949368,54.017391 54.975002,52.933521 55.009399,51.446510 
	C61.008896,50.680130 66.999634,50.316895 73.919479,49.968140 
	C80.428833,49.735683 86.009079,49.488754 91.589317,49.241821 
	C91.635422,49.659912 91.681526,50.078003 91.727638,50.496094 
	C90.707573,50.961483 89.687500,51.426868 88.591393,51.926949 
	C89.548286,52.756294 90.285759,53.395470 91.023232,54.034641 
	C87.237038,54.333424 83.450844,54.632210 79.272255,55.107239 
z"/>
<path fill="#BCC6D0" opacity="1.000000" stroke="none" 
	d="
M113.037697,48.927303 
	C117.644478,48.611759 122.248001,48.188911 126.860115,48.049000 
	C128.167618,48.009335 129.500168,48.795029 130.864868,49.927334 
	C129.938797,51.435863 128.969101,52.219269 127.659134,53.004898 
	C126.543655,53.346912 125.768440,53.686703 124.993217,54.026497 
	C124.250298,53.972176 123.507370,53.917854 122.386047,53.461845 
	C121.601860,52.511150 121.196060,51.962143 120.790260,51.413132 
	C120.505547,52.096893 120.220833,52.780659 119.936127,53.464420 
	C119.516541,53.505646 119.096954,53.546867 118.337296,53.187561 
	C117.405190,52.252228 116.813156,51.717419 116.221123,51.182610 
	C115.789238,51.903698 115.357361,52.624783 114.925476,53.345871 
	C112.919090,53.457867 110.912697,53.569862 108.439728,53.227657 
	C106.862610,52.183369 105.748886,51.599190 104.642395,51.001606 
	C103.427216,50.345314 102.218697,49.676682 101.403252,49.004234 
	C102.853714,48.986412 103.908211,48.977791 105.410126,48.979733 
	C108.250938,48.969299 110.644318,48.948303 113.037697,48.927303 
z"/>
<path fill="#9EA8B3" opacity="1.000000" stroke="none" 
	d="
M91.436813,54.061581 
	C90.285759,53.395470 89.548286,52.756294 88.591393,51.926949 
	C89.687500,51.426868 90.707573,50.961483 91.727638,50.496094 
	C91.681526,50.078003 91.635422,49.659912 91.589317,49.241821 
	C86.009079,49.488754 80.428833,49.735683 74.377945,49.963779 
	C73.276993,49.484859 72.646683,49.024776 71.399559,48.114456 
	C76.663612,47.716274 81.390427,47.358730 86.841019,47.293938 
	C91.041573,48.057987 94.518356,48.529278 97.993271,49.335777 
	C98.022537,50.116642 98.053658,50.562302 97.730072,51.051041 
	C96.916725,52.063484 96.458084,53.032837 95.999443,54.002190 
	C94.616425,54.030964 93.233406,54.059742 91.436813,54.061581 
z"/>
<path fill="#464D55" opacity="1.000000" stroke="none" 
	d="
M129.998886,63.750717 
	C128.911057,63.717438 127.548576,63.762802 126.793922,63.107826 
	C123.728668,60.447460 120.572220,58.393864 116.218193,58.864716 
	C115.561737,58.935703 114.752403,57.593063 113.989822,56.513981 
	C116.010529,56.093109 118.055191,56.062588 120.601784,56.383209 
	C124.070892,58.829800 127.038078,60.925247 130.005264,63.020691 
	C130.005264,63.020691 130.003662,63.507404 129.998886,63.750717 
z"/>
<path fill="#B3BCC6" opacity="1.000000" stroke="none" 
	d="
M98.084778,51.007957 
	C98.053658,50.562302 98.022537,50.116642 97.995857,49.335564 
	C98.000305,49.000141 98.002716,48.995899 98.378174,48.992577 
	C99.504845,48.997311 100.256065,49.005367 101.007278,49.013428 
	C102.218697,49.676682 103.427216,50.345314 104.642395,51.001606 
	C105.748886,51.599190 106.862610,52.183369 108.018944,53.118774 
	C105.021263,53.610909 101.977798,53.757725 98.496910,53.603767 
	C98.067917,52.537979 98.076347,51.772968 98.084778,51.007957 
z"/>
<path fill="#464D55" opacity="1.000000" stroke="none" 
	d="
M110.582977,56.092350 
	C109.856316,57.091930 108.787498,58.591621 107.466057,58.863522 
	C105.599571,59.247562 103.546333,58.723907 101.289810,57.976845 
	C101.017487,56.936569 101.028275,56.507732 101.039055,56.078899 
	C104.068718,56.067394 107.098389,56.055889 110.582977,56.092350 
z"/>
<path fill="#A9B3BE" opacity="1.000000" stroke="none" 
	d="
M125.244446,54.292183 
	C125.768440,53.686703 126.543655,53.346912 127.917572,53.284561 
	C131.384018,54.057755 134.251755,54.553505 137.119507,55.049255 
	C136.844193,55.687767 136.568878,56.326283 135.981216,57.150333 
	C132.277802,56.409870 128.886734,55.483871 125.244446,54.292183 
z"/>
<path fill="#505863" opacity="1.000000" stroke="none" 
	d="
M130.271912,62.893257 
	C127.038078,60.925247 124.070892,58.829800 121.038612,56.396935 
	C124.432419,57.589092 127.891319,59.118671 131.653214,60.793438 
	C131.483658,61.547691 131.011108,62.156757 130.271912,62.893257 
z"/>
<path fill="#505863" opacity="1.000000" stroke="none" 
	d="
M100.605637,56.050598 
	C101.028275,56.507732 101.017487,56.936569 101.003349,57.688103 
	C98.520325,57.876171 96.040649,57.741547 93.281204,57.324890 
	C95.391685,56.702667 97.781952,56.362480 100.605637,56.050598 
z"/>
<path fill="#B3BCC6" opacity="1.000000" stroke="none" 
	d="
M115.301109,53.514160 
	C115.357361,52.624783 115.789238,51.903698 116.221123,51.182610 
	C116.813156,51.717419 117.405190,52.252228 118.034920,53.085052 
	C117.273994,53.482864 116.475365,53.582657 115.301109,53.514160 
z"/>
<path fill="#A9B3BE" opacity="1.000000" stroke="none" 
	d="
M97.730072,51.051041 
	C98.076347,51.772968 98.067917,52.537979 98.045151,53.561638 
	C97.581306,53.888832 97.131805,53.957378 96.340874,54.014057 
	C96.458084,53.032837 96.916725,52.063484 97.730072,51.051041 
z"/>
<path fill="#B3BCC6" opacity="1.000000" stroke="none" 
	d="
M120.270088,53.616280 
	C120.220833,52.780659 120.505547,52.096893 120.790260,51.413132 
	C121.196060,51.962143 121.601860,52.511150 122.026505,53.361996 
	C121.564919,53.698601 121.084488,53.733368 120.270088,53.616280 
z"/>
<path fill="#383B40" opacity="1.000000" stroke="none" 
	d="
M133.951736,59.938896 
	C134.057541,59.693783 134.238647,59.527607 134.419754,59.361431 
	C134.447998,59.559765 134.476242,59.758099 134.344940,60.062187 
	C134.185379,60.167942 134.027039,60.017838 133.951736,59.938896 
z"/>
<path fill="#22252A" opacity="1.000000" stroke="none" 
	d="
M50.975910,71.480392 
	C52.410892,71.348846 53.830494,71.688507 55.893646,71.928543 
	C57.038731,71.541420 57.540260,71.253914 58.413692,71.133980 
	C60.545589,71.526535 62.323048,72.038048 64.062859,71.931984 
	C80.577560,70.925133 97.090004,69.870720 113.592407,68.681664 
	C116.756966,68.453651 119.874832,67.577400 123.358307,67.042313 
	C124.951065,67.077255 126.199753,67.070091 127.546120,67.053192 
	C127.643799,67.043457 127.839966,67.035469 127.839966,67.035469 
	C127.839966,67.035469 127.903618,67.088905 127.930534,67.121964 
	C127.641182,68.850784 127.324913,70.546547 126.598907,72.611649 
	C125.109261,72.995750 124.029350,73.010506 122.561859,73.190720 
	C120.586327,73.575089 118.999298,73.975723 117.410248,73.983864 
	C105.826096,74.043243 94.241226,73.985229 82.657448,74.075470 
	C81.127594,74.087387 79.602631,74.728355 77.649231,75.021866 
	C72.868065,74.793594 68.513062,74.621452 63.759209,74.338432 
	C61.004650,74.764481 58.648937,75.301407 56.023064,75.972450 
	C55.500336,76.410271 55.247776,76.713974 54.995216,77.017685 
	C53.956139,76.998482 52.917057,76.979286 51.601532,76.808174 
	C51.203560,75.088043 51.082043,73.519814 50.975910,71.480392 
z"/>
<path fill="#0E1115" opacity="1.000000" stroke="none" 
	d="
M55.386116,77.177628 
	C55.247776,76.713974 55.500336,76.410271 56.440811,75.978569 
	C59.441689,75.835342 61.754650,75.820099 64.523689,75.880363 
	C69.376823,75.865280 73.773872,75.774704 78.627319,75.696808 
	C90.035049,75.597641 100.986397,75.485802 111.905823,75.614662 
	C111.907372,76.177216 111.933861,76.499641 111.953369,76.822639 
	C108.842857,76.969498 105.732826,77.230621 102.621742,77.243935 
	C87.006989,77.310760 71.391953,77.312782 55.386116,77.177628 
z"/>
<path fill="#383B40" opacity="1.000000" stroke="none" 
	d="
M112.408096,76.892258 
	C111.933861,76.499641 111.907372,76.177216 112.350037,75.491638 
	C115.889786,75.138603 118.953384,75.149284 122.016991,75.159973 
	C122.021523,75.471497 122.034546,75.782677 122.048218,76.327011 
	C118.981194,76.694305 115.922012,76.828094 112.408096,76.892258 
z"/>
<path fill="#B7C0CB" opacity="1.000000" stroke="none" 
	d="
M137.367462,54.948410 
	C134.251755,54.553505 131.384018,54.057755 128.257828,53.282341 
	C128.969101,52.219269 129.938797,51.435863 130.954865,50.325298 
	C133.636353,50.766876 136.271484,51.535614 138.952621,52.697800 
	C138.996109,53.259079 138.993607,53.426910 138.975006,53.846016 
	C138.511063,54.347382 138.063232,54.597473 137.367462,54.948410 
z"/>
<path fill="#C7CCD4" opacity="1.000000" stroke="none" 
	d="
M122.331512,75.089081 
	C118.953384,75.149284 115.889786,75.138603 112.381958,75.250946 
	C100.986397,75.485802 90.035049,75.597641 78.670654,75.534683 
	C78.257599,75.359879 78.075401,75.077988 78.075401,75.077988 
	C79.602631,74.728355 81.127594,74.087387 82.657448,74.075470 
	C94.241226,73.985229 105.826096,74.043243 117.410248,73.983864 
	C118.999298,73.975723 120.586327,73.575089 122.711975,73.432343 
	C123.477859,73.996628 123.706070,74.484734 123.934280,74.972839 
	C123.504868,74.987953 123.075455,75.003075 122.331512,75.089081 
z"/>
<path fill="#383B40" opacity="1.000000" stroke="none" 
	d="
M124.295784,74.993011 
	C123.706070,74.484734 123.477859,73.996628 123.099548,73.266891 
	C124.029350,73.010506 125.109261,72.995750 126.594437,72.991104 
	C126.218887,73.671875 125.438087,74.342537 124.295784,74.993011 
z"/>
<path fill="#5A5E5E" opacity="1.000000" stroke="none" 
	d="
M154.849640,73.736359 
	C154.225800,74.040565 153.446335,74.075447 152.311157,74.278076 
	C152.108704,74.037804 152.261932,73.629768 152.684235,73.024521 
	C153.533539,73.040543 154.113770,73.253792 154.849640,73.736359 
z"/>
<path fill="#414244" opacity="1.000000" stroke="none" 
	d="
M153.000153,71.784729 
	C152.121658,71.881416 151.242111,71.714317 150.176239,71.261826 
	C150.742447,70.985359 151.494934,70.994278 152.623718,70.998276 
	C152.999695,71.169212 152.999390,71.345070 153.000153,71.784729 
z"/>
<path fill="#2C2C2D" opacity="1.000000" stroke="none" 
	d="
M150.976746,64.787827 
	C150.812592,64.988373 150.640869,64.944382 150.215057,64.820297 
	C150.188370,64.392822 150.415771,64.045448 150.643173,63.698074 
	C150.751846,63.979820 150.860519,64.261566 150.976746,64.787827 
z"/>
<path fill="#2C2C2D" opacity="1.000000" stroke="none" 
	d="
M137.663116,74.864937 
	C137.762558,74.870735 137.836792,75.229378 137.808105,75.407028 
	C137.779419,75.584679 137.431000,75.696426 137.249817,75.706741 
	C137.068634,75.717064 137.186478,75.263260 137.276917,75.044174 
	C137.367371,74.825081 137.563675,74.859138 137.663116,74.864937 
z"/>
<path fill="#B3BCC6" opacity="1.000000" stroke="none" 
	d="
M158.261276,48.901123 
	C158.715591,48.250385 159.528168,47.638176 160.694092,47.047890 
	C160.238144,47.693096 159.428848,48.316372 158.261276,48.901123 
z"/>
<path fill="#8B949F" opacity="1.000000" stroke="none" 
	d="
M142.265350,48.938225 
	C142.371979,48.263577 142.740402,47.489697 143.108826,46.715820 
	C143.387650,46.967300 143.666473,47.218781 143.970856,47.754375 
	C143.506668,48.305328 143.016922,48.572159 142.265350,48.938225 
z"/>
<path fill="#8A8F95" opacity="1.000000" stroke="none" 
	d="
M17.476259,57.435341 
	C17.526123,57.406513 17.426395,57.464165 17.476259,57.435341 
z"/>
<path fill="#464D55" opacity="1.000000" stroke="none" 
	d="
M58.578548,58.975372 
	C57.577320,60.321896 56.159687,61.659176 54.378078,63.007011 
	C54.009716,61.951004 54.005325,60.884434 53.997971,59.418983 
	C55.384056,59.002113 56.773098,58.984123 58.578548,58.975372 
z"/>
<path fill="#3E434B" opacity="1.000000" stroke="none" 
	d="
M49.998600,63.000977 
	C49.748604,62.651592 49.500015,62.301231 49.251423,61.950867 
	C49.375320,61.863720 49.499218,61.776569 49.623112,61.689423 
	C49.741909,61.964912 49.860703,62.240406 49.991272,62.756386 
	C50.003052,62.996872 50.000008,62.999996 49.998600,63.000977 
z"/>
<path fill="#505863" opacity="1.000000" stroke="none" 
	d="
M61.080986,55.662392 
	C65.146332,55.267536 69.196648,55.229385 73.693192,55.387718 
	C74.131592,55.918335 74.123764,56.252464 73.689514,56.819836 
	C70.173134,57.704922 67.083191,58.356762 63.993244,59.008606 
	C63.223473,58.997787 62.453697,58.986973 61.298439,58.936703 
	C60.963959,57.937866 61.014961,56.978481 61.080986,55.662392 
z"/>
<path fill="#2B2C2C" opacity="1.000000" stroke="none" 
	d="
M36.560310,75.802612 
	C36.248871,76.091293 35.937435,76.379967 35.334061,76.795036 
	C35.042122,76.921425 35.010132,76.962471 34.967979,76.629761 
	C33.955498,75.903603 32.985168,75.510155 32.014835,75.116707 
	C31.124557,73.924767 30.234278,72.732819 29.208193,71.262917 
	C29.810728,70.989746 30.549067,70.994537 31.999773,71.004105 
	C33.169468,71.020538 33.626793,71.032196 34.065716,71.408180 
	C34.884975,73.115875 35.722645,74.459244 36.560310,75.802612 
z"/>
<path fill="#191A1D" opacity="1.000000" stroke="none" 
	d="
M34.084122,71.043854 
	C33.626793,71.032196 33.169468,71.020538 32.369629,71.001389 
	C33.771549,70.381981 35.515984,69.770065 37.625511,69.254982 
	C37.990601,69.351814 38.120735,69.553604 38.160515,69.937515 
	C38.467690,70.543678 38.735077,70.765930 39.002468,70.988190 
	C39.002468,70.988190 38.985924,70.991219 38.981945,70.977959 
	C38.431477,71.774361 37.884983,72.584030 36.857933,73.272247 
	C35.612961,72.448479 34.848541,71.746162 34.084122,71.043854 
z"/>
<path fill="#111212" opacity="1.000000" stroke="none" 
	d="
M31.844425,63.040737 
	C33.086365,63.630081 34.069252,64.396797 35.102509,65.521622 
	C34.948101,66.160812 34.743313,66.441895 34.098434,66.573128 
	C33.025520,66.251122 32.392696,66.078957 31.759871,65.906792 
	C31.701704,65.010567 31.643536,64.114334 31.844425,63.040737 
z"/>
<path fill="#777F86" opacity="1.000000" stroke="none" 
	d="
M31.726622,66.260506 
	C32.392696,66.078957 33.025520,66.251122 33.868126,66.695740 
	C33.874001,67.519905 33.670090,68.071609 33.466179,68.623322 
	C32.875244,67.953621 32.284309,67.283920 31.726622,66.260506 
z"/>
<path fill="#767676" opacity="1.000000" stroke="none" 
	d="
M38.908142,67.278618 
	C39.540520,67.547523 40.078423,68.093079 40.616325,68.638634 
	C39.962955,68.694145 39.309582,68.749664 38.570610,68.422012 
	C38.594563,67.877655 38.704113,67.716461 38.908142,67.278618 
z"/>
<path fill="#777F86" opacity="1.000000" stroke="none" 
	d="
M37.678909,64.032455 
	C37.967518,64.122368 37.979740,64.365868 38.055912,64.969521 
	C38.060120,65.693886 38.000378,66.058098 37.927704,66.698868 
	C37.577244,66.889145 37.323868,66.693726 37.016350,66.185165 
	C37.052883,65.382790 37.227703,64.784409 37.678909,64.032455 
z"/>
<path fill="#414244" opacity="1.000000" stroke="none" 
	d="
M151.933685,67.965057 
	C151.803177,68.173370 151.543442,68.172089 150.906128,68.074638 
	C150.953873,67.904129 151.379150,67.829796 151.933685,67.965057 
z"/>
<path fill="#4D5354" opacity="1.000000" stroke="none" 
	d="
M106.258041,40.418808 
	C113.925789,40.025703 121.492111,40.014225 129.526428,40.003819 
	C129.994431,40.004890 129.999695,40.000168 129.938660,40.346382 
	C128.593887,41.749149 127.310135,42.805706 125.747894,43.962791 
	C125.292068,44.149979 125.114723,44.236641 124.937370,44.323299 
	C121.713470,44.434132 118.489563,44.544960 114.877625,44.055035 
	C112.335510,43.703346 110.181435,43.952412 107.831650,44.408371 
	C107.086548,44.756531 106.537140,44.897800 105.987740,45.039070 
	C106.002975,44.857582 106.018219,44.676094 106.016228,44.221931 
	C106.051537,42.899651 106.104073,41.850044 106.258041,40.418808 
z"/>
<path fill="#A9B3BE" opacity="1.000000" stroke="none" 
	d="
M105.761215,45.349625 
	C106.537140,44.897800 107.086548,44.756531 108.160248,44.448364 
	C109.117958,44.358677 109.551376,44.435886 109.984795,44.513092 
	C110.994057,45.749973 112.003319,46.986855 113.025146,48.575520 
	C110.644318,48.948303 108.250938,48.969299 105.155975,48.705074 
	C102.303825,48.611866 100.153275,48.803883 98.002716,48.995899 
	C98.002716,48.995899 98.000305,49.000141 97.997726,49.000359 
	C94.518356,48.529278 91.041573,48.057987 87.295677,47.304184 
	C93.195938,46.567848 99.365311,46.114017 105.761215,45.349625 
z"/>
<path fill="#8B949F" opacity="1.000000" stroke="none" 
	d="
M125.055145,44.669987 
	C125.114723,44.236641 125.292068,44.149979 126.123245,44.010345 
	C127.531120,43.910931 128.285141,43.864494 129.268600,43.856979 
	C129.498032,43.895901 129.953049,43.798004 130.215775,43.827682 
	C130.652466,43.828995 130.826447,43.800629 131.000412,43.772263 
	C131.443771,43.831585 131.887115,43.890907 132.665848,43.972610 
	C132.999527,44.179787 132.997849,44.364586 132.988998,44.827637 
	C130.378860,45.076149 127.775887,45.046410 125.055145,44.669987 
z"/>
<path fill="#464B4C" opacity="1.000000" stroke="none" 
	d="
M110.391235,44.405781 
	C109.551376,44.435886 109.117958,44.358677 108.355949,44.241470 
	C110.181435,43.952412 112.335510,43.703346 114.743607,43.743431 
	C113.597641,44.121212 112.197655,44.209839 110.391235,44.405781 
z"/>
<path fill="#464B4C" opacity="1.000000" stroke="none" 
	d="
M131.027222,43.503624 
	C130.826447,43.800629 130.652466,43.828995 130.126312,43.699596 
	C129.454086,43.371880 129.209106,43.463955 129.039169,43.818062 
	C128.285141,43.864494 127.531120,43.910931 126.401733,43.909813 
	C127.310135,42.805706 128.593887,41.749149 129.936142,40.349075 
	C130.749649,40.004581 131.504654,40.003609 132.525085,40.262535 
	C132.525391,41.015068 132.260254,41.507706 131.995117,42.000340 
	C131.681427,42.411888 131.367722,42.823437 131.027222,43.503624 
z"/>
<path fill="#4D5354" opacity="1.000000" stroke="none" 
	d="
M132.328827,41.994999 
	C132.260254,41.507706 132.525391,41.015068 132.902496,40.265488 
	C133.529663,40.314857 134.044846,40.621170 134.560043,40.927483 
	C133.927536,41.281544 133.295044,41.635601 132.328827,41.994999 
z"/>
<path fill="#606265" opacity="1.000000" stroke="none" 
	d="
M32.018570,75.372406 
	C32.985168,75.510155 33.955498,75.903603 34.990738,76.639130 
	C34.861904,76.988693 34.668156,76.996170 34.066551,76.739258 
	C33.118744,76.362999 32.578804,76.251152 32.038860,76.139297 
	C32.033337,75.968903 32.027817,75.798508 32.018570,75.372406 
z"/>
<path fill="#0D0E0E" opacity="1.000000" stroke="none" 
	d="
M31.952137,76.357803 
	C32.578804,76.251152 33.118744,76.362999 33.775742,76.735107 
	C33.594620,77.109428 33.360680,77.301666 33.083679,77.776268 
	C32.976379,77.980453 32.489712,78.045227 32.244583,78.031464 
	C31.954775,77.537239 31.910095,77.056778 31.952137,76.357803 
z"/>
<path fill="#A4AAAA" opacity="1.000000" stroke="none" 
	d="
M97.807388,38.847816 
	C97.768875,40.214294 97.495148,41.297424 97.041748,42.680435 
	C89.759262,43.517723 82.656448,44.055138 75.503563,44.101257 
	C74.633339,43.065716 73.813194,42.521469 72.995178,41.990456 
	C72.997307,42.003685 73.022209,42.013580 72.995979,41.720600 
	C72.920113,41.238014 72.870476,41.048409 72.896088,40.896461 
	C72.971336,40.934120 72.841492,40.827019 73.147362,40.861591 
	C73.962891,40.620937 74.472542,40.345711 74.982201,40.070488 
	C78.144211,39.726315 81.298874,39.264404 84.470016,39.066574 
	C88.830872,38.794525 93.204201,38.722309 97.807388,38.847816 
z"/>
<path fill="#9FA3A4" opacity="1.000000" stroke="none" 
	d="
M70.961365,43.955727 
	C70.545303,43.232750 70.319389,42.500923 70.387611,41.376186 
	C71.132812,40.964630 71.583870,40.945984 72.113266,41.176781 
	C72.468475,41.622009 72.745346,41.817795 73.022209,42.013580 
	C73.022209,42.013580 72.997307,42.003685 72.994354,42.248024 
	C72.995605,42.663929 72.999794,42.835491 72.875359,43.221512 
	C72.469994,43.614685 72.193245,43.793400 71.916504,43.972115 
	C71.661392,43.966949 71.406395,43.958534 70.961365,43.955727 
z"/>
<path fill="#838787" opacity="1.000000" stroke="none" 
	d="
M73.003975,43.007053 
	C72.999794,42.835491 72.995605,42.663929 72.992233,42.234795 
	C73.813194,42.521469 74.633339,43.065716 75.213196,43.796680 
	C74.972916,43.983402 74.491379,43.989353 74.137878,43.779831 
	C73.583923,43.299885 73.323784,43.112133 73.003975,43.007053 
z"/>
<path fill="#6A6967" opacity="1.000000" stroke="none" 
	d="
M72.875359,43.221512 
	C73.323784,43.112133 73.583923,43.299885 73.897186,43.786556 
	C73.409866,44.153252 72.809753,44.303703 72.063065,44.213135 
	C72.193245,43.793400 72.469994,43.614685 72.875359,43.221512 
z"/>
<path fill="#4D5354" opacity="1.000000" stroke="none" 
	d="
M72.034927,40.927338 
	C71.583870,40.945984 71.132812,40.964630 70.342773,40.993553 
	C70.003799,41.003834 69.893768,40.603317 69.955505,40.405109 
	C70.017242,40.206902 69.907898,39.810753 70.192184,39.692299 
	C70.813644,39.546177 71.104042,39.414921 71.347679,39.180077 
	C71.751251,39.408131 72.154831,39.636185 72.680061,40.199974 
	C72.801720,40.535709 72.841492,40.827019 72.841492,40.827019 
	C72.841492,40.827019 72.971336,40.934120 72.699509,40.903107 
	C72.427673,40.872093 72.034927,40.927338 72.034927,40.927338 
z"/>
<path fill="#838787" opacity="1.000000" stroke="none" 
	d="
M73.147362,40.861591 
	C72.841492,40.827019 72.801720,40.535709 72.814598,40.390625 
	C73.304459,40.173618 73.781433,40.101696 74.620308,40.050129 
	C74.472542,40.345711 73.962891,40.620937 73.147362,40.861591 
z"/>
<path fill="#B0B8C1" opacity="1.000000" stroke="none" 
	d="
M71.116913,39.148819 
	C71.104042,39.414921 70.813644,39.546177 70.248840,39.494781 
	C70.280724,39.232925 70.569046,39.133537 71.116913,39.148819 
z"/>
<path fill="#34383F" opacity="1.000000" stroke="none" 
	d="
M76.999237,60.016933 
	C82.979309,60.507412 88.952621,61.263672 94.941292,61.415817 
	C101.304039,61.577473 107.686882,60.975098 114.047829,61.159359 
	C115.391701,61.198288 116.678680,63.201145 117.573013,64.770920 
	C113.076202,65.415878 108.998253,65.589012 104.624893,65.507591 
	C101.196281,65.691376 98.063087,66.129715 94.616180,66.564102 
	C93.895844,66.477142 93.489227,66.394119 92.933678,66.032867 
	C91.168686,66.049660 89.552620,66.344673 87.505951,66.756248 
	C84.396439,66.960762 81.717522,67.048714 78.814201,66.835938 
	C76.704811,66.888786 74.819832,67.242363 72.509537,67.706886 
	C69.736420,67.932732 67.388626,68.047638 64.915863,67.918007 
	C64.168777,67.969116 63.546661,68.264763 62.546730,68.700195 
	C61.104774,68.986374 60.040638,69.132759 58.976501,69.279144 
	C58.377010,65.147469 60.660934,62.670525 64.405319,60.373451 
	C68.952225,60.016022 72.975731,60.016476 76.999237,60.016933 
z"/>
<path fill="#B1BBC4" opacity="1.000000" stroke="none" 
	d="
M104.920311,65.762146 
	C108.998253,65.589012 113.076202,65.415878 117.585083,65.183846 
	C119.127769,65.360786 120.239517,65.596611 121.749374,66.139557 
	C122.436409,66.631195 122.725319,66.815704 123.014236,67.000214 
	C119.874832,67.577400 116.756966,68.453651 113.592407,68.681664 
	C97.090004,69.870720 80.577560,70.925133 64.062859,71.931984 
	C62.323048,72.038048 60.545589,71.526535 58.350899,70.891762 
	C57.901608,70.315796 57.887012,70.149612 57.872417,69.983437 
	C58.142101,69.865097 58.403328,69.730354 58.816299,69.429184 
	C60.040638,69.132759 61.104774,68.986374 62.821762,68.820312 
	C63.996681,68.587936 64.518753,68.375237 65.040825,68.162537 
	C67.388626,68.047638 69.736420,67.932732 72.892441,67.851036 
	C75.479980,67.635048 77.259293,67.385857 79.038605,67.136658 
	C81.717522,67.048714 84.396439,66.960762 87.929443,66.882484 
	C90.216553,66.698471 91.649574,66.504784 93.082603,66.311096 
	C93.489227,66.394119 93.895844,66.477142 95.041245,66.737228 
	C98.826782,66.530243 101.873543,66.146194 104.920311,65.762146 
z"/>
<path fill="#464D55" opacity="1.000000" stroke="none" 
	d="
M76.958511,59.692451 
	C72.975731,60.016476 68.952225,60.016022 64.465942,60.023163 
	C64.001266,59.860371 63.999363,59.689976 63.995354,59.264095 
	C67.083191,58.356762 70.173134,57.704922 73.675217,57.073799 
	C75.030838,57.852333 75.974312,58.610149 76.958511,59.692451 
z"/>
<path fill="#4A5059" opacity="1.000000" stroke="none" 
	d="
M57.558537,70.024567 
	C57.887012,70.149612 57.901608,70.315796 57.978996,70.724190 
	C57.540260,71.253914 57.038731,71.541420 56.263233,71.922592 
	C56.407726,71.366081 56.826191,70.715889 57.558537,70.024567 
z"/>
<path fill="#777F86" opacity="1.000000" stroke="none" 
	d="
M34.065716,71.408173 
	C34.848541,71.746162 35.612961,72.448479 36.533234,73.497223 
	C36.689091,73.843651 36.749039,73.859489 36.743935,74.101624 
	C36.738827,74.343765 36.764706,74.801643 36.764706,74.801643 
	C36.716839,74.968819 36.668972,75.135994 36.581566,75.560349 
	C36.542027,75.817528 36.546249,75.840675 36.553280,75.821640 
	C35.722645,74.459244 34.884975,73.115875 34.065716,71.408173 
z"/>
<path fill="#414244" opacity="1.000000" stroke="none" 
	d="
M37.047554,74.820358 
	C36.764706,74.801643 36.738827,74.343765 36.771564,74.115692 
	C37.023689,73.921822 37.243080,73.956032 37.793747,74.035439 
	C37.860146,74.333450 37.595272,74.586266 37.047554,74.820358 
z"/>
<path fill="#2F2F30" opacity="1.000000" stroke="none" 
	d="
M38.932098,70.741776 
	C38.735077,70.765930 38.467690,70.543678 38.192734,70.053169 
	C38.410690,70.021729 38.636211,70.258545 38.932098,70.741776 
z"/>
<path fill="#4A5059" opacity="1.000000" stroke="none" 
	d="
M123.358307,67.042313 
	C122.725319,66.815704 122.436409,66.631195 122.087814,66.187386 
	C123.524475,65.951340 125.020821,65.974579 126.892014,66.304642 
	C127.266861,66.611458 127.448441,67.062927 127.448441,67.062927 
	C126.199753,67.070091 124.951065,67.077255 123.358307,67.042313 
z"/>
<path fill="#2A2D31" opacity="1.000000" stroke="none" 
	d="
M127.546120,67.053192 
	C127.448441,67.062927 127.266861,66.611458 127.249390,66.371201 
	C127.466232,66.248840 127.642410,66.424942 127.800209,66.847359 
	C127.839966,67.035469 127.643799,67.043457 127.546120,67.053192 
z"/>
<path fill="#9EA8B3" opacity="1.000000" stroke="none" 
	d="
M98.378174,48.992577 
	C100.153275,48.803883 102.303825,48.611866 104.708542,48.694508 
	C103.908211,48.977791 102.853714,48.986412 101.403252,49.004234 
	C100.256065,49.005367 99.504845,48.997311 98.378174,48.992577 
z"/>
<path fill="#777F86" opacity="1.000000" stroke="none" 
	d="
M77.649231,75.021866 
	C78.075401,75.077988 78.257599,75.359879 78.214264,75.522003 
	C73.773872,75.774704 69.376823,75.865280 64.522324,75.652725 
	C64.081360,75.047989 64.112419,74.747902 64.158058,74.449318 
	C68.513062,74.621452 72.868065,74.793594 77.649231,75.021866 
z"/>
<path fill="#606265" opacity="1.000000" stroke="none" 
	d="
M63.759209,74.338432 
	C64.112419,74.747902 64.081360,75.047989 64.066246,75.577225 
	C61.754650,75.820099 59.441689,75.835342 56.710976,75.844460 
	C58.648937,75.301407 61.004650,74.764481 63.759209,74.338432 
z"/>
<path fill="#474C4E" opacity="1.000000" stroke="none" 
	d="
M129.268600,43.856979 
	C129.209106,43.463955 129.454086,43.371880 129.863586,43.669918 
	C129.953049,43.798004 129.498032,43.895901 129.268600,43.856979 
z"/>
<path fill="#838787" opacity="1.000000" stroke="none" 
	d="
M72.113266,41.176781 
	C72.034927,40.927338 72.427673,40.872093 72.624252,40.865448 
	C72.870476,41.048409 72.920113,41.238014 72.995979,41.720600 
	C72.745346,41.817795 72.468475,41.622009 72.113266,41.176781 
z"/>
<path fill="#4A5059" opacity="1.000000" stroke="none" 
	d="
M104.624893,65.507591 
	C101.873543,66.146194 98.826782,66.530243 95.354958,66.741173 
	C98.063087,66.129715 101.196281,65.691376 104.624893,65.507591 
z"/>
<path fill="#4A5059" opacity="1.000000" stroke="none" 
	d="
M78.814201,66.835938 
	C77.259293,67.385857 75.479980,67.635048 73.317757,67.740089 
	C74.819832,67.242363 76.704811,66.888786 78.814201,66.835938 
z"/>
<path fill="#4A5059" opacity="1.000000" stroke="none" 
	d="
M92.933678,66.032867 
	C91.649574,66.504784 90.216553,66.698471 88.360039,66.765923 
	C89.552620,66.344673 91.168686,66.049660 92.933678,66.032867 
z"/>
<path fill="#4A5059" opacity="1.000000" stroke="none" 
	d="
M64.915863,67.918007 
	C64.518753,68.375237 63.996681,68.587936 63.199577,68.680519 
	C63.546661,68.264763 64.168777,67.969116 64.915863,67.918007 
z"/>
</svg>