<svg version="1.1" id="Layer_1" xmlns="http://www.w3.org/2000/svg" xmlns:xlink="http://www.w3.org/1999/xlink" x="0px" y="0px"
	 width="100%" viewBox="0 0 187 79" enable-background="new 0 0 187 79" xml:space="preserve">
<path fill="#FDFDFD" opacity="1.000000" stroke="none" 
	d="
M1.000000,53.000000 
	C1.000000,35.693031 1.000000,18.386065 1.000000,1.039549 
	C63.212132,1.039549 125.424294,1.039549 188.000000,1.039549 
	C188.000000,17.019062 188.000000,33.040871 187.661987,49.366879 
	C187.134827,47.313038 186.526871,44.893303 186.862839,42.612621 
	C187.280426,39.777924 186.116928,39.058445 183.856689,38.671486 
	C182.712250,36.604179 181.779648,34.409420 180.121201,33.289455 
	C175.891953,30.433380 170.662750,28.754204 167.099243,25.298893 
	C163.292999,21.608223 159.441803,21.634363 154.666534,21.998634 
	C153.329758,21.916931 152.351440,21.915232 151.122910,21.570009 
	C146.586685,20.839375 142.300674,20.452263 137.640823,19.968258 
	C136.502655,19.933479 135.738342,19.995592 134.550919,19.994019 
	C132.418015,19.957722 130.708206,19.985111 128.837128,19.664648 
	C127.298874,18.988403 125.930786,18.420134 124.543526,18.368639 
	C110.277908,17.839092 96.073784,18.257914 81.717667,21.424248 
	C77.459167,23.040228 73.566422,24.735462 69.296677,26.435816 
	C64.702965,28.679663 60.558865,31.071922 56.247574,33.110630 
	C52.510380,34.877861 48.583694,36.244362 44.317856,37.843773 
	C34.744156,39.301868 25.508974,40.316456 16.480618,42.281372 
	C12.391503,43.171322 8.713068,45.948250 4.555362,48.047279 
	C3.174932,49.816944 2.087466,51.408474 1.000000,53.000000 
z"/>
<path fill="#DDDDDD" opacity="1.000000" stroke="none" 
	d="
M188.000000,74.000000 
	C188.000000,75.994911 188.000000,77.989822 188.000000,79.988556 
	C125.666664,79.992371 63.333332,79.992371 1.000000,79.992363 
	C1.000000,78.994904 1.000000,77.997452 1.404809,76.422852 
	C3.935591,76.048981 6.061566,76.252243 8.636766,76.544395 
	C16.033766,76.696144 22.981541,76.759010 30.332428,76.883575 
	C32.093735,76.977531 33.451927,77.009773 34.946907,77.285332 
	C35.428280,77.384766 35.772869,77.240891 36.100101,77.140984 
	C36.082745,77.184959 36.127785,77.268097 36.587273,77.307739 
	C69.544243,77.264519 102.041733,77.182640 134.539215,77.097626 
	C139.027161,77.085892 143.515091,77.058632 148.451813,77.171364 
	C157.920380,76.829178 166.940155,76.354179 176.366760,75.964798 
	C178.610794,75.939178 180.447983,75.827934 183.555145,75.639801 
	C180.913940,74.317574 179.466827,73.593132 178.273895,72.609222 
	C181.685379,72.899834 184.842697,73.449921 188.000000,74.000000 
z"/>
<path fill="#F0F0F0" opacity="1.000000" stroke="none" 
	d="
M188.000000,73.541931 
	C184.842697,73.449921 181.685379,72.899834 177.930267,72.578430 
	C176.886612,72.876823 176.440765,72.946548 175.608215,72.873566 
	C170.214355,72.455727 165.207169,72.180588 160.132950,71.542526 
	C161.048019,70.098923 162.030136,69.018257 163.252121,68.060989 
	C163.667023,68.143173 163.842072,68.101959 164.453735,68.163300 
	C170.734680,67.555382 176.609604,67.022293 182.404083,66.022820 
	C184.072372,65.735062 185.508865,64.103424 187.291443,63.095215 
	C187.531250,63.102509 188.000000,63.000000 188.000000,63.000000 
	C188.000000,66.361290 188.000000,69.722572 188.000000,73.541931 
z"/>
<path fill="#535457" opacity="1.000000" stroke="none" 
	d="
M0.999999,63.000000 
	C1.000000,62.250000 1.000000,61.500000 1.397108,60.373940 
	C4.391254,59.553902 6.988292,59.109921 9.763302,59.038982 
	C10.291484,62.284878 10.641694,65.157722 10.625954,68.023163 
	C8.190442,67.059349 6.120879,66.102959 3.788022,64.973969 
	C2.683151,64.200928 1.841575,63.600464 0.999999,63.000000 
z"/>
<path fill="#A0979A" opacity="1.000000" stroke="none" 
	d="
M183.737946,39.033524 
	C186.116928,39.058445 187.280426,39.777924 186.862839,42.612621 
	C186.526871,44.893303 187.134827,47.313038 187.661987,49.835537 
	C188.000000,51.066669 188.000000,52.133339 187.678940,53.586235 
	C186.929749,53.955338 186.501617,53.938217 185.801117,53.762428 
	C184.427490,53.022423 183.326218,52.441090 182.202393,51.510414 
	C181.769745,50.083031 181.359665,49.004986 181.052246,47.698334 
	C181.227524,47.318878 181.300171,47.168030 181.646210,47.019688 
	C182.071243,45.697365 182.222900,44.372540 182.626694,43.056473 
	C183.229965,42.671188 183.581100,42.277149 183.848053,41.655556 
	C183.533524,41.186375 183.261063,41.009666 182.935059,40.611343 
	C183.195084,39.894379 183.466522,39.463955 183.737946,39.033524 
z"/>
<path fill="#A0A5AC" opacity="1.000000" stroke="none" 
	d="
M9.585331,58.665936 
	C6.988292,59.109921 4.391254,59.553902 1.397108,59.998940 
	C1.000000,57.958332 1.000000,55.916668 1.000000,53.437500 
	C2.087466,51.408474 3.174932,49.816944 4.939105,48.150841 
	C5.868398,48.154964 6.120984,48.233669 6.322832,48.648415 
	C6.179701,49.653412 6.087309,50.322361 5.893775,51.134640 
	C5.712328,51.358704 5.556118,51.502720 5.562902,51.510857 
	C5.704322,51.680492 5.864210,51.834736 6.025844,52.355568 
	C7.481093,53.807556 8.930954,54.895988 10.223324,56.300186 
	C9.905665,57.299278 9.745499,57.982605 9.585331,58.665936 
z"/>
<path fill="#DDDDDD" opacity="1.000000" stroke="none" 
	d="
M1.000000,74.000000 
	C1.000000,72.611000 1.000000,71.222008 1.384235,69.194504 
	C5.344188,69.064079 8.919906,69.572166 12.716434,70.081940 
	C13.816484,70.093925 14.695724,70.104225 15.595003,70.125214 
	C15.615046,70.135902 15.560809,70.167183 15.301457,70.423218 
	C12.725412,71.512459 10.408718,72.345657 7.697718,73.099121 
	C5.202273,73.346252 3.101137,73.673126 1.000000,74.000000 
z"/>
<path fill="#1F1F1F" opacity="1.000000" stroke="none" 
	d="
M12.495623,70.080246 
	C8.919906,69.572166 5.344188,69.064079 1.384235,68.778000 
	C1.000000,68.555557 1.000000,68.111107 1.382898,67.522003 
	C2.025705,67.261452 2.285614,67.145576 2.804703,66.964630 
	C3.393028,66.315231 3.722173,65.730896 4.051317,65.146561 
	C6.120879,66.102959 8.190442,67.059349 10.919065,68.596176 
	C11.883958,69.477829 12.189790,69.779037 12.495623,70.080246 
z"/>
<path fill="#646464" opacity="1.000000" stroke="none" 
	d="
M1.000000,74.333328 
	C3.101137,73.673126 5.202273,73.346252 7.668727,73.430397 
	C8.085209,74.712784 8.136374,75.584145 8.187540,76.455513 
	C6.061566,76.252243 3.935591,76.048981 1.404809,75.922852 
	C1.000000,75.555557 1.000000,75.111107 1.000000,74.333328 
z"/>
<path fill="#646464" opacity="1.000000" stroke="none" 
	d="
M186.073486,53.921097 
	C186.501617,53.938217 186.929749,53.955338 187.678940,53.986229 
	C188.000000,56.700630 188.000000,59.401260 188.000000,62.550945 
	C188.000000,63.000000 187.531250,63.102509 187.284241,62.822350 
	C187.025452,62.360607 187.013672,62.179020 187.010590,61.624046 
	C186.977707,60.506317 186.936127,59.761978 186.772873,58.667004 
	C186.458633,56.851276 186.266068,55.386189 186.073486,53.921097 
z"/>
<path fill="#2F3135" opacity="1.000000" stroke="none" 
	d="
M3.788023,64.973969 
	C3.722173,65.730896 3.393028,66.315231 2.604198,66.686508 
	C1.763008,65.982292 1.381504,65.491150 1.000000,65.000000 
	C1.000000,64.555557 1.000000,64.111107 0.999999,63.333332 
	C1.841575,63.600464 2.683151,64.200928 3.788023,64.973969 
z"/>
<path fill="#848B94" opacity="1.000000" stroke="none" 
	d="
M1.000000,65.333328 
	C1.381504,65.491150 1.763008,65.982292 2.345017,66.751572 
	C2.285614,67.145576 2.025705,67.261452 1.382898,67.188667 
	C1.000000,66.555557 1.000000,66.111107 1.000000,65.333328 
z"/>
<path fill="#84878B" opacity="1.000000" stroke="none" 
	d="
M82.083427,21.503502 
	C96.073784,18.257914 110.277908,17.839092 124.543526,18.368639 
	C125.930786,18.420134 127.298874,18.988403 128.847992,19.898037 
	C129.020111,20.479280 129.057922,20.945030 129.035309,21.256844 
	C128.980667,21.984264 128.948639,22.399874 128.510239,22.796452 
	C118.436028,22.558905 108.768204,22.340391 98.682739,22.118893 
	C95.231697,22.554712 92.198288,22.993517 89.867287,23.330713 
	C91.635704,24.057249 93.837875,24.961990 95.587036,25.935596 
	C90.418907,26.317520 85.703789,26.630577 80.846619,26.721130 
	C80.138718,26.653547 79.572853,26.808470 78.579468,26.998829 
	C76.445442,27.259750 74.738953,27.485233 73.130814,27.348812 
	C76.180588,25.159105 79.132004,23.331305 82.083427,21.503502 
z"/>
<path fill="#474A4E" opacity="1.000000" stroke="none" 
	d="
M183.856689,38.671486 
	C183.466522,39.463955 183.195084,39.894379 182.495361,40.646812 
	C179.682419,41.020813 177.297729,41.072807 174.716736,41.109161 
	C174.520432,41.093521 174.127716,41.063431 174.139053,40.727718 
	C175.194550,39.646168 176.238708,38.900330 177.911926,37.705170 
	C174.777588,35.358932 171.879410,33.189465 168.771439,30.762274 
	C167.387222,29.987247 166.212784,29.469938 164.976990,28.614817 
	C163.959015,27.834963 163.002396,27.392923 161.795578,26.944988 
	C161.378983,26.951185 161.212585,26.963278 160.875275,26.729465 
	C160.156174,26.264647 159.607971,26.045734 158.948761,25.635715 
	C158.648209,25.209799 158.414505,25.033579 157.900497,24.679636 
	C156.784592,23.655090 155.904785,22.866863 155.024979,22.078636 
	C159.441803,21.634363 163.292999,21.608223 167.099243,25.298893 
	C170.662750,28.754204 175.891953,30.433380 180.121201,33.289455 
	C181.779648,34.409420 182.712250,36.604179 183.856689,38.671486 
z"/>
<path fill="#B7BDC5" opacity="1.000000" stroke="none" 
	d="
M6.373570,48.312370 
	C6.120984,48.233669 5.868398,48.154964 5.232068,47.972702 
	C8.713068,45.948250 12.391503,43.171322 16.480618,42.281372 
	C25.508974,40.316456 34.744156,39.301868 44.596146,38.156418 
	C47.548367,39.306282 49.799400,40.199303 51.806644,41.403641 
	C47.102901,42.180885 42.642948,42.646820 37.768936,43.040665 
	C35.208641,42.742153 33.062405,42.515732 30.509541,42.229797 
	C27.057646,42.582664 23.947208,42.736176 20.985842,43.481770 
	C18.145264,44.196949 15.459296,45.526218 12.343859,46.665165 
	C10.112746,47.267262 8.243158,47.789818 6.373570,48.312370 
z"/>
<path fill="#A0A5AC" opacity="1.000000" stroke="none" 
	d="
M52.050438,41.092323 
	C49.799400,40.199303 47.548367,39.306282 45.019043,38.100624 
	C48.583694,36.244362 52.510380,34.877861 56.247574,33.110630 
	C60.558865,31.071922 64.702965,28.679663 69.397293,26.861404 
	C69.916824,27.853136 69.958733,28.424398 69.696823,29.147327 
	C68.228630,30.537876 67.064255,31.776758 65.528061,33.015335 
	C62.790634,34.057930 60.425037,35.100830 57.716980,36.212521 
	C55.599823,37.884983 53.825130,39.488651 52.050438,41.092323 
z"/>
<path fill="#6E7277" opacity="1.000000" stroke="none" 
	d="
M154.666534,21.998632 
	C155.904785,22.866863 156.784592,23.655090 157.859344,24.938118 
	C158.037933,25.606058 158.021576,25.779203 157.891464,26.185581 
	C157.488113,26.598219 157.198532,26.777626 156.650177,26.697941 
	C147.233139,25.231058 138.074890,24.023270 128.916626,22.815481 
	C128.948639,22.399874 128.980667,21.984264 129.429749,21.265635 
	C131.555862,20.660976 133.264938,20.359341 134.974014,20.057705 
	C135.738342,19.995592 136.502655,19.933479 137.727264,20.359955 
	C142.582748,21.203541 146.977936,21.558538 151.373123,21.913534 
	C152.351440,21.915232 153.329758,21.916931 154.666534,21.998632 
z"/>
<path fill="#9A9EA1" opacity="1.000000" stroke="none" 
	d="
M70.000641,28.995659 
	C69.958733,28.424398 69.916824,27.853136 69.774292,26.856287 
	C73.566422,24.735462 77.459167,23.040228 81.717667,21.424248 
	C79.132004,23.331305 76.180588,25.159105 72.936188,27.534508 
	C71.762360,28.386625 70.881500,28.691143 70.000641,28.995659 
z"/>
<path fill="#57595E" opacity="1.000000" stroke="none" 
	d="
M151.122910,21.570009 
	C146.977936,21.558538 142.582748,21.203541 138.101105,20.456848 
	C142.300674,20.452263 146.586685,20.839375 151.122910,21.570009 
z"/>
<path fill="#57595E" opacity="1.000000" stroke="none" 
	d="
M134.550919,19.994019 
	C133.264938,20.359341 131.555862,20.660976 129.452362,20.953821 
	C129.057922,20.945030 129.020111,20.479280 129.009247,20.245892 
	C130.708206,19.985111 132.418015,19.957722 134.550919,19.994019 
z"/>
<path fill="#181818" opacity="1.000000" stroke="none" 
	d="
M148.003021,77.038551 
	C143.515091,77.058632 139.027161,77.085892 134.539215,77.097626 
	C102.041733,77.182640 69.544243,77.264519 36.607483,76.988144 
	C36.479446,75.839157 36.790691,75.049416 37.383579,74.103134 
	C38.506638,73.053223 39.348049,72.159866 40.508926,71.209366 
	C41.822556,70.752083 42.816723,70.351944 44.153595,69.981247 
	C44.724510,70.033066 44.952728,70.055443 45.140141,70.401108 
	C45.886860,70.837059 46.674381,70.949738 47.723888,71.201553 
	C48.807549,70.887421 49.629227,70.434158 50.508385,70.514511 
	C56.543026,71.184708 62.520191,71.321297 68.996582,71.488503 
	C78.269020,71.511208 87.042534,71.546524 95.815361,71.484894 
	C107.880188,71.400139 119.944489,71.242027 132.150574,71.335159 
	C132.873337,71.509476 133.454529,71.463959 135.071716,71.337318 
	C133.368546,70.596344 132.683960,70.298508 131.933197,69.835724 
	C131.867020,69.670792 131.835953,69.316719 131.987030,68.950317 
	C132.760757,66.508171 134.479950,64.201653 131.104660,62.673031 
	C133.922577,58.625221 135.506165,53.762196 140.873123,53.306763 
	C139.311432,55.820587 137.214981,57.853695 136.626373,60.256222 
	C135.801529,63.623013 134.195251,67.781021 139.296783,69.978676 
	C139.496445,70.030846 139.894287,70.143044 140.105164,70.474960 
	C141.547882,70.940659 142.779694,71.074440 143.993744,71.368935 
	C143.969025,71.741974 143.927795,71.947388 143.753143,72.675972 
	C143.720718,73.559288 143.787430,73.912537 143.916794,74.531670 
	C144.648895,74.904236 145.318344,75.010925 146.326218,75.141479 
	C147.105042,75.264847 147.545410,75.364357 147.980743,75.726349 
	C147.984802,76.338730 147.993912,76.688644 148.003021,77.038551 
z"/>
<path fill="#222222" opacity="1.000000" stroke="none" 
	d="
M148.451813,77.171364 
	C147.993912,76.688644 147.984802,76.338730 148.269836,75.576660 
	C148.900620,74.902245 149.237274,74.639992 149.599258,74.340431 
	C149.624588,74.303131 149.675751,74.228889 150.080750,74.337845 
	C151.409454,74.015884 152.333145,73.584976 153.266235,73.096771 
	C153.275650,73.039474 153.385635,73.076805 153.727280,73.129181 
	C154.695770,72.564445 155.322617,71.947350 156.192566,71.292709 
	C156.958862,71.176376 157.482056,71.097588 158.279297,71.148872 
	C159.102219,71.487785 159.651108,71.696617 160.199997,71.905441 
	C165.207169,72.180588 170.214355,72.455727 175.597488,73.231796 
	C175.968933,74.448219 175.964417,75.163696 175.959915,75.879181 
	C166.940155,76.354179 157.920380,76.829178 148.451813,77.171364 
z"/>
<path fill="#1F1F1F" opacity="1.000000" stroke="none" 
	d="
M8.636766,76.544395 
	C8.136374,75.584145 8.085209,74.712784 8.063034,73.510132 
	C10.408718,72.345657 12.725412,71.512459 15.623230,70.454872 
	C16.810875,70.823303 17.417397,71.416115 18.245821,72.261810 
	C20.502081,72.378914 22.536436,72.243126 24.721159,72.291748 
	C24.871527,72.476151 25.086580,72.900673 25.104099,73.237762 
	C26.724184,74.657196 28.326750,75.739532 29.929317,76.821877 
	C22.981541,76.759010 16.033766,76.696144 8.636766,76.544395 
z"/>
<path fill="#454545" opacity="1.000000" stroke="none" 
	d="
M30.332428,76.883575 
	C28.326750,75.739532 26.724184,74.657196 25.399902,73.252235 
	C26.071951,72.968452 26.465712,73.007301 27.012844,73.314896 
	C27.741463,73.760162 28.316708,73.936668 29.063782,74.293144 
	C29.655313,74.455696 30.075020,74.438286 30.494724,74.420876 
	C30.076431,74.218536 29.658134,74.016197 29.237621,73.602272 
	C29.235403,73.390678 29.112173,72.980156 29.065914,72.746140 
	C29.019657,72.512123 29.003424,72.035324 29.350315,72.103470 
	C30.370838,71.961563 31.044472,71.751518 31.990175,71.720650 
	C33.339794,72.125908 34.417339,72.351982 35.828415,72.788788 
	C36.475273,73.419571 36.788605,73.839622 37.101936,74.259682 
	C36.790691,75.049416 36.479446,75.839157 36.147995,76.948494 
	C36.127785,77.268097 36.082745,77.184959 35.774010,77.087692 
	C35.246891,77.007622 35.028507,77.024818 34.810120,77.042023 
	C33.451927,77.009773 32.093735,76.977531 30.332428,76.883575 
z"/>
<path fill="#4D5051" opacity="1.000000" stroke="none" 
	d="
M176.366760,75.964798 
	C175.964417,75.163696 175.968933,74.448219 175.984192,73.374504 
	C176.440765,72.946548 176.886612,72.876823 177.676086,72.837898 
	C179.466827,73.593132 180.913940,74.317574 183.555145,75.639801 
	C180.447983,75.827934 178.610794,75.939178 176.366760,75.964798 
z"/>
<path fill="#181818" opacity="1.000000" stroke="none" 
	d="
M34.946907,77.285332 
	C35.028507,77.024818 35.246891,77.007622 35.791367,77.043716 
	C35.772869,77.240891 35.428280,77.384766 34.946907,77.285332 
z"/>
<path fill="#2F3135" opacity="1.000000" stroke="none" 
	d="
M187.001907,61.997437 
	C187.013672,62.179020 187.025452,62.360607 187.044434,62.815060 
	C185.508865,64.103424 184.072372,65.735062 182.404083,66.022820 
	C176.609604,67.022293 170.734680,67.555382 164.465805,67.741211 
	C163.762375,64.787025 163.483521,62.357491 163.585556,59.953720 
	C166.688385,60.971378 169.377045,62.670151 172.139511,62.800076 
	C177.070145,63.031967 182.045349,62.316685 187.001907,61.997437 
z"/>
<path fill="#0C0D0E" opacity="1.000000" stroke="none" 
	d="
M163.204651,59.927952 
	C163.483521,62.357491 163.762375,64.787025 164.029175,67.638657 
	C163.842072,68.101959 163.667023,68.143173 163.100708,67.823769 
	C162.188950,67.294113 161.668442,67.125069 161.044922,66.623573 
	C160.678879,65.160812 160.415848,64.030502 160.306061,62.595940 
	C161.929581,57.105259 156.678024,55.490643 155.350647,51.993477 
	C156.445526,52.083885 157.172928,52.166908 158.091827,52.521275 
	C159.923767,55.171066 161.564209,57.549507 163.204651,59.927952 
z"/>
<path fill="#424242" opacity="1.000000" stroke="none" 
	d="
M161.147949,66.956024 
	C161.668442,67.125069 162.188950,67.294113 162.860840,67.700363 
	C162.030136,69.018257 161.048019,70.098923 160.132950,71.542519 
	C159.651108,71.696617 159.102219,71.487785 158.276276,70.812317 
	C157.427094,69.561584 156.854980,68.777473 156.294342,67.742363 
	C156.353699,67.330856 156.401581,67.170349 156.837967,67.006371 
	C158.533646,66.987274 159.840790,66.971649 161.147949,66.956024 
z"/>
<path fill="#2F3135" opacity="1.000000" stroke="none" 
	d="
M12.716434,70.081940 
	C12.189790,69.779037 11.883958,69.477829 11.285015,68.603592 
	C10.641694,65.157722 10.291484,62.284878 9.763303,59.038982 
	C9.745499,57.982605 9.905665,57.299278 10.557849,56.214951 
	C12.038791,53.870590 13.027717,51.927227 14.013129,49.998962 
	C14.009616,50.014065 13.982497,50.027065 13.992432,50.394215 
	C15.369892,52.558289 16.737421,54.355217 18.091019,56.553699 
	C17.243046,61.341679 16.409004,65.728096 15.574963,70.114517 
	C14.695724,70.104225 13.816484,70.093925 12.716434,70.081940 
z"/>
<path fill="#4B5056" opacity="1.000000" stroke="none" 
	d="
M180.949600,47.926941 
	C181.359665,49.004986 181.769745,50.083031 181.833038,51.564346 
	C180.992096,51.979679 180.497910,51.991741 179.564148,51.997925 
	C175.572968,52.559013 172.033463,53.224152 168.466156,53.663757 
	C165.266525,54.058056 161.601608,55.098450 161.363556,49.980740 
	C163.485397,49.603626 165.345444,49.597656 166.902786,48.908066 
	C169.418854,47.793945 171.735779,46.230061 174.430115,45.063980 
	C176.798813,46.156876 178.874207,47.041908 180.949600,47.926941 
z"/>
<path fill="#3A3538" opacity="1.000000" stroke="none" 
	d="
M180.003738,52.003803 
	C180.497910,51.991741 180.992096,51.979679 181.855621,51.913689 
	C183.326218,52.441090 184.427490,53.022423 185.801117,53.762428 
	C186.266068,55.386189 186.458633,56.851276 186.440292,58.820312 
	C182.384079,59.698421 178.538757,60.072578 173.831284,60.530624 
	C176.493378,56.853130 178.248566,54.428467 180.003738,52.003803 
z"/>
<path fill="#AE4937" opacity="1.000000" stroke="none" 
	d="
M182.374557,43.047714 
	C182.222900,44.372540 182.071243,45.697365 181.263641,47.001053 
	C179.386322,46.351116 178.164917,45.722313 177.267517,44.915207 
	C179.185852,44.173840 180.780212,43.610775 182.374557,43.047714 
z"/>
<path fill="#EA8851" opacity="1.000000" stroke="none" 
	d="
M182.626694,43.056469 
	C180.780212,43.610775 179.185852,44.173840 177.022644,44.731232 
	C176.008789,43.825562 175.563782,42.925568 175.556946,42.020657 
	C178.640854,41.971531 181.286545,41.927322 183.932251,41.883114 
	C183.581100,42.277149 183.229965,42.671188 182.626694,43.056469 
z"/>
<path fill="#562C25" opacity="1.000000" stroke="none" 
	d="
M175.118759,42.025578 
	C175.563782,42.925568 176.008789,43.825562 176.698669,44.909531 
	C178.164917,45.722313 179.386322,46.351116 180.990265,46.998550 
	C181.300171,47.168030 181.227524,47.318878 181.052246,47.698334 
	C178.874207,47.041908 176.798813,46.156876 174.374847,44.689034 
	C174.060074,43.091961 174.093887,42.077698 174.127716,41.063431 
	C174.127716,41.063431 174.520432,41.093521 174.758392,41.336098 
	C174.996338,41.578678 175.118759,42.025578 175.118759,42.025578 
z"/>
<path fill="#AE4937" opacity="1.000000" stroke="none" 
	d="
M175.556946,42.020657 
	C175.118759,42.025578 174.996338,41.578678 174.954697,41.351738 
	C177.297729,41.072807 179.682419,41.020813 182.506775,40.933350 
	C183.261063,41.009666 183.533524,41.186375 183.848053,41.655563 
	C181.286545,41.927322 178.640854,41.971531 175.556946,42.020657 
z"/>
<path fill="#535457" opacity="1.000000" stroke="none" 
	d="
M14.016644,49.983864 
	C13.027717,51.927227 12.038791,53.870590 10.715340,55.899189 
	C8.930954,54.895988 7.481093,53.807556 6.012987,52.363495 
	C5.994743,52.007874 5.973257,52.029850 6.304662,52.059601 
	C7.391771,51.753036 8.147475,51.416725 9.055513,51.012238 
	C9.114196,50.995792 9.020545,51.047523 8.558949,51.026184 
	C7.451535,50.960026 6.712066,50.966934 5.978271,50.979439 
	C5.983944,50.985039 5.994916,50.991314 5.994916,50.991314 
	C6.087309,50.322361 6.179701,49.653412 6.322832,48.648415 
	C8.243158,47.789818 10.112746,47.267262 12.630877,46.806885 
	C13.525161,47.907326 13.770903,48.945595 14.016644,49.983864 
z"/>
<path fill="#535457" opacity="1.000000" stroke="none" 
	d="
M6.007600,51.999947 
	C5.864210,51.834736 5.704322,51.680492 5.562902,51.510857 
	C5.556118,51.502720 5.712328,51.358704 5.893775,51.134640 
	C5.994916,50.991314 5.983944,50.985039 5.924184,51.243462 
	C5.900702,51.677872 5.936980,51.853859 5.973257,52.029850 
	C5.973257,52.029850 5.994743,52.007874 6.007600,51.999947 
z"/>
<path fill="#0C0D0E" opacity="1.000000" stroke="none" 
	d="
M15.595004,70.125214 
	C16.409004,65.728096 17.243046,61.341679 18.380657,56.374500 
	C23.255875,50.265709 29.249540,49.047276 35.969772,50.418736 
	C35.934216,50.975750 35.916317,51.198307 35.491692,51.337265 
	C30.899651,51.015694 26.901262,51.317371 24.055614,55.041641 
	C24.016268,55.022778 24.064178,55.095722 23.729382,55.198536 
	C20.978939,57.750637 18.654133,60.225468 20.940903,64.269463 
	C20.933743,64.719849 20.934402,64.900055 20.759853,65.364075 
	C19.731070,67.768242 18.877497,69.888580 18.023920,72.008926 
	C17.417397,71.416115 16.810875,70.823303 15.882582,70.198837 
	C15.560809,70.167183 15.615046,70.135902 15.595004,70.125214 
z"/>
<path fill="#3E4045" opacity="1.000000" stroke="none" 
	d="
M179.564148,51.997925 
	C178.248566,54.428467 176.493378,56.853130 173.831284,60.530624 
	C178.538757,60.072578 182.384079,59.698421 186.561966,59.170952 
	C186.936127,59.761978 186.977707,60.506317 187.010590,61.624046 
	C182.045349,62.316685 177.070145,63.031967 172.139511,62.800076 
	C169.377045,62.670151 166.688385,60.971378 163.585571,59.953712 
	C161.564209,57.549507 159.923767,55.171066 158.138931,52.190651 
	C158.329895,51.059074 158.665253,50.529461 159.328445,50.002953 
	C160.092804,50.019043 160.529343,50.032024 160.965866,50.045006 
	C161.601608,55.098450 165.266525,54.058056 168.466156,53.663757 
	C172.033463,53.224152 175.572968,52.559013 179.564148,51.997925 
z"/>
<path fill="#4D5051" opacity="1.000000" stroke="none" 
	d="
M128.510239,22.796452 
	C138.074890,24.023270 147.233139,25.231058 156.647278,26.963238 
	C156.921249,27.663383 156.939346,27.839138 156.952438,28.247917 
	C156.947418,28.480940 156.907715,28.945400 156.614319,28.926851 
	C155.929169,28.896406 155.537415,28.884510 155.011398,28.510048 
	C151.914047,28.077429 148.950989,28.007376 145.625961,27.934553 
	C144.217667,28.296898 143.171326,28.662012 141.762299,28.971359 
	C138.166504,25.658327 134.511612,24.067122 129.495392,26.014858 
	C122.078583,26.007219 115.117355,25.818348 108.179840,26.140345 
	C106.584053,26.214409 105.069664,28.042116 103.508789,29.031475 
	C103.499771,29.000151 103.531715,29.055502 103.156342,28.929863 
	C101.255783,28.493540 99.730606,28.182852 98.180542,27.531300 
	C98.138115,26.732096 98.120567,26.273756 98.258606,25.529900 
	C98.642929,24.203547 98.871658,23.162712 99.100388,22.121876 
	C108.768204,22.340391 118.436028,22.558905 128.510239,22.796452 
z"/>
<path fill="#D4D5D5" opacity="1.000000" stroke="none" 
	d="
M69.696823,29.147327 
	C70.881500,28.691143 71.762360,28.386625 72.837837,27.896412 
	C74.738953,27.485233 76.445442,27.259750 78.714439,27.230757 
	C79.847519,27.266043 80.418091,27.104837 80.988670,26.943634 
	C85.703789,26.630577 90.418907,26.317520 95.790634,26.010086 
	C96.447250,26.015705 96.877289,26.068834 96.776733,26.353012 
	C96.809700,27.765879 96.943222,28.894567 96.985527,30.226952 
	C96.894310,30.430645 96.876480,30.876661 96.665260,30.942413 
	C96.454041,31.008165 96.011612,31.009600 95.553757,30.954344 
	C90.723732,31.251362 86.351555,31.603636 81.521942,31.945530 
	C76.694679,32.637688 72.324852,33.340221 67.639069,34.024937 
	C66.848701,33.676624 66.374298,33.346134 65.899887,33.015640 
	C67.064255,31.776758 68.228630,30.537876 69.696823,29.147327 
z"/>
<path fill="#6C6C6C" opacity="1.000000" stroke="none" 
	d="
M96.877289,26.068834 
	C96.877289,26.068834 96.447250,26.015705 96.243652,25.941217 
	C93.837875,24.961990 91.635704,24.057249 89.867287,23.330713 
	C92.198288,22.993517 95.231697,22.554712 98.682739,22.118893 
	C98.871658,23.162712 98.642929,24.203547 97.951599,25.593475 
	C97.285088,25.984659 97.081184,26.026747 96.877289,26.068834 
z"/>
<path fill="#9A9EA1" opacity="1.000000" stroke="none" 
	d="
M80.846619,26.721130 
	C80.418091,27.104837 79.847519,27.266043 79.141968,27.195318 
	C79.572853,26.808470 80.138718,26.653547 80.846619,26.721130 
z"/>
<path fill="#71777F" opacity="1.000000" stroke="none" 
	d="
M161.046204,26.975372 
	C161.212585,26.963278 161.378983,26.951185 161.920166,27.245672 
	C163.209412,28.019045 164.123886,28.485836 165.038345,28.952629 
	C166.212784,29.469938 167.387222,29.987247 168.812805,31.123055 
	C170.028427,34.505775 170.992889,37.269997 171.517807,40.024086 
	C168.716537,40.015347 166.354797,40.016743 163.539780,40.011971 
	C160.061890,39.989578 157.037308,39.973358 154.022385,39.565636 
	C154.883362,38.454010 155.630829,37.491295 156.610809,37.071819 
	C158.008286,36.473640 159.576248,36.273758 161.382233,35.782440 
	C162.694809,35.267113 163.696518,34.873093 165.118134,34.313911 
	C164.287399,33.345428 163.627808,32.576450 162.934753,31.486679 
	C162.282928,29.769047 161.664566,28.372210 161.046204,26.975372 
z"/>
<path fill="#5C5F67" opacity="1.000000" stroke="none" 
	d="
M171.957352,40.034222 
	C170.992889,37.269997 170.028427,34.505775 169.022583,31.380772 
	C171.879410,33.189465 174.777588,35.358932 177.911926,37.705170 
	C176.238708,38.900330 175.194550,39.646168 174.139053,40.727718 
	C174.093887,42.077698 174.060074,43.091961 174.081528,44.481178 
	C171.735779,46.230061 169.418854,47.793945 166.902786,48.908066 
	C165.345444,49.597656 163.485397,49.603626 161.363556,49.980743 
	C160.529343,50.032024 160.092804,50.019043 159.318176,49.704437 
	C158.981644,49.203682 158.983231,49.004555 159.048233,48.463379 
	C161.020157,47.370293 163.088623,46.875702 164.799850,45.808384 
	C167.395386,44.189499 172.238968,45.219231 171.957352,40.034222 
z"/>
<path fill="#808283" opacity="1.000000" stroke="none" 
	d="
M160.875275,26.729465 
	C161.664566,28.372210 162.282928,29.769047 162.506409,31.529995 
	C156.991776,31.602110 151.865189,31.392746 146.756424,30.968611 
	C145.189560,30.838530 143.671539,30.120106 142.144196,29.509964 
	C142.157227,29.348833 142.124985,29.027124 142.124985,29.027126 
	C143.171326,28.662012 144.217667,28.296898 145.901855,28.237671 
	C149.408356,28.653242 152.277023,28.762928 155.145676,28.872612 
	C155.537415,28.884510 155.929169,28.896406 156.806000,28.869480 
	C157.368484,28.724558 157.528564,28.544157 157.510406,28.523945 
	C157.343704,28.338436 157.146072,28.180714 156.957458,28.014893 
	C156.939346,27.839138 156.921249,27.663383 156.906036,27.222332 
	C157.198532,26.777626 157.488113,26.598219 158.157532,26.174992 
	C158.711502,25.896389 158.885635,25.861607 159.059784,25.826824 
	C159.607971,26.045734 160.156174,26.264647 160.875275,26.729465 
z"/>
<path fill="#5C5F67" opacity="1.000000" stroke="none" 
	d="
M164.976990,28.614815 
	C164.123886,28.485836 163.209412,28.019045 162.170349,27.251568 
	C163.002396,27.392923 163.959015,27.834963 164.976990,28.614815 
z"/>
<path fill="#5C5F67" opacity="1.000000" stroke="none" 
	d="
M158.948761,25.635717 
	C158.885635,25.861607 158.711502,25.896389 158.271301,25.941757 
	C158.021576,25.779203 158.037933,25.606058 158.095428,25.174435 
	C158.414505,25.033579 158.648209,25.209799 158.948761,25.635717 
z"/>
<path fill="#50555C" opacity="1.000000" stroke="none" 
	d="
M51.806644,41.403641 
	C53.825130,39.488651 55.599823,37.884983 57.698822,36.589363 
	C57.887924,40.318821 60.051552,40.764557 62.672039,40.322891 
	C63.839363,40.126148 64.930901,39.479744 66.030426,39.380699 
	C66.926559,40.415760 67.849113,41.107544 69.238747,41.863995 
	C73.432137,42.249947 77.158440,42.571228 80.428078,42.914581 
	C70.665115,43.366234 61.358818,43.795818 51.707176,44.178139 
	C50.899170,44.146263 50.436508,44.161652 49.612568,44.138065 
	C48.167332,44.398289 47.083374,44.697483 45.634651,44.871864 
	C42.907593,44.202282 40.545296,43.657516 38.182999,43.112755 
	C42.642948,42.646820 47.102901,42.180885 51.806644,41.403641 
M64.509048,41.403820 
	C64.509048,41.403820 64.595421,41.535625 64.509048,41.403820 
z"/>
<path fill="#8A919A" opacity="1.000000" stroke="none" 
	d="
M37.768936,43.040665 
	C40.545296,43.657516 42.907593,44.202282 45.765499,45.182930 
	C45.836933,47.766766 45.412754,49.914719 44.709965,51.932800 
	C43.617905,51.203426 42.804459,50.603924 41.773315,49.724045 
	C38.993149,48.523743 36.430679,47.603821 33.847366,46.373661 
	C32.886833,45.380131 31.947147,44.696835 31.000399,43.724525 
	C30.967615,43.053444 30.941895,42.671375 30.916172,42.289307 
	C33.062405,42.515732 35.208641,42.742153 37.768936,43.040665 
z"/>
<path fill="#7A8189" opacity="1.000000" stroke="none" 
	d="
M30.509541,42.229797 
	C30.941895,42.671375 30.967615,43.053444 30.603151,43.749004 
	C28.113077,44.437469 25.995073,44.733524 23.918537,45.210220 
	C21.949718,45.662186 20.379644,46.488174 21.785347,49.188301 
	C19.050304,49.664852 16.516401,49.845959 13.982497,50.027065 
	C13.982497,50.027065 14.009616,50.014065 14.013130,49.998962 
	C13.770903,48.945595 13.525161,47.907326 12.992401,46.727341 
	C15.459296,45.526218 18.145264,44.196949 20.985842,43.481770 
	C23.947208,42.736176 27.057646,42.582664 30.509541,42.229797 
z"/>
<path fill="#303437" opacity="1.000000" stroke="none" 
	d="
M66.056839,39.037422 
	C64.930901,39.479744 63.839363,40.126148 62.672039,40.322891 
	C60.051552,40.764557 57.887924,40.318821 58.041283,36.520569 
	C60.425037,35.100830 62.790634,34.057930 65.528061,33.015335 
	C66.374298,33.346134 66.848701,33.676624 67.582916,34.013504 
	C67.842720,34.019897 67.803894,34.127758 67.860062,34.483009 
	C67.296432,36.237984 66.676636,37.637703 66.056839,39.037422 
z"/>
<path fill="#3F4248" opacity="1.000000" stroke="none" 
	d="
M158.984818,48.805431 
	C158.983231,49.004555 158.981644,49.203682 158.990326,49.701328 
	C158.665253,50.529461 158.329895,51.059074 157.947433,51.919304 
	C157.172928,52.166908 156.445526,52.083885 155.359528,52.001396 
	C155.000946,52.001930 155.022659,52.011112 154.879150,51.748032 
	C154.175262,51.309544 153.614883,51.134132 152.763489,50.673561 
	C148.396866,50.176682 143.963348,48.396397 140.994415,53.004990 
	C141.000488,53.001362 141.011215,52.990894 141.011215,52.990894 
	C135.506165,53.762196 133.922577,58.625221 130.742203,62.670589 
	C128.858414,63.324635 127.479393,63.656906 125.772278,63.951931 
	C124.274529,63.380245 123.104874,62.845810 121.979614,61.921295 
	C122.577522,60.237988 123.131042,58.944756 123.956902,57.015251 
	C120.231461,57.015251 117.113449,57.015251 113.550552,57.011078 
	C100.075287,57.658520 87.044930,58.310135 73.954559,58.619888 
	C71.572327,57.667095 69.049034,57.443600 66.969765,56.364513 
	C62.653511,54.124489 59.156212,55.201866 55.500824,57.840500 
	C53.373032,59.376450 50.734558,60.628452 49.282066,56.813908 
	C53.210636,55.401344 56.816822,53.287571 60.492908,53.158062 
	C79.438805,52.490585 98.407898,52.496967 117.356857,51.891407 
	C122.771729,51.718365 127.967567,50.812435 130.902969,58.125664 
	C132.401260,55.679497 133.200714,54.374290 134.281097,52.911732 
	C135.706467,51.835327 136.850876,50.916271 138.091187,49.764214 
	C138.154556,49.366409 138.122025,49.201607 138.080963,49.075157 
	C138.072449,49.113514 138.135574,49.160328 138.528900,49.139500 
	C144.792648,46.213558 150.863754,46.607822 157.182251,48.230896 
	C157.906799,48.563438 158.445816,48.684433 158.984818,48.805431 
z"/>
<path fill="#3B3C3F" opacity="1.000000" stroke="none" 
	d="
M48.991928,57.027981 
	C50.734558,60.628452 53.373032,59.376450 55.500824,57.840500 
	C59.156212,55.201866 62.653511,54.124489 66.969765,56.364513 
	C69.049034,57.443600 71.572327,57.667095 73.486420,58.634411 
	C66.965828,59.243515 60.853363,59.496235 53.764599,59.789318 
	C55.769665,62.250080 56.894058,63.630016 57.819923,65.276596 
	C56.730957,66.081146 55.840515,66.619064 54.849159,67.418053 
	C54.516815,68.371674 54.285385,69.064217 53.608688,69.828461 
	C52.259254,69.927071 51.355080,69.953979 50.450905,69.980896 
	C49.629227,70.434158 48.807549,70.887421 47.877541,70.925133 
	C47.670635,70.323196 47.572063,70.136826 47.636307,69.597900 
	C47.174171,64.896194 46.549217,60.547020 45.952431,55.799316 
	C46.003033,54.872253 46.025475,54.343719 46.373070,53.872654 
	C47.134228,53.989555 47.570240,54.048988 47.989082,54.434059 
	C48.311916,55.515789 48.651924,56.271885 48.991928,57.027981 
z"/>
<path fill="#424242" opacity="1.000000" stroke="none" 
	d="
M154.992065,51.994007 
	C156.678024,55.490643 161.929581,57.105259 160.018585,62.735592 
	C158.399933,63.981358 157.222015,64.783218 155.706207,65.663940 
	C154.917282,65.834641 154.466248,65.926483 153.687256,66.025772 
	C152.791870,66.317360 152.224457,66.601501 151.415131,66.889450 
	C150.850937,66.911720 150.530075,66.944122 150.161575,66.621033 
	C150.096176,65.508934 150.079834,64.766251 150.383698,64.045624 
	C152.628296,63.662983 154.552704,63.258297 156.201111,62.911652 
	C155.211533,60.001934 154.400635,57.617584 153.549957,55.116280 
	C152.256546,54.965481 150.715927,54.785858 150.415756,54.750862 
	C149.359421,57.041134 148.671600,58.532417 147.882339,59.747047 
	C147.114288,56.756214 146.045822,54.569859 143.074463,55.209858 
	C142.266678,57.141441 141.642105,58.634895 140.723648,59.974030 
	C136.747894,59.665749 138.447968,62.436306 138.061676,64.328049 
	C138.017838,64.559151 137.984802,65.029099 137.978821,65.359322 
	C138.289978,66.452873 138.607117,67.216209 138.959900,68.304070 
	C139.029419,69.061234 139.063278,69.493874 139.097137,69.926506 
	C134.195251,67.781021 135.801529,63.623013 136.626373,60.256222 
	C137.214981,57.853695 139.311432,55.820587 140.873123,53.306763 
	C141.011215,52.990894 141.000488,53.001362 141.406250,52.968273 
	C145.224655,52.593079 148.637314,52.250969 152.419525,51.960835 
	C153.533600,52.012241 154.278137,52.011677 155.022659,52.011112 
	C155.022659,52.011112 155.000946,52.001930 154.992065,51.994007 
z"/>
<path fill="#545454" opacity="1.000000" stroke="none" 
	d="
M37.383583,74.103134 
	C36.788605,73.839622 36.475273,73.419571 35.767452,72.496925 
	C34.544964,69.534630 33.716965,67.074928 32.897465,64.602409 
	C32.905960,64.589600 32.896610,64.562309 32.846878,64.155594 
	C32.055244,63.506809 31.313345,63.264729 30.232128,63.018257 
	C29.211275,63.024231 28.529736,63.034592 27.556068,63.042564 
	C26.874847,63.055740 26.485752,63.071304 26.053137,62.750687 
	C26.001308,61.964832 25.993000,61.515160 26.166874,60.920135 
	C26.278391,60.178398 26.207724,59.582008 26.264702,58.771690 
	C25.616289,57.403751 24.840235,56.249737 24.064178,55.095722 
	C24.064178,55.095722 24.016268,55.022778 24.387543,55.028477 
	C30.241165,53.070282 30.632841,58.694107 32.871548,60.634369 
	C35.143372,60.531734 36.932835,60.581833 38.673672,60.314857 
	C39.496117,60.188721 40.225399,59.455086 41.266045,59.187584 
	C41.805805,60.580711 42.580688,62.673939 42.270290,62.849621 
	C38.488415,64.990059 39.951939,68.256821 40.189461,71.266510 
	C39.348049,72.159866 38.506638,73.053223 37.383583,74.103134 
M37.416607,61.482792 
	C37.416607,61.482792 37.526009,61.418705 37.416607,61.482792 
z"/>
<path fill="#2B2C30" opacity="1.000000" stroke="none" 
	d="
M126.100365,63.989182 
	C127.479393,63.656906 128.858414,63.324635 130.599899,62.994804 
	C134.479950,64.201653 132.760757,66.508171 131.555298,68.961426 
	C128.665649,69.268265 126.358818,69.197578 123.780563,68.797089 
	C114.336327,68.303047 105.163506,68.138802 95.994743,67.668564 
	C96.002907,66.954552 96.007027,66.546524 96.251678,66.056244 
	C96.649406,65.910622 96.806587,65.847267 97.431343,65.840469 
	C103.513016,65.857834 109.139038,66.027145 114.737068,65.707008 
	C118.545128,65.489212 122.313980,64.585930 126.100365,63.989182 
z"/>
<path fill="#F3F3F3" opacity="1.000000" stroke="none" 
	d="
M124.051979,69.126892 
	C126.358818,69.197578 128.665649,69.268265 131.404221,69.327835 
	C131.835953,69.316719 131.867020,69.670792 131.893982,70.114761 
	C131.950302,70.744270 131.979660,70.929810 132.009018,71.115341 
	C119.944489,71.242027 107.880188,71.400139 95.815361,71.484894 
	C87.042534,71.546524 78.269020,71.511208 69.152870,71.143539 
	C68.883064,70.526619 68.956200,70.285263 69.495712,70.024094 
	C77.313416,69.813393 84.664742,69.622505 92.463966,69.542145 
	C103.291901,69.477409 113.671936,69.302155 124.051979,69.126892 
z"/>
<path fill="#131415" opacity="1.000000" stroke="none" 
	d="
M45.924267,56.197849 
	C46.549217,60.547020 47.174171,64.896194 47.253483,69.587936 
	C46.198875,69.979614 45.689911,70.028725 45.180943,70.077835 
	C44.952728,70.055443 44.724510,70.033066 44.193893,69.575348 
	C44.717068,64.655769 46.300285,60.006199 41.115429,56.495766 
	C39.318893,54.591434 37.608658,53.006149 35.898418,51.420868 
	C35.916317,51.198307 35.934216,50.975750 36.309212,50.425873 
	C37.744762,50.427040 38.823215,50.755516 40.113522,51.332085 
	C42.191673,53.119396 44.057972,54.658623 45.924267,56.197849 
z"/>
<path fill="#454545" opacity="1.000000" stroke="none" 
	d="
M41.201725,56.814816 
	C46.300285,60.006199 44.717068,64.655769 43.851189,69.545898 
	C42.816723,70.351944 41.822556,70.752083 40.508926,71.209366 
	C39.951939,68.256821 38.488415,64.990059 42.270290,62.849621 
	C42.580688,62.673939 41.805805,60.580711 41.267654,59.189293 
	C41.000114,59.000114 41.003227,59.003269 41.005669,58.671700 
	C41.000317,57.898338 40.992519,57.456547 41.038429,56.964184 
	C41.092140,56.913609 41.201725,56.814816 41.201725,56.814816 
M42.662930,66.368027 
	C42.587376,66.099670 42.511826,65.831314 42.436275,65.562958 
	C42.137913,65.856010 41.839550,66.149063 41.541187,66.442108 
	C41.806396,66.525475 42.071606,66.608841 42.662930,66.368027 
z"/>
<path fill="#808283" opacity="1.000000" stroke="none" 
	d="
M149.573929,74.377731 
	C149.237274,74.639992 148.900620,74.902245 148.274872,75.314178 
	C147.545410,75.364357 147.105042,75.264847 146.161179,74.869858 
	C145.056503,74.471512 144.455322,74.368652 143.854126,74.265793 
	C143.787430,73.912537 143.720718,73.559288 144.032257,72.930328 
	C144.936981,71.774529 145.463455,70.894440 146.106567,69.756897 
	C146.479446,68.996941 146.735703,68.494423 147.258652,68.116325 
	C147.730057,68.784164 147.934769,69.327591 148.160187,70.267662 
	C148.645233,71.902115 149.109573,73.139923 149.573929,74.377731 
z"/>
<path fill="#9A9EA1" opacity="1.000000" stroke="none" 
	d="
M69.029343,70.043900 
	C68.956200,70.285263 68.883064,70.526619 68.653641,71.112930 
	C62.520191,71.321297 56.543026,71.184708 50.508385,70.514511 
	C51.355080,69.953979 52.259254,69.927071 54.070290,69.859642 
	C59.661213,69.894051 64.345276,69.968979 69.029343,70.043900 
z"/>
<path fill="#606060" opacity="1.000000" stroke="none" 
	d="
M146.991974,67.991913 
	C146.735703,68.494423 146.479446,68.996941 145.785645,69.753265 
	C144.902557,70.407455 144.457031,70.807831 144.011520,71.208206 
	C142.779694,71.074440 141.547882,70.940659 140.370087,70.259598 
	C141.659348,68.789696 142.894577,67.867073 144.432220,66.979309 
	C145.487091,67.340080 146.239517,67.665993 146.991974,67.991913 
z"/>
<path fill="#8F9090" opacity="1.000000" stroke="none" 
	d="
M144.129791,66.944450 
	C142.894577,67.867073 141.659348,68.789696 140.159210,69.927673 
	C139.894287,70.143044 139.496445,70.030846 139.296783,69.978676 
	C139.063278,69.493874 139.029419,69.061234 139.197144,68.181274 
	C140.253586,67.438530 141.108459,67.143105 142.312576,66.895065 
	C143.129944,66.921585 143.598068,66.900711 144.070068,66.907524 
	C144.073959,66.935204 144.129791,66.944450 144.129791,66.944450 
z"/>
<path fill="#222426" opacity="1.000000" stroke="none" 
	d="
M143.993744,71.368927 
	C144.457031,70.807831 144.902557,70.407455 145.669006,70.010712 
	C145.463455,70.894440 144.936981,71.774529 144.131378,72.400269 
	C143.927795,71.947388 143.969025,71.741974 143.993744,71.368927 
z"/>
<path fill="#8F9090" opacity="1.000000" stroke="none" 
	d="
M132.150574,71.335159 
	C131.979660,70.929810 131.950302,70.744270 131.960144,70.279694 
	C132.683960,70.298508 133.368546,70.596344 135.071716,71.337318 
	C133.454529,71.463959 132.873337,71.509476 132.150574,71.335159 
z"/>
<path fill="#424242" opacity="1.000000" stroke="none" 
	d="
M143.916794,74.531670 
	C144.455322,74.368652 145.056503,74.471512 145.822739,74.845993 
	C145.318344,75.010925 144.648895,74.904236 143.916794,74.531670 
z"/>
<path fill="#8F9090" opacity="1.000000" stroke="none" 
	d="
M45.140141,70.401108 
	C45.689911,70.028725 46.198875,69.979614 47.090668,69.940475 
	C47.572063,70.136826 47.670635,70.323196 47.615555,70.785995 
	C46.674381,70.949738 45.886860,70.837059 45.140141,70.401108 
z"/>
<path fill="#646464" opacity="1.000000" stroke="none" 
	d="
M149.599258,74.340431 
	C149.109573,73.139923 148.645233,71.902115 148.418060,70.082283 
	C148.775513,68.658546 148.895798,67.816841 149.314575,66.988388 
	C149.812256,66.997925 150.011429,66.994186 150.210617,66.990456 
	C150.530075,66.944122 150.850937,66.911720 151.624893,67.131424 
	C152.440826,67.576385 152.805099,67.783173 153.186371,68.326004 
	C153.145920,69.106773 153.088440,69.551498 152.624344,70.000809 
	C151.370392,71.413223 150.523071,72.821053 149.675751,74.228889 
	C149.675751,74.228889 149.624588,74.303131 149.599258,74.340431 
z"/>
<path fill="#787D83" opacity="1.000000" stroke="none" 
	d="
M150.080750,74.337845 
	C150.523071,72.821053 151.370392,71.413223 152.936722,70.020767 
	C154.070831,69.993263 154.485916,69.950394 155.062408,70.337433 
	C155.465683,70.954964 155.707565,71.142601 155.949463,71.330246 
	C155.322617,71.947350 154.695770,72.564445 153.514572,72.960968 
	C152.612335,72.670853 152.264450,72.601318 151.916565,72.531776 
	C152.363327,72.739204 152.810074,72.946640 153.256836,73.154068 
	C152.333145,73.584976 151.409454,74.015884 150.080750,74.337845 
z"/>
<path fill="#474A4E" opacity="1.000000" stroke="none" 
	d="
M156.192566,71.292709 
	C155.707565,71.142601 155.465683,70.954964 155.219391,70.087326 
	C155.570969,68.936005 155.926910,68.464684 156.282867,67.993370 
	C156.854980,68.777473 157.427094,69.561584 158.002228,70.682236 
	C157.482056,71.097588 156.958862,71.176376 156.192566,71.292709 
z"/>
<path fill="#454545" opacity="1.000000" stroke="none" 
	d="
M18.245823,72.261810 
	C18.877497,69.888580 19.731070,67.768242 21.128050,65.358994 
	C22.152840,65.162056 22.634224,65.254028 23.100056,65.608841 
	C23.067822,66.225273 23.051140,66.578865 22.776012,67.128456 
	C23.343523,67.819962 24.169481,68.315468 25.206335,69.051910 
	C25.743813,69.568253 26.070395,69.843666 26.155350,70.356148 
	C25.466078,71.097923 25.018433,71.602631 24.570789,72.107346 
	C22.536436,72.243126 20.502081,72.378914 18.245823,72.261810 
z"/>
<path fill="#787D83" opacity="1.000000" stroke="none" 
	d="
M24.721157,72.291748 
	C25.018433,71.602631 25.466078,71.097923 26.374113,70.350754 
	C27.130136,70.114128 27.424736,70.134758 27.859062,70.366821 
	C28.243092,70.810280 28.536877,70.914665 28.910290,71.166481 
	C28.960743,71.649307 28.982082,71.842316 29.003424,72.035324 
	C29.003424,72.035324 29.019657,72.512123 28.689449,72.760063 
	C27.859320,73.020714 27.359396,73.033424 26.859474,73.046143 
	C26.465712,73.007301 26.071951,72.968452 25.382385,72.915146 
	C25.086580,72.900673 24.871527,72.476151 24.721157,72.291748 
z"/>
<path fill="#6C6C6C" opacity="1.000000" stroke="none" 
	d="
M32.888969,64.615219 
	C33.716965,67.074928 34.544964,69.534630 35.433926,72.286201 
	C34.417339,72.351982 33.339794,72.125908 32.065796,71.432846 
	C31.562475,70.024567 31.255602,69.083267 31.066042,67.872116 
	C31.447964,67.084213 31.712574,66.566162 32.063923,65.705246 
	C32.215988,65.135841 32.281311,64.909294 32.485794,64.694580 
	C32.624954,64.706413 32.888969,64.615219 32.888969,64.615219 
z"/>
<path fill="#9A9EA1" opacity="1.000000" stroke="none" 
	d="
M30.948727,68.141975 
	C31.255602,69.083267 31.562475,70.024567 31.793728,71.253662 
	C31.044472,71.751518 30.370838,71.961563 29.350315,72.103470 
	C28.982082,71.842316 28.960743,71.649307 28.995369,70.855560 
	C29.210058,69.853661 29.368786,69.452499 29.710228,68.936035 
	C30.244871,68.594482 30.596800,68.368225 30.948727,68.141975 
z"/>
<path fill="#808283" opacity="1.000000" stroke="none" 
	d="
M29.239838,73.813866 
	C29.658134,74.016197 30.076431,74.218536 30.494724,74.420876 
	C30.075020,74.438286 29.655313,74.455696 29.148026,74.214050 
	C29.060444,73.954994 29.239838,73.813866 29.239838,73.813866 
z"/>
<path fill="#808283" opacity="1.000000" stroke="none" 
	d="
M27.012844,73.314896 
	C27.359396,73.033424 27.859320,73.020714 28.735706,72.994080 
	C29.112173,72.980156 29.235403,73.390678 29.237621,73.602272 
	C29.239838,73.813866 29.060444,73.954994 28.976200,74.034088 
	C28.316708,73.936668 27.741463,73.760162 27.012844,73.314896 
z"/>
<path fill="#474A4E" opacity="1.000000" stroke="none" 
	d="
M156.044098,65.585083 
	C157.222015,64.783218 158.399933,63.981358 159.865341,63.039841 
	C160.415848,64.030502 160.678879,65.160812 161.044922,66.623566 
	C159.840790,66.971649 158.533646,66.987274 156.721832,66.654388 
	C156.159500,66.065613 156.101791,65.825348 156.044098,65.585083 
z"/>
<path fill="#B7BDC5" opacity="1.000000" stroke="none" 
	d="
M155.706207,65.663940 
	C156.101791,65.825348 156.159500,66.065613 156.333313,66.657852 
	C156.401581,67.170349 156.353699,67.330856 156.294342,67.742363 
	C155.926910,68.464684 155.570969,68.936005 155.058014,69.657425 
	C154.485916,69.950394 154.070831,69.993263 153.343353,70.016182 
	C153.088440,69.551498 153.145920,69.106773 153.383820,68.133469 
	C153.714554,67.076035 153.864899,66.547188 154.015228,66.018333 
	C154.466248,65.926483 154.917282,65.834641 155.706207,65.663940 
z"/>
<path fill="#474A4E" opacity="1.000000" stroke="none" 
	d="
M39.901669,51.083992 
	C38.823215,50.755516 37.744762,50.427040 36.326866,50.091423 
	C29.249540,49.047276 23.255875,50.265709 18.394587,55.972942 
	C16.737421,54.355217 15.369892,52.558289 13.992432,50.394215 
	C16.516401,49.845959 19.050304,49.664852 22.166628,49.135178 
	C26.455437,48.085705 30.161823,47.384804 33.868210,46.683899 
	C36.430679,47.603821 38.993149,48.523743 41.504166,49.840813 
	C40.935699,50.519970 40.418682,50.801983 39.901669,51.083992 
z"/>
<path fill="#B7BDC5" opacity="1.000000" stroke="none" 
	d="
M6.304662,52.059601 
	C5.936980,51.853859 5.900702,51.677872 5.918510,51.237862 
	C6.712066,50.966934 7.451535,50.960026 8.591331,50.977631 
	C8.991659,51.002140 8.903179,51.080414 8.903179,51.080414 
	C8.147475,51.416725 7.391771,51.753036 6.304662,52.059601 
z"/>
<path fill="#707173" opacity="1.000000" stroke="none" 
	d="
M8.959276,51.050697 
	C9.020545,51.047523 9.114196,50.995792 9.055513,51.012238 
	C8.903179,51.080414 8.991659,51.002140 8.959276,51.050697 
z"/>
<path fill="#454545" opacity="1.000000" stroke="none" 
	d="
M35.491692,51.337265 
	C37.608658,53.006149 39.318893,54.591434 41.115429,56.495766 
	C41.201725,56.814816 41.092140,56.913609 40.688538,56.920933 
	C38.854263,56.015553 37.423595,55.102852 35.885670,54.121723 
	C35.189743,58.052811 35.243946,58.100372 41.003227,59.003269 
	C41.003227,59.003269 41.000114,59.000114 40.998505,58.998409 
	C40.225399,59.455086 39.496117,60.188721 38.673672,60.314857 
	C36.932835,60.581833 35.143372,60.531734 32.871548,60.634369 
	C30.632841,58.694107 30.241165,53.070282 24.426891,55.047340 
	C26.901262,51.317371 30.899651,51.015694 35.491692,51.337265 
M32.612480,56.530651 
	C32.612480,56.530651 32.476421,56.622250 32.612480,56.530651 
z"/>
<path fill="#454545" opacity="1.000000" stroke="none" 
	d="
M23.729383,55.198536 
	C24.840235,56.249737 25.616289,57.403751 25.979652,58.756241 
	C25.424253,59.572651 25.281549,60.190598 24.811314,60.860367 
	C23.991402,61.299358 23.499022,61.686520 22.990852,62.376656 
	C23.008207,63.082565 23.041353,63.485504 22.722416,63.940830 
	C21.896463,63.995239 21.422590,63.997257 20.948719,63.999279 
	C18.654133,60.225468 20.978939,57.750637 23.729383,55.198536 
z"/>
<path fill="#84878B" opacity="1.000000" stroke="none" 
	d="
M20.940903,64.269463 
	C21.422590,63.997257 21.896463,63.995239 23.056740,63.995178 
	C24.514942,63.668915 25.286743,63.340698 26.052402,63.038857 
	C26.046259,63.065235 26.096657,63.086868 26.096657,63.086868 
	C26.485752,63.071304 26.874847,63.055740 27.608261,63.365326 
	C27.968325,64.126030 27.984072,64.561584 27.763157,65.097244 
	C27.073143,65.436096 26.619797,65.674843 25.945198,65.655716 
	C24.854500,65.380569 23.985052,65.363281 23.115606,65.346001 
	C22.634224,65.254028 22.152840,65.162056 21.303259,65.075172 
	C20.934402,64.900055 20.933743,64.719849 20.940903,64.269463 
z"/>
<path fill="#515455" opacity="1.000000" stroke="none" 
	d="
M141.762299,28.971359 
	C142.124985,29.027124 142.157227,29.348833 142.100922,29.883400 
	C141.659302,32.039661 141.273987,33.661354 140.453918,35.198849 
	C137.044617,35.129532 134.070068,35.144413 131.127380,34.772625 
	C133.388046,33.432999 135.616837,32.480045 137.845627,31.527088 
	C137.711258,30.848446 137.576904,30.169804 137.442551,29.491161 
	C134.962387,29.660992 132.482208,29.830824 130.022705,29.680634 
	C130.001816,28.935844 129.960266,28.511078 129.946167,27.742373 
	C129.968964,26.938709 129.964279,26.478985 129.959610,26.019262 
	C134.511612,24.067122 138.166504,25.658327 141.762299,28.971359 
z"/>
<path fill="#222426" opacity="1.000000" stroke="none" 
	d="
M96.011612,31.009600 
	C96.011612,31.009600 96.454041,31.008165 97.052544,30.991053 
	C98.429131,30.934885 99.207207,30.895830 100.370232,30.893520 
	C101.680687,30.305344 102.606201,29.680424 103.531715,29.055504 
	C103.531715,29.055502 103.499771,29.000151 103.712585,29.163170 
	C103.925407,29.326187 104.384491,29.171659 104.327866,29.503990 
	C104.466393,30.236259 104.661545,30.636200 104.613304,31.308393 
	C104.274063,33.075127 104.178223,34.569611 103.780807,36.309280 
	C101.649597,36.765759 99.819962,36.977043 97.641602,37.126221 
	C96.587402,37.023655 95.881912,36.983200 95.194550,36.569614 
	C95.478989,34.467518 95.745300,32.738560 96.011612,31.009600 
z"/>
<path fill="#707173" opacity="1.000000" stroke="none" 
	d="
M104.384491,29.171659 
	C104.384491,29.171659 103.925407,29.326187 103.721611,29.194492 
	C105.069664,28.042116 106.584053,26.214409 108.179840,26.140345 
	C115.117355,25.818348 122.078583,26.007219 129.495392,26.014858 
	C129.964279,26.478985 129.968964,26.938709 129.485992,27.724001 
	C124.181236,28.031626 119.358421,27.863905 114.548912,28.046616 
	C111.151428,28.175684 107.771988,28.779686 104.384491,29.171659 
z"/>
<path fill="#6E7277" opacity="1.000000" stroke="none" 
	d="
M155.011398,28.510048 
	C152.277023,28.762928 149.408356,28.653242 146.263809,28.240440 
	C148.950989,28.007376 151.914047,28.077429 155.011398,28.510048 
z"/>
<path fill="#6C6C6C" opacity="1.000000" stroke="none" 
	d="
M103.156342,28.929865 
	C102.606201,29.680424 101.680687,30.305344 100.354263,30.644123 
	C99.308876,30.238487 98.664398,30.118996 98.027161,29.643322 
	C98.091400,28.815483 98.148415,28.343824 98.205421,27.872166 
	C99.730606,28.182852 101.255783,28.493540 103.156342,28.929865 
z"/>
<path fill="#84878B" opacity="1.000000" stroke="none" 
	d="
M98.180542,27.531300 
	C98.148415,28.343824 98.091400,28.815483 97.791306,29.651373 
	C97.548218,30.015604 97.076744,30.023258 97.076744,30.023258 
	C96.943222,28.894567 96.809700,27.765879 96.776733,26.353012 
	C97.081184,26.026747 97.285088,25.984659 97.796005,25.878994 
	C98.120567,26.273756 98.138115,26.732096 98.180542,27.531300 
z"/>
<path fill="#6E7277" opacity="1.000000" stroke="none" 
	d="
M156.952438,28.247915 
	C157.146072,28.180714 157.343704,28.338436 157.510406,28.523945 
	C157.528564,28.544157 157.368484,28.724558 157.099396,28.888027 
	C156.907715,28.945400 156.947418,28.480940 156.952438,28.247915 
z"/>
<path fill="#989EA0" opacity="1.000000" stroke="none" 
	d="
M95.553757,30.954344 
	C95.745300,32.738560 95.478989,34.467518 94.730637,36.585289 
	C91.505371,37.258461 88.761902,37.769306 86.019005,37.766262 
	C83.013893,37.762924 80.009308,37.285229 77.154968,36.711201 
	C78.863419,34.924068 80.421402,33.439987 81.979385,31.955910 
	C86.351555,31.603636 90.723732,31.251362 95.553757,30.954344 
z"/>
<path fill="#AAADAD" opacity="1.000000" stroke="none" 
	d="
M81.521942,31.945530 
	C80.421402,33.439987 78.863419,34.924068 76.781342,36.707523 
	C75.510963,37.015099 74.764671,37.023296 73.662651,37.016644 
	C72.536217,36.333202 71.765518,35.664612 71.130142,34.944855 
	C71.178307,34.930855 71.091148,34.968025 70.671150,34.980118 
	C69.493507,34.679276 68.648697,34.403519 67.803894,34.127758 
	C67.803894,34.127758 67.842720,34.019897 67.898880,34.031326 
	C72.324852,33.340221 76.694679,32.637688 81.521942,31.945530 
z"/>
<path fill="#707173" opacity="1.000000" stroke="none" 
	d="
M96.985527,30.226952 
	C97.076744,30.023258 97.548218,30.015604 97.784073,30.007553 
	C98.664398,30.118996 99.308876,30.238487 99.969322,30.607376 
	C99.207207,30.895830 98.429131,30.934885 97.263763,30.925301 
	C96.876480,30.876661 96.894310,30.430645 96.985527,30.226952 
z"/>
<path fill="#8A919A" opacity="1.000000" stroke="none" 
	d="
M156.996719,48.019348 
	C150.863754,46.607822 144.792648,46.213558 138.518982,48.777306 
	C139.756409,45.667721 141.397110,42.899498 143.279556,40.094120 
	C143.521317,40.056965 144.009338,40.019272 144.463013,40.016785 
	C147.948685,39.995239 150.980698,39.976189 154.012711,39.957138 
	C157.037308,39.973358 160.061890,39.989578 163.499695,40.368450 
	C162.704819,41.617718 161.327377,42.348351 160.331146,43.430058 
	C159.058746,44.811619 158.094040,46.476547 156.996719,48.019348 
z"/>
<path fill="#4D5051" opacity="1.000000" stroke="none" 
	d="
M140.888672,35.283043 
	C141.273987,33.661354 141.659302,32.039661 142.087891,30.044533 
	C143.671539,30.120106 145.189560,30.838530 146.756424,30.968611 
	C151.865189,31.392746 156.991776,31.602110 162.539856,31.850790 
	C163.627808,32.576450 164.287399,33.345428 165.118134,34.313911 
	C163.696518,34.873093 162.694809,35.267113 161.072968,35.497810 
	C154.956207,35.615345 149.459549,35.896202 143.634644,36.127186 
	C142.500473,35.812553 141.694565,35.547798 140.888672,35.283043 
z"/>
<path fill="#848B94" opacity="1.000000" stroke="none" 
	d="
M157.182251,48.230896 
	C158.094040,46.476547 159.058746,44.811619 160.331146,43.430058 
	C161.327377,42.348351 162.704819,41.617718 163.952988,40.374619 
	C166.354797,40.016743 168.716537,40.015347 171.517807,40.024086 
	C172.238968,45.219231 167.395386,44.189499 164.799850,45.808384 
	C163.088623,46.875702 161.020157,47.370293 159.048233,48.463379 
	C158.445816,48.684433 157.906799,48.563438 157.182251,48.230896 
z"/>
<path fill="#787D83" opacity="1.000000" stroke="none" 
	d="
M143.962906,36.177063 
	C149.459549,35.896202 154.956207,35.615345 160.762115,35.619118 
	C159.576248,36.273758 158.008286,36.473640 156.610809,37.071819 
	C155.630829,37.491295 154.883362,38.454010 154.022385,39.565636 
	C150.980698,39.976189 147.948685,39.995239 144.460815,39.675003 
	C144.000916,38.880116 143.996887,38.424515 143.991028,37.669563 
	C143.980453,36.972496 143.971680,36.574780 143.962906,36.177063 
z"/>
<path fill="#848B94" opacity="1.000000" stroke="none" 
	d="
M52.052521,44.225403 
	C61.358818,43.795818 70.665115,43.366234 80.864395,42.951645 
	C86.539604,42.011898 89.532433,44.609383 91.610985,48.129318 
	C80.455566,48.436321 69.738701,48.765247 58.868477,48.776287 
	C56.493584,46.156284 55.230373,46.575710 54.585960,49.833183 
	C53.491688,49.880310 52.760784,49.878662 52.024536,49.469631 
	C52.030300,47.449966 52.041409,45.837681 52.052521,44.225403 
z"/>
<path fill="#606771" opacity="1.000000" stroke="none" 
	d="
M92.049538,48.151241 
	C89.532433,44.609383 86.539604,42.011898 81.321060,42.929573 
	C77.158440,42.571228 73.432137,42.249947 69.403137,41.537209 
	C70.731819,40.759670 72.363190,40.373585 74.435066,40.007324 
	C76.673096,40.222172 78.474350,40.611111 80.267471,40.576660 
	C86.179298,40.463078 92.088181,40.196327 98.381393,40.045815 
	C100.351074,40.181168 101.937637,40.257542 103.524033,40.337341 
	C107.689842,40.546886 111.855583,40.757935 116.009781,41.206539 
	C115.998215,41.444698 115.973663,41.920238 115.507957,41.940498 
	C109.345970,42.290203 103.649689,42.619644 97.603516,43.014587 
	C96.503349,44.764782 95.753075,46.449474 94.811142,48.362869 
	C93.762840,48.444798 92.906189,48.298019 92.049538,48.151241 
z"/>
<path fill="#81878E" opacity="1.000000" stroke="none" 
	d="
M48.006248,54.108421 
	C47.570240,54.048988 47.134228,53.989555 46.262280,53.640480 
	C45.547089,52.921448 45.267834,52.492058 44.988579,52.062672 
	C45.412754,49.914719 45.836933,47.766766 46.130264,45.307747 
	C47.083374,44.697483 48.167332,44.398289 49.621929,44.557037 
	C50.012836,46.717560 50.033100,48.420135 49.901436,50.409485 
	C49.168419,51.833641 48.587334,52.971031 48.006248,54.108421 
z"/>
<path fill="#989EA0" opacity="1.000000" stroke="none" 
	d="
M73.994568,39.987495 
	C72.363190,40.373585 70.731819,40.759670 68.936050,41.472542 
	C67.849113,41.107544 66.926559,40.415760 66.030426,39.380699 
	C66.676636,37.637703 67.296432,36.237984 67.860062,34.483009 
	C68.648697,34.403519 69.493507,34.679276 70.669159,34.977516 
	C71.000000,35.000000 70.994820,34.996025 70.994820,34.996025 
	C71.765518,35.664612 72.536217,36.333202 73.656738,37.385582 
	C74.002563,38.508743 73.998566,39.248119 73.994568,39.987495 
z"/>
<path fill="#7A8189" opacity="1.000000" stroke="none" 
	d="
M50.053368,50.122715 
	C50.033100,48.420135 50.012836,46.717560 49.983208,44.596008 
	C50.436508,44.161652 50.899170,44.146263 51.707176,44.178139 
	C52.041409,45.837681 52.030300,47.449966 51.695786,49.520927 
	C50.932713,50.027306 50.493038,50.075012 50.053368,50.122715 
z"/>
<path fill="#303437" opacity="1.000000" stroke="none" 
	d="
M64.552231,41.469723 
	C64.595421,41.535625 64.509048,41.403820 64.552231,41.469723 
z"/>
<path fill="#ABB4BE" opacity="1.000000" stroke="none" 
	d="
M33.847366,46.373665 
	C30.161823,47.384804 26.455437,48.085705 22.367767,48.839729 
	C20.379644,46.488174 21.949718,45.662186 23.918537,45.210220 
	C25.995073,44.733524 28.113077,44.437469 30.610212,44.038017 
	C31.947147,44.696835 32.886833,45.380131 33.847366,46.373665 
z"/>
<path fill="#3E4045" opacity="1.000000" stroke="none" 
	d="
M44.709965,51.932800 
	C45.267834,52.492058 45.547089,52.921448 45.937126,53.583012 
	C46.025475,54.343719 46.003033,54.872253 45.952431,55.799316 
	C44.057972,54.658623 42.191673,53.119396 40.113522,51.332085 
	C40.418682,50.801983 40.935699,50.519970 41.721863,50.121185 
	C42.804459,50.603924 43.617905,51.203426 44.709965,51.932800 
z"/>
<path fill="#50555C" opacity="1.000000" stroke="none" 
	d="
M49.901436,50.409485 
	C50.493038,50.075012 50.932713,50.027306 51.701134,49.928307 
	C52.760784,49.878662 53.491688,49.880310 54.948967,49.898800 
	C56.790848,49.641823 57.906342,49.367996 59.021839,49.094173 
	C69.738701,48.765247 80.455566,48.436321 91.610985,48.129318 
	C92.906189,48.298019 93.762840,48.444798 95.188126,48.330902 
	C96.512444,48.028236 97.268127,47.986244 98.475037,47.974396 
	C101.937378,47.967899 104.948486,47.931259 108.428833,47.939285 
	C114.559052,47.976704 120.221420,48.042995 125.880547,47.936897 
	C129.789108,47.863625 132.713608,49.109486 134.000153,53.069084 
	C133.200714,54.374290 132.401260,55.679497 130.902969,58.125664 
	C127.967567,50.812435 122.771729,51.718365 117.356857,51.891407 
	C98.407898,52.496967 79.438805,52.490585 60.492908,53.158062 
	C56.816822,53.287571 53.210636,55.401344 49.282066,56.813908 
	C48.651924,56.271885 48.311916,55.515789 47.989082,54.434055 
	C48.587334,52.971031 49.168419,51.833641 49.901436,50.409485 
z"/>
<path fill="#272A2E" opacity="1.000000" stroke="none" 
	d="
M58.018448,65.009949 
	C56.894058,63.630016 55.769665,62.250080 53.764599,59.789318 
	C60.853363,59.496235 66.965828,59.243515 73.546432,58.976276 
	C87.044930,58.310135 100.075287,57.658520 113.552170,57.430222 
	C114.000847,59.256260 114.002998,60.658985 113.579102,62.123329 
	C107.758354,62.517445 102.363647,62.849941 96.510155,63.125763 
	C83.373726,63.716049 70.696091,64.362999 58.018448,65.009949 
z"/>
<path fill="#7A8189" opacity="1.000000" stroke="none" 
	d="
M134.281097,52.911732 
	C132.713608,49.109486 129.789108,47.863625 125.880547,47.936897 
	C120.221420,48.042995 114.559052,47.976704 108.450775,47.569008 
	C108.562363,46.488373 109.095306,45.272259 109.684242,45.244514 
	C114.191391,45.032158 118.714905,45.160587 123.220940,44.935207 
	C124.675270,44.862461 126.092529,44.048645 127.526749,43.573833 
	C127.419167,43.034840 127.311584,42.495842 127.204010,41.956844 
	C125.458107,41.956844 123.712204,41.956844 121.976562,41.722576 
	C121.986816,41.488308 121.980598,41.019371 122.368835,41.010921 
	C124.170242,40.667511 125.583397,40.332546 127.400253,39.990421 
	C130.207947,39.660057 132.611938,39.336857 135.078705,39.372662 
	C137.060242,41.463516 138.805984,42.048740 140.370926,38.996651 
	C141.474503,38.988819 142.210205,38.982361 142.967194,39.264877 
	C143.004944,39.746330 143.021378,39.938805 143.037796,40.131275 
	C141.397110,42.899498 139.756409,45.667721 138.125641,48.798134 
	C138.135574,49.160328 138.072449,49.113514 137.903458,49.143784 
	C137.656891,49.272289 137.494995,49.430538 137.515305,49.459076 
	C137.653885,49.653706 137.830765,49.821064 137.995285,49.997219 
	C136.850876,50.916271 135.706467,51.835327 134.281097,52.911732 
z"/>
<path fill="#80858B" opacity="1.000000" stroke="none" 
	d="
M96.968941,63.182434 
	C102.363647,62.849941 107.758354,62.517445 114.019333,62.166527 
	C117.235481,62.202530 119.585350,62.256954 121.935219,62.311375 
	C123.104874,62.845810 124.274529,63.380245 125.772278,63.951927 
	C122.313980,64.585930 118.545128,65.489212 114.737068,65.707008 
	C109.139038,66.027145 103.513016,65.857834 97.440811,65.515663 
	C96.978119,64.483665 96.973534,63.833054 96.968941,63.182434 
z"/>
<path fill="#2B2E34" opacity="1.000000" stroke="none" 
	d="
M121.979614,61.921295 
	C119.585350,62.256954 117.235481,62.202530 114.445381,62.104908 
	C114.002998,60.658985 114.000847,59.256260 113.997070,57.434395 
	C117.113449,57.015251 120.231461,57.015251 123.956902,57.015251 
	C123.131042,58.944756 122.577522,60.237988 121.979614,61.921295 
z"/>
<path fill="#181818" opacity="1.000000" stroke="none" 
	d="
M152.049957,51.908859 
	C148.637314,52.250969 145.224655,52.593079 141.400177,52.971901 
	C143.963348,48.396397 148.396866,50.176682 152.547424,50.777512 
	C152.343002,51.345757 152.152206,51.593170 152.049957,51.908859 
z"/>
<path fill="#0C0D0E" opacity="1.000000" stroke="none" 
	d="
M152.419525,51.960838 
	C152.152206,51.593170 152.343002,51.345757 152.838440,51.062675 
	C153.614883,51.134132 154.175262,51.309544 154.879150,51.748032 
	C154.278137,52.011677 153.533600,52.012241 152.419525,51.960838 
z"/>
<path fill="#8A919A" opacity="1.000000" stroke="none" 
	d="
M138.091187,49.764214 
	C137.830765,49.821064 137.653885,49.653706 137.515305,49.459076 
	C137.494995,49.430538 137.656891,49.272289 137.911972,49.105431 
	C138.122025,49.201607 138.154556,49.366409 138.091187,49.764214 
z"/>
<path fill="#8F929C" opacity="1.000000" stroke="none" 
	d="
M96.510155,63.125767 
	C96.973534,63.833054 96.978119,64.483665 96.973236,65.459091 
	C96.806587,65.847267 96.649406,65.910622 95.945511,65.990234 
	C94.595268,66.109207 93.791733,66.211922 92.522758,66.320847 
	C79.688232,66.603691 67.319153,66.880333 54.950073,67.156982 
	C55.840515,66.619064 56.730957,66.081146 57.819923,65.276596 
	C70.696091,64.362999 83.373726,63.716049 96.510155,63.125767 
z"/>
<path fill="#222426" opacity="1.000000" stroke="none" 
	d="
M54.849159,67.418053 
	C67.319153,66.880333 79.688232,66.603691 92.518890,66.737518 
	C92.994942,67.423904 93.009422,67.699814 92.813446,68.082031 
	C92.407341,68.602768 92.211708,69.017197 92.016075,69.431618 
	C84.664742,69.622505 77.313416,69.813393 69.495712,70.024094 
	C64.345276,69.968979 59.661213,69.894051 54.515549,69.787949 
	C54.285385,69.064217 54.516815,68.371674 54.849159,67.418053 
z"/>
<path fill="#545454" opacity="1.000000" stroke="none" 
	d="
M147.983795,60.023697 
	C148.671600,58.532417 149.359421,57.041134 150.415756,54.750862 
	C150.715927,54.785858 152.256546,54.965481 153.549957,55.116280 
	C154.400635,57.617584 155.211533,60.001934 156.201111,62.911652 
	C154.552704,63.258297 152.628296,63.662983 150.309967,63.732498 
	C149.278305,62.945099 148.640594,62.492878 147.998672,61.704346 
	C147.990906,60.919926 147.987350,60.471813 147.983795,60.023697 
z"/>
<path fill="#606060" opacity="1.000000" stroke="none" 
	d="
M147.882355,59.747047 
	C147.987350,60.471813 147.990906,60.919926 147.868927,61.916878 
	C147.502106,62.706894 147.217026,62.872875 146.655823,62.795334 
	C145.222778,62.488655 144.022079,62.350300 142.620239,62.176109 
	C142.419113,62.140282 142.013474,62.091419 141.917358,61.831261 
	C141.553345,61.090183 141.285446,60.609264 141.017548,60.128349 
	C141.642105,58.634895 142.266678,57.141441 143.074463,55.209858 
	C146.045822,54.569859 147.114288,56.756214 147.882355,59.747047 
z"/>
<path fill="#84878B" opacity="1.000000" stroke="none" 
	d="
M146.888168,62.963654 
	C147.217026,62.872875 147.502106,62.706894 147.873123,62.253181 
	C148.640594,62.492878 149.278305,62.945099 149.989761,63.710449 
	C150.079834,64.766251 150.096176,65.508934 150.161575,66.621033 
	C150.011429,66.994186 149.812256,66.997925 149.118896,66.707924 
	C148.045837,65.264015 147.467010,64.113838 146.888168,62.963654 
z"/>
<path fill="#646464" opacity="1.000000" stroke="none" 
	d="
M140.723648,59.974030 
	C141.285446,60.609264 141.553345,61.090183 141.565094,61.820713 
	C140.571213,62.678196 139.833496,63.286068 138.848969,63.948418 
	C138.436630,64.034241 138.271072,64.065598 138.105515,64.096954 
	C138.447968,62.436306 136.747894,59.665749 140.723648,59.974030 
z"/>
<path fill="#545454" opacity="1.000000" stroke="none" 
	d="
M141.963333,66.847679 
	C141.108459,67.143105 140.253586,67.438530 139.161469,67.856750 
	C138.607117,67.216209 138.289978,66.452873 138.349213,65.378311 
	C139.835709,65.346497 140.945816,65.625923 142.031555,66.141144 
	C142.007187,66.376945 141.963333,66.847679 141.963333,66.847679 
z"/>
<path fill="#8F9090" opacity="1.000000" stroke="none" 
	d="
M142.055923,65.905350 
	C140.945816,65.625923 139.835709,65.346497 138.355194,65.048080 
	C137.984802,65.029099 138.017838,64.559151 138.061676,64.328049 
	C138.271072,64.065598 138.436630,64.034241 139.205338,63.985172 
	C140.833939,63.554714 141.859375,63.141975 143.178223,62.962143 
	C143.659363,64.151627 143.847122,65.108200 143.703705,66.051338 
	C142.933655,65.993721 142.494781,65.949532 142.055923,65.905350 
z"/>
<path fill="#8F9090" opacity="1.000000" stroke="none" 
	d="
M153.687256,66.025772 
	C153.864899,66.547188 153.714554,67.076035 153.366791,67.797424 
	C152.805099,67.783173 152.440826,67.576385 151.866806,67.127625 
	C152.224457,66.601501 152.791870,66.317360 153.687256,66.025772 
z"/>
<path fill="#474A4E" opacity="1.000000" stroke="none" 
	d="
M27.999821,64.997131 
	C27.984072,64.561584 27.968325,64.126030 27.900387,63.367714 
	C28.529736,63.034592 29.211275,63.024231 30.299240,63.306965 
	C30.738970,63.990780 30.772276,64.381500 30.588593,64.922775 
	C30.160366,65.354301 29.949125,65.635292 29.473705,65.898506 
	C28.806290,65.586205 28.403055,65.291664 27.999821,64.997131 
z"/>
<path fill="#707173" opacity="1.000000" stroke="none" 
	d="
M30.805582,64.772224 
	C30.772276,64.381500 30.738970,63.990780 30.638554,63.311356 
	C31.313345,63.264729 32.055244,63.506809 32.740356,64.106720 
	C32.683567,64.464561 32.346638,64.682747 32.346638,64.682747 
	C32.281311,64.909294 32.215988,65.135841 31.820618,65.678741 
	C31.490570,65.995094 31.000731,65.998901 30.963432,65.690399 
	C30.885950,65.178680 30.845766,64.975449 30.805582,64.772224 
z"/>
<path fill="#646464" opacity="1.000000" stroke="none" 
	d="
M23.006641,62.073681 
	C23.499022,61.686520 23.991402,61.299358 25.021008,60.930042 
	C25.558233,60.947887 25.984692,61.065483 25.984692,61.065483 
	C25.993000,61.515160 26.001308,61.964832 26.053137,62.750687 
	C26.096657,63.086868 26.046259,63.065235 25.777359,62.856041 
	C24.674520,62.455788 23.840580,62.264736 23.006641,62.073681 
z"/>
<path fill="#181818" opacity="1.000000" stroke="none" 
	d="
M26.166874,60.920135 
	C25.984692,61.065483 25.558233,60.947887 25.348537,60.878212 
	C25.281549,60.190598 25.424253,59.572651 25.852009,58.970161 
	C26.207724,59.582008 26.278391,60.178398 26.166874,60.920135 
z"/>
<path fill="#474A4E" opacity="1.000000" stroke="none" 
	d="
M32.485794,64.694580 
	C32.346638,64.682747 32.683567,64.464561 32.790089,64.513435 
	C32.896610,64.562309 32.905960,64.589600 32.897465,64.602409 
	C32.888969,64.615219 32.624954,64.706413 32.485794,64.694580 
z"/>
<path fill="#454545" opacity="1.000000" stroke="none" 
	d="
M37.471306,61.450748 
	C37.526009,61.418705 37.416607,61.482792 37.471306,61.450748 
z"/>
<path fill="#181818" opacity="1.000000" stroke="none" 
	d="
M92.463966,69.542145 
	C92.211708,69.017197 92.407341,68.602768 93.183899,68.087341 
	C94.506783,67.982407 95.248734,67.978477 95.990692,67.974556 
	C105.163506,68.138802 114.336327,68.303047 123.780563,68.797096 
	C113.671936,69.302155 103.291901,69.477409 92.463966,69.542145 
z"/>
<path fill="#303437" opacity="1.000000" stroke="none" 
	d="
M95.994743,67.668564 
	C95.248734,67.978477 94.506783,67.982407 93.394363,67.981033 
	C93.009422,67.699814 92.994942,67.423904 92.984329,66.731323 
	C93.791733,66.211922 94.595268,66.109207 95.704971,66.072495 
	C96.007027,66.546524 96.002907,66.954552 95.994743,67.668564 
z"/>
<path fill="#545454" opacity="1.000000" stroke="none" 
	d="
M41.005669,58.671700 
	C35.243946,58.100372 35.189743,58.052811 35.885670,54.121723 
	C37.423595,55.102852 38.854263,56.015553 40.634827,56.971508 
	C40.992519,57.456547 41.000317,57.898338 41.005669,58.671700 
z"/>
<path fill="#545454" opacity="1.000000" stroke="none" 
	d="
M42.499870,66.530121 
	C42.071606,66.608841 41.806396,66.525475 41.541187,66.442108 
	C41.839550,66.149063 42.137913,65.856010 42.436275,65.562958 
	C42.511826,65.831314 42.587376,66.099670 42.499870,66.530121 
z"/>
<path fill="#4D5051" opacity="1.000000" stroke="none" 
	d="
M144.034882,66.064774 
	C143.847122,65.108200 143.659363,64.151627 143.171143,62.832645 
	C142.870651,62.470238 142.821365,62.211945 142.821365,62.211945 
	C144.022079,62.350300 145.222778,62.488655 146.655823,62.795334 
	C147.467010,64.113838 148.045837,65.264015 148.820374,66.694656 
	C148.895798,67.816841 148.775513,68.658546 148.397354,69.685638 
	C147.934769,69.327591 147.730057,68.784164 147.258636,68.116318 
	C146.239517,67.665993 145.487091,67.340080 144.432220,66.979309 
	C144.129791,66.944450 144.073959,66.935204 144.059814,66.704468 
	C144.045685,66.473724 144.034882,66.064774 144.034882,66.064774 
z"/>
<path fill="#606060" opacity="1.000000" stroke="none" 
	d="
M143.703705,66.051338 
	C144.034882,66.064774 144.045685,66.473724 144.055939,66.676788 
	C143.598068,66.900711 143.129944,66.921585 142.312576,66.895065 
	C141.963333,66.847679 142.007187,66.376945 142.031555,66.141144 
	C142.494781,65.949532 142.933655,65.993721 143.703705,66.051338 
z"/>
<path fill="#808283" opacity="1.000000" stroke="none" 
	d="
M153.266235,73.096771 
	C152.810074,72.946640 152.363327,72.739204 151.916565,72.531776 
	C152.264450,72.601318 152.612335,72.670853 153.172928,72.908600 
	C153.385635,73.076805 153.275650,73.039474 153.266235,73.096771 
z"/>
<path fill="#606060" opacity="1.000000" stroke="none" 
	d="
M31.000731,65.998901 
	C31.000731,65.998901 31.490570,65.995094 31.733875,66.021606 
	C31.712574,66.566162 31.447964,67.084213 31.066040,67.872116 
	C30.596800,68.368225 30.244871,68.594482 29.348198,69.011551 
	C28.441738,69.524963 28.080021,69.847557 27.718304,70.170151 
	C27.424736,70.134758 27.130136,70.114128 26.615740,70.113678 
	C26.070395,69.843666 25.743813,69.568253 25.219801,68.759422 
	C25.010702,67.834030 24.999033,67.442062 25.231167,66.912567 
	C25.705465,66.487885 25.935957,66.200737 26.166451,65.913589 
	C26.619797,65.674843 27.073143,65.436096 27.763157,65.097244 
	C28.403055,65.291664 28.806290,65.586205 29.789825,65.933914 
	C30.580326,65.991028 30.790527,65.994965 31.000731,65.998901 
z"/>
<path fill="#272A2E" opacity="1.000000" stroke="none" 
	d="
M25.945198,65.655716 
	C25.935957,66.200737 25.705465,66.487885 24.903019,66.936829 
	C23.898863,67.043243 23.466661,66.987854 23.034458,66.932465 
	C23.051140,66.578865 23.067822,66.225273 23.100056,65.608841 
	C23.985052,65.363281 24.854500,65.380569 25.945198,65.655716 
z"/>
<path fill="#6C6C6C" opacity="1.000000" stroke="none" 
	d="
M22.776012,67.128456 
	C23.466661,66.987854 23.898863,67.043243 24.659214,67.074364 
	C24.999033,67.442062 25.010702,67.834030 25.008905,68.518486 
	C24.169481,68.315468 23.343523,67.819962 22.776012,67.128456 
z"/>
<path fill="#4D5051" opacity="1.000000" stroke="none" 
	d="
M27.859062,70.366821 
	C28.080021,69.847557 28.441738,69.524963 29.165483,69.126846 
	C29.368786,69.452499 29.210058,69.853661 28.966255,70.565750 
	C28.536877,70.914665 28.243092,70.810280 27.859062,70.366821 
z"/>
<path fill="#545454" opacity="1.000000" stroke="none" 
	d="
M32.544449,56.576450 
	C32.476421,56.622250 32.612480,56.530651 32.544449,56.576450 
z"/>
<path fill="#131415" opacity="1.000000" stroke="none" 
	d="
M22.990850,62.376656 
	C23.840580,62.264736 24.674520,62.455788 25.783503,62.829659 
	C25.286743,63.340698 24.514942,63.668915 23.408821,63.942787 
	C23.041353,63.485504 23.008207,63.082565 22.990850,62.376656 
z"/>
<path fill="#9A9B9E" opacity="1.000000" stroke="none" 
	d="
M104.327866,29.503990 
	C107.771988,28.779686 111.151428,28.175684 114.548912,28.046616 
	C119.358421,27.863905 124.181236,28.031626 129.458542,28.067942 
	C129.960266,28.511078 130.001816,28.935844 129.685699,29.707998 
	C128.621399,30.566759 127.914749,31.078131 126.834526,31.564468 
	C119.259537,31.371670 112.058113,31.203903 104.856697,31.036140 
	C104.661545,30.636200 104.466393,30.236259 104.327866,29.503990 
z"/>
<path fill="#81878E" opacity="1.000000" stroke="none" 
	d="
M142.945908,38.975903 
	C142.210205,38.982361 141.474503,38.988819 139.954849,38.997711 
	C137.785919,39.004646 136.400925,39.009148 135.015945,39.013653 
	C132.611938,39.336857 130.207947,39.660057 127.245758,39.689583 
	C125.454758,38.288612 124.221947,37.181316 123.416969,36.041420 
	C126.236824,35.729637 128.628845,35.450455 131.039093,35.166744 
	C131.057327,35.162216 131.095505,35.159290 131.095505,35.159294 
	C134.070068,35.144413 137.044617,35.129532 140.453918,35.198845 
	C141.694565,35.547798 142.500473,35.812553 143.634644,36.127186 
	C143.971680,36.574780 143.980453,36.972496 143.770660,37.784847 
	C143.278854,38.402710 143.076782,38.661518 142.945908,38.975903 
z"/>
<path fill="#4D5051" opacity="1.000000" stroke="none" 
	d="
M127.208099,31.589502 
	C127.914749,31.078131 128.621399,30.566759 129.665039,30.028023 
	C132.482208,29.830824 134.962387,29.660992 137.442551,29.491161 
	C137.576904,30.169804 137.711258,30.848446 137.845627,31.527088 
	C135.616837,32.480045 133.388046,33.432999 131.127380,34.772621 
	C131.095505,35.159290 131.057327,35.162216 130.765778,34.926308 
	C129.385513,33.656769 128.296799,32.623135 127.208099,31.589502 
z"/>
<path fill="#5B6062" opacity="1.000000" stroke="none" 
	d="
M126.834526,31.564468 
	C128.296799,32.623135 129.385513,33.656769 130.747528,34.930836 
	C128.628845,35.450455 126.236824,35.729637 122.950211,36.014786 
	C116.064537,36.035198 110.073456,36.049644 104.082375,36.064091 
	C104.178223,34.569611 104.274063,33.075127 104.613304,31.308392 
	C112.058113,31.203903 119.259537,31.371670 126.834526,31.564468 
z"/>
<path fill="#888E95" opacity="1.000000" stroke="none" 
	d="
M103.780807,36.309280 
	C110.073456,36.049644 116.064537,36.035198 122.522369,36.047382 
	C124.221947,37.181316 125.454758,38.288612 126.842064,39.696747 
	C125.583397,40.332546 124.170242,40.667511 121.943649,41.007122 
	C119.427269,40.997311 117.724304,40.982845 116.021347,40.968384 
	C111.855583,40.757935 107.689842,40.546886 103.524033,40.337341 
	C101.937637,40.257542 100.351074,40.181168 98.380371,39.695786 
	C97.994209,38.588329 97.992264,37.888332 97.990318,37.188332 
	C99.819962,36.977043 101.649597,36.765759 103.780807,36.309280 
z"/>
<path fill="#8C939C" opacity="1.000000" stroke="none" 
	d="
M97.641602,37.126221 
	C97.992264,37.888332 97.994209,38.588329 97.997177,39.638359 
	C92.088181,40.196327 86.179298,40.463078 80.267471,40.576660 
	C78.474350,40.611111 76.673096,40.222172 74.435066,40.007324 
	C73.998566,39.248119 74.002563,38.508743 74.012474,37.400429 
	C74.764671,37.023296 75.510963,37.015099 76.630875,37.010578 
	C80.009308,37.285229 83.013893,37.762924 86.019005,37.766262 
	C88.761902,37.769306 91.505371,37.258461 94.712509,36.958427 
	C95.881912,36.983200 96.587402,37.023655 97.641602,37.126221 
z"/>
<path fill="#989EA0" opacity="1.000000" stroke="none" 
	d="
M71.001999,35.002598 
	C71.091148,34.968025 71.178307,34.930855 71.130142,34.944855 
	C70.994820,34.996025 71.000000,35.000000 71.001999,35.002598 
z"/>
<path fill="#71777F" opacity="1.000000" stroke="none" 
	d="
M142.967194,39.264877 
	C143.076782,38.661518 143.278854,38.402710 143.772476,38.084198 
	C143.996887,38.424515 144.000916,38.880116 144.007141,39.677494 
	C144.009338,40.019272 143.521317,40.056965 143.279556,40.094120 
	C143.021378,39.938805 143.004944,39.746330 142.967194,39.264877 
z"/>
<path fill="#7A8189" opacity="1.000000" stroke="none" 
	d="
M58.868477,48.776287 
	C57.906342,49.367996 56.790848,49.641823 55.312340,49.850029 
	C55.230373,46.575710 56.493584,46.156284 58.868477,48.776287 
z"/>
<path fill="#8A919A" opacity="1.000000" stroke="none" 
	d="
M121.966301,41.956844 
	C123.712204,41.956844 125.458107,41.956844 127.204010,41.956844 
	C127.311584,42.495842 127.419167,43.034840 127.526749,43.573833 
	C126.092529,44.048645 124.675270,44.862461 123.220940,44.935207 
	C118.714905,45.160587 114.191391,45.032158 109.684242,45.244514 
	C109.095306,45.272259 108.562363,46.488373 107.981537,47.524338 
	C104.948486,47.931259 101.937378,47.967899 98.472198,47.560806 
	C97.996559,45.727737 97.974983,44.338413 97.953407,42.949085 
	C103.649689,42.619644 109.345970,42.290203 115.937119,41.968540 
	C118.543419,41.969826 120.254860,41.963333 121.966301,41.956844 
z"/>
<path fill="#7A8189" opacity="1.000000" stroke="none" 
	d="
M97.603516,43.014587 
	C97.974983,44.338413 97.996559,45.727737 98.020966,47.530659 
	C97.268127,47.986244 96.512444,48.028236 95.379776,48.102196 
	C95.753075,46.449474 96.503349,44.764782 97.603516,43.014587 
z"/>
<path fill="#6E7277" opacity="1.000000" stroke="none" 
	d="
M121.976562,41.722576 
	C120.254860,41.963333 118.543419,41.969826 116.402817,41.948280 
	C115.973663,41.920238 115.998215,41.444698 116.009781,41.206543 
	C117.724304,40.982845 119.427269,40.997311 121.555412,41.015572 
	C121.980598,41.019371 121.986816,41.488308 121.976562,41.722576 
z"/>
<path fill="#71777F" opacity="1.000000" stroke="none" 
	d="
M135.078705,39.372662 
	C136.400925,39.009148 137.785919,39.004646 139.586975,38.999077 
	C138.805984,42.048740 137.060242,41.463516 135.078705,39.372662 
z"/>
<path fill="#303437" opacity="1.000000" stroke="none" 
	d="
M142.620239,62.176113 
	C142.821365,62.211945 142.870651,62.470238 142.877731,62.599739 
	C141.859375,63.141975 140.833939,63.554714 139.452133,63.930695 
	C139.833496,63.286068 140.571213,62.678196 141.661209,62.080872 
	C142.013474,62.091419 142.419113,62.140282 142.620239,62.176113 
z"/>
<path fill="#6C6C6C" opacity="1.000000" stroke="none" 
	d="
M30.963432,65.690399 
	C30.790527,65.994965 30.580326,65.991028 30.054005,65.951691 
	C29.949125,65.635292 30.160366,65.354301 30.588593,64.922775 
	C30.845766,64.975449 30.885950,65.178680 30.963432,65.690399 
z"/>
</svg>