<svg version="1.1" id="Layer_1" xmlns="http://www.w3.org/2000/svg" xmlns:xlink="http://www.w3.org/1999/xlink" x="0px" y="0px"
	 width="100%" viewBox="0 0 180 72" enable-background="new 0 0 180 72" xml:space="preserve">
<path fill="#FBFAFA" opacity="1.000000" stroke="none" 
	d="
M46.000000,73.000000 
	C31.018143,73.000000 16.036287,73.000000 1.027215,73.000000 
	C1.027215,49.047199 1.027215,25.094358 1.027215,1.070759 
	C60.880184,1.070759 120.760475,1.070759 181.000000,1.070759 
	C181.000000,22.352884 181.000000,43.707783 180.607391,65.492538 
	C177.477753,65.906395 174.740723,65.890396 171.608887,65.896057 
	C170.189621,65.702332 169.165192,65.486938 168.029724,65.055901 
	C167.277237,64.905205 166.635773,64.970161 165.594635,65.052216 
	C164.414856,65.178085 163.634720,65.286865 162.482620,65.312683 
	C160.764359,64.813995 159.418076,64.398285 158.166351,63.854630 
	C158.260895,63.726696 158.158707,63.425385 158.456635,63.239082 
	C159.856339,62.025543 160.958115,60.998302 162.380035,60.149498 
	C170.432297,60.975918 175.018707,58.321709 177.263702,51.815796 
	C177.802444,48.977409 178.406433,46.192501 174.378799,45.651829 
	C174.462814,44.271049 174.574997,43.209877 174.860458,41.698532 
	C175.003876,37.829643 175.244598,34.378819 174.844208,31.004061 
	C174.598022,28.928957 173.371780,26.970129 172.511047,24.588083 
	C168.660645,21.439594 164.884811,18.662115 161.017471,15.644302 
	C160.635834,15.231266 160.345703,15.058560 160.111557,14.555693 
	C161.121231,13.605200 162.074905,12.984867 163.028595,12.364535 
	C162.991043,11.948941 162.953476,11.533346 162.915924,11.117752 
	C154.304779,10.362736 145.693619,9.607718 136.926743,8.635242 
	C136.132996,8.473067 135.494965,8.528352 134.495392,8.609581 
	C133.167908,8.622381 132.201981,8.609238 131.197037,8.411285 
	C131.158035,8.226478 130.896317,7.953247 130.785126,7.584972 
	C130.137787,6.894125 129.603989,6.294607 129.065170,6.290063 
	C119.245163,6.207250 109.424126,6.151967 99.604744,6.243846 
	C98.716141,6.252161 97.837326,7.306152 96.527771,7.888342 
	C86.440292,9.078521 77.116951,11.265668 68.620743,17.021145 
	C63.541481,20.055595 58.823524,23.060469 54.074348,26.015162 
	C52.992653,26.688137 51.850731,27.550934 50.655270,27.708040 
	C42.715893,28.751429 34.693707,29.287621 26.825205,30.696598 
	C22.768417,31.423031 18.972185,33.604527 14.705370,35.166092 
	C9.185665,38.628796 7.671157,44.183987 9.881786,52.163628 
	C9.952504,52.594254 9.939207,52.771637 9.952454,52.961754 
	C9.978997,52.974495 9.955604,52.926075 9.699228,53.010399 
	C9.611716,53.441250 9.780580,53.787773 9.956641,54.452141 
	C10.041803,55.182091 10.119766,55.594200 10.115709,56.347389 
	C10.195475,57.509995 10.216888,58.985447 10.540123,59.054832 
	C15.295114,60.075516 20.090269,60.909081 25.099457,61.858978 
	C25.323032,61.930855 25.784441,61.843040 26.023066,62.016094 
	C27.149416,62.591751 28.037142,62.994354 28.830978,63.547482 
	C28.737087,63.698006 28.960232,63.973862 28.804405,64.275787 
	C27.783150,64.835785 26.917717,65.093864 25.654648,65.233429 
	C22.820253,65.379616 20.383499,65.644310 17.546000,65.793625 
	C15.763474,65.783600 14.381693,65.888954 12.763654,65.726173 
	C9.744438,65.958611 6.961481,66.459175 4.178523,66.959747 
	C4.207922,67.671082 4.237321,68.382408 4.266721,69.093742 
	C7.823432,69.518135 10.974986,72.201515 15.403973,69.992805 
	C16.593597,69.840538 17.379063,69.711357 18.593039,69.676636 
	C21.363142,69.751862 23.704733,69.732635 26.356161,69.834572 
	C27.101931,69.912445 27.537865,69.869156 28.329704,69.995529 
	C29.458065,70.104462 30.230522,70.043724 31.456133,70.101608 
	C36.598862,70.321632 41.288433,70.423027 45.955894,70.834183 
	C45.955853,71.762642 45.977928,72.381317 46.000000,73.000000 
z"/>
<path fill="#D7D7D7" opacity="1.000000" stroke="none" 
	d="
M46.468658,73.000000 
	C45.977928,72.381317 45.955853,71.762642 46.320488,70.694199 
	C47.473320,70.119621 48.239445,69.994804 49.468056,69.949104 
	C79.286057,69.987503 108.641571,69.946785 138.382568,70.022835 
	C140.315536,69.442307 141.863007,68.745010 143.410065,68.046501 
	C143.409653,68.045288 143.424957,68.039261 143.659943,68.413483 
	C145.422928,68.539528 146.950943,68.291367 148.539658,68.163406 
	C148.600372,68.283615 148.862366,68.221169 149.164917,68.278679 
	C149.865524,68.262245 150.263580,68.188301 150.858749,68.492813 
	C155.643677,69.121994 160.231476,69.372726 165.211517,69.762619 
	C166.425400,70.016304 167.247025,70.130829 168.052246,70.590073 
	C168.023895,71.623184 168.011948,72.311592 168.000000,73.000000 
	C162.311966,73.000000 156.623917,73.000000 150.409302,72.636353 
	C147.725739,70.929245 145.593399,69.784958 144.000000,73.000000 
	C111.645775,73.000000 79.291542,73.000000 46.468658,73.000000 
z"/>
<path fill="#D7D7D7" opacity="1.000000" stroke="none" 
	d="
M172.003693,65.874397 
	C174.740723,65.890396 177.477753,65.906395 180.607391,65.961197 
	C181.000000,67.066673 181.000000,68.133339 180.606537,69.645294 
	C177.475540,70.069023 174.737976,70.047462 172.214722,69.780838 
	C173.226883,69.131615 174.024719,68.727448 175.125381,68.169891 
	C173.794159,67.190994 172.898926,66.532692 172.003693,65.874397 
z"/>
<path fill="#FBFAFA" opacity="1.000000" stroke="none" 
	d="
M172.000427,70.025902 
	C174.737976,70.047462 177.475540,70.069023 180.606537,70.045288 
	C181.000000,70.970757 181.000000,71.941505 181.000000,73.000000 
	C176.984680,73.000000 172.969009,73.000000 168.476654,73.000000 
	C168.011948,72.311592 168.023895,71.623184 168.439621,70.511047 
	C169.895737,70.066856 170.948090,70.046379 172.000427,70.025902 
z"/>
<path fill="#FBFAFA" opacity="1.000000" stroke="none" 
	d="
M144.428467,73.000000 
	C145.593399,69.784958 147.725739,70.929245 149.941360,72.636353 
	C148.285645,73.000000 146.571289,73.000000 144.428467,73.000000 
z"/>
<path fill="#D7645E" opacity="1.000000" stroke="none" 
	d="
M15.058220,35.128555 
	C18.972185,33.604527 22.768417,31.423031 26.825205,30.696598 
	C34.693707,29.287621 42.715893,28.751429 50.655270,27.708040 
	C51.850731,27.550934 52.992653,26.688137 54.074348,26.015162 
	C58.823524,23.060469 63.541481,20.055595 68.630493,17.415421 
	C69.006271,18.550926 69.022324,19.339926 68.974457,20.344688 
	C68.763039,20.841034 68.539513,21.033253 67.948128,21.099026 
	C67.141792,21.276882 66.627304,21.492823 65.729538,21.747992 
	C64.225632,22.690044 63.105003,23.592865 61.779400,24.696541 
	C61.670113,26.023029 57.885288,26.287891 60.929688,28.289139 
	C60.985424,28.523037 61.012756,29.003151 60.965714,29.312737 
	C60.277012,30.406948 59.635349,31.191572 58.724712,32.094116 
	C57.952457,32.791088 57.449173,33.370140 56.584045,33.955452 
	C55.498459,33.970024 54.774708,33.978340 53.813923,33.699577 
	C46.764771,33.022663 39.952652,32.632824 33.140537,32.242985 
	C33.120808,32.832161 33.101074,33.421333 33.081345,34.010509 
	C36.374561,34.010509 39.667778,34.010509 42.964481,34.365143 
	C42.935989,35.423546 42.904011,36.127319 42.422035,36.856789 
	C35.530754,37.121590 29.089470,37.360699 22.036266,37.622524 
	C22.131666,37.391064 21.747129,38.324036 21.303349,39.400742 
	C20.372131,38.404678 19.709957,37.696396 18.832443,36.969048 
	C18.617102,36.949989 18.184860,36.960323 17.968559,36.677925 
	C16.845552,36.216789 15.938849,36.038048 15.029892,35.676304 
	C15.027638,35.493301 15.058220,35.128551 15.058220,35.128555 
z"/>
<path fill="#D05952" opacity="1.000000" stroke="none" 
	d="
M69.038376,20.128925 
	C69.022324,19.339926 69.006271,18.550926 68.980469,17.367647 
	C77.116951,11.265668 86.440292,9.078521 96.958191,7.962167 
	C103.546997,8.369776 109.279182,8.717362 115.010727,9.331947 
	C115.015327,9.777062 115.020576,9.955178 114.757050,10.415401 
	C106.652435,11.136611 98.795502,11.351035 90.987267,12.084088 
	C84.438019,12.698944 77.702187,13.284161 72.628723,18.966663 
	C71.197754,19.386576 70.118065,19.757751 69.038376,20.128925 
z"/>
<path fill="#862922" opacity="1.000000" stroke="none" 
	d="
M174.687195,42.148705 
	C174.574997,43.209877 174.462814,44.271049 174.182129,45.570282 
	C174.013611,45.808338 173.596512,45.894543 173.278244,45.931934 
	C172.434372,46.430141 171.908783,46.890957 171.383179,47.351772 
	C172.602768,47.910198 173.822342,48.468624 175.027634,49.412720 
	C174.948975,50.569435 174.884613,51.340469 174.437042,52.169067 
	C170.331528,52.850594 166.609192,53.474564 162.637360,53.823391 
	C160.926422,50.031181 159.464996,46.514111 158.369766,42.975906 
	C160.532776,43.136864 162.643402,42.781910 164.062241,43.610931 
	C167.181137,45.433292 168.871582,44.436531 170.536285,41.624893 
	C171.553894,41.759621 172.231705,41.854530 173.105499,41.990837 
	C173.301483,42.032230 173.697281,42.094048 173.942581,42.147129 
	C174.354324,42.183041 174.520767,42.165874 174.687195,42.148705 
z"/>
<path fill="#B84A44" opacity="1.000000" stroke="none" 
	d="
M137.082474,8.852702 
	C145.693619,9.607718 154.304779,10.362736 162.915924,11.117752 
	C162.953476,11.533346 162.991043,11.948941 163.028595,12.364535 
	C162.074905,12.984867 161.121231,13.605200 160.079010,14.848351 
	C159.948990,15.662166 159.907532,15.853160 159.523285,15.985344 
	C155.898682,14.462072 153.364929,10.235033 148.526932,13.050470 
	C145.723740,12.979497 143.292908,13.000724 140.475220,13.020866 
	C138.803970,13.027194 137.519577,13.034605 135.926971,13.005369 
	C135.411850,12.971602 135.204941,12.974481 134.996994,12.991365 
	C134.995956,13.005371 135.023743,13.001158 134.882843,12.733513 
	C134.163269,12.375546 133.584625,12.285224 132.589203,12.149704 
	C130.109146,11.744309 128.045868,11.384112 126.084442,10.772904 
	C126.454399,10.053364 126.722496,9.584835 127.418365,9.072010 
	C128.976105,8.883842 130.106079,8.739968 131.236038,8.596094 
	C132.201981,8.609238 133.167908,8.622381 134.849945,8.747599 
	C136.071518,8.857348 136.576996,8.855025 137.082474,8.852702 
z"/>
<path fill="#1F1F1F" opacity="1.000000" stroke="none" 
	d="
M49.005569,69.869995 
	C48.239445,69.994804 47.473320,70.119621 46.342602,70.384430 
	C41.288433,70.423027 36.598862,70.321632 31.418003,69.773956 
	C29.942413,69.493736 28.958107,69.659805 27.973799,69.825867 
	C27.537865,69.869156 27.101931,69.912445 26.372564,69.471100 
	C26.070183,67.774948 26.061235,66.563446 26.052286,65.351936 
	C26.917717,65.093864 27.783150,64.835785 29.097914,64.371964 
	C30.371115,64.765953 31.194983,65.365692 32.238991,66.249023 
	C35.622055,67.297745 38.544067,70.106339 42.289711,67.791763 
	C42.996738,67.604836 43.498791,67.293579 44.314049,66.909454 
	C45.467339,65.891838 46.307419,64.947098 47.446663,63.855556 
	C49.792599,61.900902 52.134674,60.201710 50.592762,56.961990 
	C52.578827,57.310493 54.208233,57.638916 55.912926,58.274826 
	C56.331493,59.085876 56.674774,59.589439 56.888691,60.353310 
	C56.485451,61.124355 56.211578,61.635098 55.590981,62.108368 
	C54.201374,62.701176 53.158501,63.331448 51.822548,64.153786 
	C50.688168,66.187233 49.846867,68.028610 49.005569,69.869995 
z"/>
<path fill="#A55855" opacity="1.000000" stroke="none" 
	d="
M14.705369,35.166092 
	C15.058220,35.128551 15.027638,35.493301 14.997320,35.954567 
	C14.967670,36.601952 14.968340,36.788071 14.811157,37.023952 
	C14.775926,37.057854 14.898545,37.041985 15.415404,37.025414 
	C16.601381,37.003242 17.393122,36.981785 18.184860,36.960327 
	C18.184860,36.960323 18.617102,36.949989 18.797302,37.367191 
	C19.288256,39.822289 19.599009,41.860184 19.665432,44.092480 
	C18.578985,45.189117 17.736868,46.091354 16.548691,47.017208 
	C14.751752,47.665295 13.300871,48.289764 11.636543,48.936584 
	C11.423098,48.958927 11.019814,49.105885 10.758810,49.220619 
	C10.374781,49.866112 10.251756,50.396873 10.045613,51.173191 
	C9.907587,51.582626 9.852678,51.746506 9.797770,51.910381 
	C7.671157,44.183987 9.185665,38.628796 14.705369,35.166092 
z"/>
<path fill="#ABA2A6" opacity="1.000000" stroke="none" 
	d="
M115.011368,9.064949 
	C109.279182,8.717362 103.546997,8.369776 97.384384,7.948364 
	C97.837326,7.306152 98.716141,6.252161 99.604744,6.243846 
	C109.424126,6.151967 119.245163,6.207250 129.065170,6.290063 
	C129.603989,6.294607 130.137787,6.894125 130.384186,7.577884 
	C128.055817,8.240357 126.017181,8.541645 123.535797,8.914215 
	C120.399162,9.011982 117.705261,9.038465 115.011368,9.064949 
z"/>
<path fill="#C2736F" opacity="1.000000" stroke="none" 
	d="
M174.860474,41.698532 
	C174.520767,42.165874 174.354324,42.183041 173.957306,41.959343 
	C173.454315,41.795464 173.181915,41.872448 172.909515,41.949436 
	C172.231705,41.854530 171.553894,41.759621 170.517609,41.251503 
	C169.050522,38.152046 171.136887,33.894135 166.344055,32.722939 
	C166.671936,31.643631 166.975037,30.873774 167.648163,30.087349 
	C169.386917,29.976255 170.755630,29.881727 171.933090,29.800409 
	C171.316162,28.118082 170.781616,26.660360 170.637604,25.171692 
	C171.547287,25.080191 172.066452,25.019638 172.585602,24.959089 
	C173.371780,26.970129 174.598022,28.928957 174.844208,31.004061 
	C175.244598,34.378819 175.003876,37.829643 174.860474,41.698532 
z"/>
<path fill="#4F2422" opacity="1.000000" stroke="none" 
	d="
M162.886871,54.098530 
	C166.609192,53.474564 170.331528,52.850594 174.801804,52.180836 
	C176.032486,52.107906 176.515198,52.080769 176.997925,52.053635 
	C175.018707,58.321709 170.432297,60.975918 162.366089,59.951096 
	C162.032013,59.574249 162.008148,59.177441 162.262787,58.889519 
	C162.640579,57.100574 162.763733,55.599552 162.886871,54.098530 
z"/>
<path fill="#393A3C" opacity="1.000000" stroke="none" 
	d="
M25.784443,61.843040 
	C25.784441,61.843040 25.323032,61.930855 25.136732,61.449471 
	C24.643124,59.680511 24.335814,58.392941 24.292862,56.859024 
	C26.368866,53.405285 28.180511,50.197880 30.222679,47.258774 
	C32.301628,47.353691 34.150055,47.180317 36.289200,47.133324 
	C37.370438,47.522160 38.160946,47.784615 38.951935,48.269188 
	C38.952408,48.491306 38.958378,48.935505 38.607861,48.955952 
	C35.120731,47.545345 35.760738,51.468739 33.636177,51.976334 
	C32.280212,52.788773 29.127558,49.957714 29.610588,54.025055 
	C28.862593,56.410942 28.489599,58.686653 27.809755,60.882118 
	C26.930084,61.148922 26.357264,61.495983 25.784443,61.843040 
z"/>
<path fill="#392D2E" opacity="1.000000" stroke="none" 
	d="
M24.028503,57.105366 
	C24.335814,58.392941 24.643124,59.680511 24.913158,61.377594 
	C20.090269,60.909081 15.295114,60.075516 10.540123,59.054832 
	C10.216888,58.985447 10.195475,57.509995 10.501420,56.345306 
	C12.262098,56.013763 13.555046,56.025379 15.074268,56.283272 
	C17.857237,56.683735 20.413935,56.837914 23.236027,57.011738 
	C23.677118,57.056046 23.852812,57.080704 24.028503,57.105366 
z"/>
<path fill="#403F42" opacity="1.000000" stroke="none" 
	d="
M162.008148,59.177437 
	C162.008148,59.177441 162.032013,59.574249 162.045959,59.772652 
	C160.958115,60.998302 159.856339,62.025543 158.396545,62.819183 
	C157.371201,60.404411 156.703888,58.223240 156.027115,55.664871 
	C155.289703,54.445511 154.561752,53.603355 153.848206,52.478210 
	C153.572052,51.728165 153.281509,51.261101 152.992386,50.441807 
	C152.989044,49.385136 152.984283,48.680695 153.176117,47.720840 
	C153.989822,47.288139 154.606934,47.110859 155.562546,46.997185 
	C157.936768,51.099670 159.972458,55.138554 162.008148,59.177437 
z"/>
<path fill="#343434" opacity="1.000000" stroke="none" 
	d="
M164.819275,69.623444 
	C160.231476,69.372726 155.643677,69.121994 151.145599,68.389053 
	C151.466003,67.583153 151.696701,67.259468 152.208511,66.803757 
	C153.039185,65.807228 153.588745,64.942719 154.530930,64.048126 
	C155.972977,64.006210 157.022385,63.994389 158.071793,63.982567 
	C159.418076,64.398285 160.764359,64.813995 162.567017,65.615906 
	C163.622009,67.209213 164.220642,68.416328 164.819275,69.623444 
z"/>
<path fill="#D7D7D7" opacity="1.000000" stroke="none" 
	d="
M14.999814,70.015892 
	C10.974986,72.201515 7.823432,69.518135 4.266721,69.093742 
	C4.237321,68.382408 4.207922,67.671082 4.178523,66.959747 
	C6.961481,66.459175 9.744438,65.958611 12.569826,65.992798 
	C9.196754,70.572746 15.069306,68.260834 14.999814,70.015892 
z"/>
<path fill="#737373" opacity="1.000000" stroke="none" 
	d="
M165.211517,69.762611 
	C164.220642,68.416328 163.622009,67.209213 162.938995,65.698868 
	C163.634720,65.286865 164.414856,65.178085 165.821335,65.246216 
	C167.012039,65.372604 167.576401,65.322075 168.140747,65.271545 
	C169.165192,65.486938 170.189621,65.702332 171.608887,65.896057 
	C172.898926,66.532692 173.794159,67.190994 175.125381,68.169891 
	C174.024719,68.727448 173.226883,69.131615 172.214722,69.780838 
	C170.948090,70.046379 169.895737,70.066856 168.456024,70.166344 
	C167.247025,70.130829 166.425400,70.016304 165.211517,69.762611 
z"/>
<path fill="#3B3B3B" opacity="1.000000" stroke="none" 
	d="
M25.654648,65.233429 
	C26.061235,66.563446 26.070183,67.774948 26.062729,69.349930 
	C23.704733,69.732635 21.363142,69.751862 18.556263,69.309204 
	C18.042898,67.867882 17.994822,66.888443 17.946743,65.909004 
	C20.383499,65.644310 22.820253,65.379616 25.654648,65.233429 
z"/>
<path fill="#766060" opacity="1.000000" stroke="none" 
	d="
M172.511047,24.588081 
	C172.066452,25.019638 171.547287,25.080191 170.321014,25.012802 
	C168.357819,23.978037 167.101730,23.071213 165.583344,21.961819 
	C163.817581,19.903582 162.314117,18.047916 160.885605,16.115707 
	C160.960556,16.039165 161.108978,15.884631 161.108978,15.884633 
	C164.884811,18.662115 168.660645,21.439594 172.511047,24.588081 
z"/>
<path fill="#392D2E" opacity="1.000000" stroke="none" 
	d="
M9.881786,52.163628 
	C9.852678,51.746506 9.907587,51.582626 10.263188,51.019421 
	C10.715858,50.115356 10.867836,49.610619 11.019814,49.105885 
	C11.019814,49.105885 11.423098,48.958927 12.036245,48.969036 
	C14.422579,48.656559 16.195765,48.333973 18.001205,48.398979 
	C18.058071,49.823765 18.082685,50.860954 17.924318,52.152782 
	C17.166159,52.605591 16.590982,52.803761 15.763582,53.003464 
	C15.343210,53.005730 15.175060,53.006470 14.584897,53.002865 
	C12.750560,52.982021 11.338235,52.965519 9.925911,52.949017 
	C9.939207,52.771637 9.952504,52.594254 9.881786,52.163628 
z"/>
<path fill="#515252" opacity="1.000000" stroke="none" 
	d="
M158.166351,63.854630 
	C157.022385,63.994389 155.972977,64.006210 154.500793,63.673897 
	C153.718292,62.147949 153.358566,60.966145 153.166519,59.575863 
	C153.246994,58.228489 153.159760,57.089596 153.441559,55.970261 
	C154.552567,56.007240 155.294571,56.024654 156.036560,56.042068 
	C156.703888,58.223240 157.371201,60.404411 158.098602,63.005482 
	C158.158707,63.425385 158.260895,63.726696 158.166351,63.854630 
z"/>
<path fill="#5F6160" opacity="1.000000" stroke="none" 
	d="
M28.116608,60.962368 
	C28.489599,58.686653 28.862593,56.410942 29.606781,54.401661 
	C29.968233,55.416233 29.958492,56.164368 29.951061,57.188599 
	C29.964838,57.647858 29.976305,57.831017 29.977367,58.373322 
	C29.969694,59.450718 29.972424,60.168968 30.060833,61.247894 
	C31.097090,61.725163 32.047665,61.841759 32.991470,62.365795 
	C32.977032,63.321964 32.969357,63.870701 32.795204,64.578773 
	C32.425438,65.147217 32.222145,65.556320 32.018852,65.965431 
	C31.194983,65.365692 30.371115,64.765953 29.253738,64.070038 
	C28.960232,63.973862 28.737087,63.698006 28.831730,63.208633 
	C28.656452,62.133633 28.386530,61.548000 28.116608,60.962368 
z"/>
<path fill="#797979" opacity="1.000000" stroke="none" 
	d="
M17.546000,65.793625 
	C17.994822,66.888443 18.042898,67.867882 18.127750,69.214752 
	C17.379063,69.711357 16.593597,69.840538 15.403973,69.992805 
	C15.069306,68.260834 9.196754,70.572746 12.806085,66.260925 
	C14.381693,65.888954 15.763474,65.783600 17.546000,65.793625 
z"/>
<path fill="#C2736F" opacity="1.000000" stroke="none" 
	d="
M177.263702,51.815800 
	C176.515198,52.080769 176.032486,52.107906 175.184998,52.123276 
	C174.884613,51.340469 174.948975,50.569435 174.930084,49.080963 
	C174.430054,47.540531 174.013290,46.717537 173.596512,45.894539 
	C173.596512,45.894543 174.013611,45.808338 174.210297,45.889885 
	C178.406433,46.192501 177.802444,48.977409 177.263702,51.815800 
z"/>
<path fill="#462F2C" opacity="1.000000" stroke="none" 
	d="
M9.952454,52.961754 
	C11.338235,52.965519 12.750560,52.982021 14.561824,53.381008 
	C14.923174,54.521332 14.885584,55.279163 14.847994,56.036995 
	C13.555046,56.025379 12.262098,56.013763 10.583439,56.004227 
	C10.119766,55.594200 10.041803,55.182091 9.972033,54.150112 
	C9.972017,53.328857 9.963810,53.127468 9.955604,52.926075 
	C9.955604,52.926075 9.978997,52.974495 9.952454,52.961754 
z"/>
<path fill="#DCAAA2" opacity="1.000000" stroke="none" 
	d="
M123.978546,8.842932 
	C126.017181,8.541645 128.055817,8.240357 130.495392,7.946159 
	C130.896317,7.953247 131.158035,8.226478 131.197037,8.411286 
	C130.106079,8.739968 128.976105,8.883842 127.044846,9.011780 
	C125.488541,8.944874 124.733543,8.893902 123.978546,8.842932 
z"/>
<path fill="#392D2E" opacity="1.000000" stroke="none" 
	d="
M27.809757,60.882118 
	C28.386530,61.548000 28.656452,62.133633 28.925621,63.058113 
	C28.037142,62.994354 27.149416,62.591751 26.023067,62.016098 
	C26.357264,61.495983 26.930084,61.148922 27.809757,60.882118 
z"/>
<path fill="#3B3B3B" opacity="1.000000" stroke="none" 
	d="
M28.329704,69.995544 
	C28.958107,69.659805 29.942413,69.493736 30.964849,69.655327 
	C30.230522,70.043724 29.458065,70.104462 28.329704,69.995544 
z"/>
<path fill="#D7D7D7" opacity="1.000000" stroke="none" 
	d="
M168.029724,65.055908 
	C167.576401,65.322075 167.012039,65.372604 166.220993,65.229118 
	C166.635773,64.970161 167.277237,64.905205 168.029724,65.055908 
z"/>
<path fill="#DCAAA2" opacity="1.000000" stroke="none" 
	d="
M136.926743,8.635242 
	C136.576996,8.855025 136.071518,8.857348 135.211487,8.721655 
	C135.494965,8.528352 136.132996,8.473067 136.926743,8.635242 
z"/>
<path fill="#392D2E" opacity="1.000000" stroke="none" 
	d="
M9.699228,53.010399 
	C9.963810,53.127468 9.972017,53.328857 9.964832,53.832272 
	C9.780580,53.787773 9.611716,53.441250 9.699228,53.010399 
z"/>
<path fill="#766060" opacity="1.000000" stroke="none" 
	d="
M159.866089,16.044155 
	C159.907532,15.853160 159.948990,15.662166 160.023010,15.178513 
	C160.345703,15.058560 160.635834,15.231266 161.017471,15.644300 
	C161.108978,15.884631 160.960556,16.039165 160.650253,16.079500 
	C160.339951,16.119835 159.866089,16.044155 159.866089,16.044155 
z"/>
<path fill="#181818" opacity="1.000000" stroke="none" 
	d="
M49.468056,69.949112 
	C49.846867,68.028610 50.688168,66.187233 52.197441,64.343063 
	C53.621933,64.491188 54.378174,64.772522 55.135006,64.774117 
	C81.325920,64.829254 107.516884,64.857994 134.121765,64.923744 
	C135.365891,64.967484 136.196075,64.977974 137.330505,65.053490 
	C138.104523,65.741318 138.574310,66.364120 138.780365,67.181953 
	C138.343460,68.220016 138.170273,69.063042 137.997086,69.906067 
	C108.641571,69.946785 79.286057,69.987503 49.468056,69.949112 
z"/>
<path fill="#1D1E1D" opacity="1.000000" stroke="none" 
	d="
M138.382568,70.022835 
	C138.170273,69.063042 138.343460,68.220016 139.141449,67.194572 
	C140.489685,67.022209 141.213135,67.032257 142.136169,67.274101 
	C142.694000,67.686501 143.052246,67.867111 143.410477,68.047714 
	C141.863007,68.745010 140.315536,69.442307 138.382568,70.022835 
z"/>
<path fill="#757676" opacity="1.000000" stroke="none" 
	d="
M143.410065,68.046509 
	C143.052246,67.867111 142.694000,67.686501 142.297089,67.009460 
	C142.835266,66.319885 143.412125,66.126740 144.233521,65.966370 
	C144.478088,65.999146 144.970673,66.028915 144.985336,66.014458 
	C145.000000,66.000000 144.971161,66.029434 145.163452,66.289932 
	C146.196228,66.701454 147.036713,66.852478 148.154724,67.022537 
	C148.615845,67.015556 148.799469,66.989555 149.014755,67.027771 
	C149.046432,67.091988 149.118515,67.215736 149.068939,67.470779 
	C148.967026,67.890938 148.914688,68.056053 148.862366,68.221169 
	C148.862366,68.221169 148.600372,68.283615 148.031311,68.161316 
	C146.116470,68.039101 144.770721,68.039185 143.424957,68.039261 
	C143.424957,68.039261 143.409653,68.045288 143.410065,68.046509 
z"/>
<path fill="#4E4E4E" opacity="1.000000" stroke="none" 
	d="
M143.659943,68.413483 
	C144.770721,68.039185 146.116470,68.039101 147.970581,68.041107 
	C146.950943,68.291367 145.422928,68.539528 143.659943,68.413483 
z"/>
<path fill="#595A5C" opacity="1.000000" stroke="none" 
	d="
M149.164917,68.278679 
	C148.914688,68.056053 148.967026,67.890938 149.412582,67.382019 
	C150.513000,67.004074 151.220200,66.969933 151.927383,66.935791 
	C151.696701,67.259468 151.466003,67.583153 150.948471,68.010597 
	C150.263580,68.188301 149.865524,68.262245 149.164917,68.278679 
z"/>
<path fill="#A8332C" opacity="1.000000" stroke="none" 
	d="
M19.909763,43.898079 
	C19.599009,41.860184 19.288256,39.822289 19.012644,37.386253 
	C19.709957,37.696396 20.372131,38.404678 21.303349,39.400742 
	C21.747129,38.324036 22.131666,37.391064 22.036266,37.622524 
	C29.089470,37.360699 35.530754,37.121590 42.838692,36.915386 
	C45.275269,37.215103 47.285168,36.961792 48.331844,37.847172 
	C51.357319,40.406414 54.098331,39.519749 56.996716,38.009155 
	C56.989258,38.042480 56.987064,38.110744 56.993023,38.516441 
	C56.662571,40.949123 56.326157,42.976109 55.818245,44.691681 
	C53.444252,43.586998 51.241764,42.793716 48.715580,41.793053 
	C43.252655,41.336910 38.113422,41.088158 32.778507,40.615173 
	C31.697800,40.571945 30.812773,40.752945 29.509899,40.945877 
	C26.031290,41.937897 22.970526,42.917988 19.909763,43.898079 
z"/>
<path fill="#D44B43" opacity="1.000000" stroke="none" 
	d="
M58.993687,31.976196 
	C59.635349,31.191572 60.277012,30.406948 61.175175,29.330410 
	C61.431675,29.038494 61.852509,29.052385 62.052551,29.296333 
	C62.849068,29.689888 63.445541,29.839493 64.428711,30.032434 
	C69.905586,30.398092 74.995766,30.720411 80.268860,31.305729 
	C81.291870,31.698696 82.131966,31.828661 83.234543,31.977428 
	C83.671700,32.012726 83.846359,32.029221 83.996262,32.452774 
	C82.607971,33.572304 81.315140,34.553619 79.864548,34.935204 
	C77.602791,35.530167 75.233994,35.718231 72.508469,36.150883 
	C67.749176,36.539913 63.391968,36.856777 59.023453,36.740990 
	C59.005989,34.864288 58.999840,33.420242 58.993687,31.976196 
z"/>
<path fill="#D6D7D8" opacity="1.000000" stroke="none" 
	d="
M68.974457,20.344688 
	C70.118065,19.757751 71.197754,19.386576 73.064697,19.017731 
	C77.564598,18.360937 81.277252,17.701813 84.999771,17.407970 
	C85.413345,18.382599 85.788788,19.499260 86.225067,19.523554 
	C91.093605,19.794661 95.971542,19.897108 100.886597,20.356609 
	C100.923256,21.086922 100.920265,21.505644 100.751633,22.008286 
	C100.585991,22.092207 100.220726,22.159372 99.760193,22.097584 
	C95.531509,22.354639 91.763351,22.673483 87.537399,22.980251 
	C83.382622,23.348211 79.685638,23.728247 75.557388,24.039925 
	C73.096390,23.967922 71.066650,23.964275 68.905731,23.757847 
	C68.574577,23.292973 68.323982,23.094946 68.044754,22.655315 
	C68.124489,21.945465 68.182228,21.541288 68.239975,21.137110 
	C68.539513,21.033253 68.763039,20.841034 68.974457,20.344688 
z"/>
<path fill="#DA4A41" opacity="1.000000" stroke="none" 
	d="
M57.004173,37.975830 
	C54.098331,39.519749 51.357319,40.406414 48.331844,37.847172 
	C47.285168,36.961792 45.275269,37.215103 43.288689,36.889694 
	C42.904011,36.127319 42.935989,35.423546 43.427353,34.359428 
	C47.274811,33.994938 50.662884,33.990799 54.050961,33.986656 
	C54.774708,33.978340 55.498459,33.970024 56.602829,34.360001 
	C56.990356,35.830799 56.997265,36.903316 57.004173,37.975830 
z"/>
<path fill="#CA4741" opacity="1.000000" stroke="none" 
	d="
M53.813923,33.699577 
	C50.662884,33.990799 47.274811,33.994938 43.423866,34.004795 
	C39.667778,34.010509 36.374561,34.010509 33.081345,34.010509 
	C33.101074,33.421333 33.120808,32.832161 33.140537,32.242985 
	C39.952652,32.632824 46.764771,33.022663 53.813923,33.699577 
z"/>
<path fill="#342D2F" opacity="1.000000" stroke="none" 
	d="
M68.022766,22.960985 
	C68.323982,23.094946 68.574577,23.292973 68.882469,24.039953 
	C68.999260,24.713343 69.008125,24.901846 68.631180,25.083069 
	C66.937874,25.627081 65.630379,26.178371 63.990959,26.825693 
	C63.090191,27.277925 62.521336,27.634130 61.682453,27.999928 
	C61.232933,28.024763 61.053444,28.040003 60.873955,28.055243 
	C57.885288,26.287891 61.670113,26.023029 62.149479,24.621218 
	C64.140091,23.882292 65.555641,23.419542 67.233963,22.988979 
	C67.672066,23.001106 67.847412,22.981045 68.022766,22.960985 
z"/>
<path fill="#CA4741" opacity="1.000000" stroke="none" 
	d="
M56.996716,38.009155 
	C56.997265,36.903316 56.990356,35.830799 56.964668,34.353737 
	C57.449173,33.370140 57.952457,32.791088 58.724712,32.094116 
	C58.999840,33.420242 59.005989,34.864288 58.830940,36.956139 
	C58.095516,37.772877 57.541290,37.941811 56.987064,38.110744 
	C56.987064,38.110744 56.989258,38.042480 56.996716,38.009155 
z"/>
<path fill="#CDB3AB" opacity="1.000000" stroke="none" 
	d="
M66.971199,22.956795 
	C65.555641,23.419542 64.140091,23.882292 62.354454,24.420364 
	C63.105003,23.592865 64.225632,22.690044 65.900375,21.938232 
	C66.626732,22.378426 66.798965,22.667610 66.971199,22.956795 
z"/>
<path fill="#421919" opacity="1.000000" stroke="none" 
	d="
M60.929688,28.289139 
	C61.053444,28.040003 61.232933,28.024763 62.098907,28.008968 
	C63.892246,28.023460 64.999100,28.038504 65.915787,28.279476 
	C65.170982,28.684313 64.616341,28.863214 63.693760,29.040897 
	C62.834721,29.043915 62.343616,29.048149 61.852509,29.052385 
	C61.852509,29.052385 61.431675,29.038494 61.222214,29.020823 
	C61.012756,29.003151 60.985424,28.523037 60.929688,28.289139 
z"/>
<path fill="#877570" opacity="1.000000" stroke="none" 
	d="
M67.233963,22.988979 
	C66.798965,22.667610 66.626732,22.378426 66.283653,21.899002 
	C66.627304,21.492823 67.141792,21.276882 67.948128,21.099026 
	C68.182228,21.541288 68.124489,21.945465 68.044754,22.655315 
	C67.847412,22.981045 67.672066,23.001106 67.233963,22.988979 
z"/>
<path fill="#65615F" opacity="1.000000" stroke="none" 
	d="
M14.969010,36.974186 
	C14.968340,36.788071 14.967670,36.601952 14.999574,36.137573 
	C15.938849,36.038048 16.845552,36.216789 17.968559,36.677929 
	C17.393122,36.981785 16.601381,37.003242 15.403444,37.011463 
	C14.997246,36.998222 14.969010,36.974186 14.969010,36.974186 
z"/>
<path fill="#707172" opacity="1.000000" stroke="none" 
	d="
M84.989899,17.042688 
	C81.277252,17.701813 77.564598,18.360937 73.415970,18.968994 
	C77.702187,13.284161 84.438019,12.698944 90.987267,12.084088 
	C98.795502,11.351035 106.652435,11.136611 115.197205,10.362850 
	C119.264954,10.360102 122.623779,10.692009 125.982597,11.023916 
	C128.045868,11.384112 130.109146,11.744309 132.591827,12.346382 
	C133.011246,12.588257 133.027847,12.983465 132.661240,12.990685 
	C131.350769,13.236116 130.406906,13.474328 129.463043,13.712541 
	C129.689087,14.184919 129.915131,14.657299 130.141174,15.129678 
	C131.099976,14.411066 132.058792,13.692454 133.352676,12.986839 
	C134.133087,13.000278 134.578415,13.000717 135.023743,13.001158 
	C135.023743,13.001158 134.995956,13.005371 134.959290,13.375500 
	C134.945602,14.516082 134.968582,15.286534 134.696686,16.349478 
	C127.006798,16.759308 119.599388,16.676575 112.225426,17.133558 
	C110.363586,17.248941 108.608620,19.088732 106.497849,20.300045 
	C104.433197,20.950779 102.675232,21.437572 100.917267,21.924364 
	C100.920265,21.505644 100.923256,21.086922 100.968063,19.946404 
	C101.297722,16.679312 100.570892,14.795169 97.615814,15.142088 
	C93.391029,15.638068 89.197037,16.396395 84.989899,17.042688 
z"/>
<path fill="#CF473C" opacity="1.000000" stroke="none" 
	d="
M126.084442,10.772905 
	C122.623779,10.692009 119.264954,10.360102 115.465981,10.080746 
	C115.020576,9.955178 115.015327,9.777062 115.010727,9.331947 
	C117.705261,9.038465 120.399162,9.011982 123.535797,8.914215 
	C124.733543,8.893902 125.488541,8.944874 126.617065,9.056076 
	C126.722496,9.584835 126.454399,10.053364 126.084442,10.772905 
z"/>
<path fill="#B3352C" opacity="1.000000" stroke="none" 
	d="
M166.319290,33.032383 
	C171.136887,33.894135 169.050522,38.152046 170.177795,41.211689 
	C168.871582,44.436531 167.181137,45.433292 164.062241,43.610931 
	C162.643402,42.781910 160.532776,43.136864 158.367981,42.977325 
	C158.000000,42.999886 158.002838,42.995842 157.967560,42.657120 
	C156.289856,41.866711 154.647430,41.415020 152.550140,40.965340 
	C149.059021,40.956951 146.022797,40.946548 142.762726,40.677780 
	C140.024658,41.274761 137.510452,42.130116 134.621307,42.986973 
	C133.496613,42.978584 132.746872,42.968697 132.000610,42.616699 
	C132.658463,41.189278 133.312820,40.103962 134.301819,38.989410 
	C135.786560,38.334473 136.936691,37.708775 138.405579,37.068108 
	C139.150375,37.034798 139.576401,37.016464 140.236267,36.987617 
	C140.470093,36.977104 140.932236,36.902500 141.282227,36.914925 
	C142.098953,36.913109 142.565659,36.898865 143.487885,36.909050 
	C147.297409,36.926521 150.651459,36.919556 154.365723,36.982697 
	C156.829468,37.957253 158.660950,38.575417 159.525986,35.370762 
	C159.870193,34.095612 161.243774,33.098328 162.393982,32.085312 
	C163.865921,32.474850 165.092606,32.753616 166.319290,33.032383 
z"/>
<path fill="#1D110E" opacity="1.000000" stroke="none" 
	d="
M142.986572,40.936142 
	C146.022797,40.946548 149.059021,40.956951 152.753052,41.240238 
	C154.941513,42.007362 156.472183,42.501602 158.002838,42.995842 
	C158.002838,42.995842 158.000000,42.999886 158.001801,42.998463 
	C159.464996,46.514111 160.926422,50.031181 162.637360,53.823391 
	C162.763733,55.599552 162.640579,57.100574 162.262787,58.889519 
	C159.972458,55.138554 157.936768,51.099670 155.356750,46.696823 
	C150.472748,41.807739 145.179092,43.363888 139.727448,43.986217 
	C139.227356,43.938736 139.027420,43.918587 138.990860,43.601875 
	C140.431686,42.515591 141.709137,41.725868 142.986572,40.936142 
z"/>
<path fill="#B3352C" opacity="1.000000" stroke="none" 
	d="
M173.278244,45.931931 
	C174.013290,46.717537 174.430054,47.540531 174.944366,48.695286 
	C173.822342,48.468624 172.602768,47.910198 171.383179,47.351772 
	C171.908783,46.890957 172.434372,46.430141 173.278244,45.931931 
z"/>
<path fill="#B3352C" opacity="1.000000" stroke="none" 
	d="
M173.105499,41.990829 
	C173.181915,41.872448 173.454315,41.795464 173.712006,41.906265 
	C173.697281,42.094048 173.301483,42.032230 173.105499,41.990829 
z"/>
<path fill="#D74E47" opacity="1.000000" stroke="none" 
	d="
M159.523285,15.985344 
	C159.866089,16.044155 160.339951,16.119835 160.575302,16.156044 
	C162.314117,18.047916 163.817581,19.903582 165.615875,22.325481 
	C164.625900,23.605097 163.341064,24.318474 161.583008,25.019077 
	C156.648438,24.956270 152.187088,24.906237 147.809891,24.670681 
	C147.894028,24.485155 148.034195,24.102602 148.278214,24.100536 
	C148.522232,24.098471 149.002182,24.009933 149.374786,24.013948 
	C151.174011,23.698530 152.600616,23.379097 154.354462,23.010975 
	C154.544540,21.888157 154.407394,20.814024 154.129562,19.547802 
	C153.781631,19.109537 153.536423,18.910009 153.178528,18.441076 
	C152.063156,17.083355 151.022507,16.041685 149.989822,15.001059 
	C149.997803,15.002101 149.999451,15.018115 149.909225,14.759077 
	C149.512436,14.047583 149.205856,13.595128 148.899292,13.142672 
	C153.364929,10.235033 155.898682,14.462072 159.523285,15.985344 
z"/>
<path fill="#777B7D" opacity="1.000000" stroke="none" 
	d="
M136.235199,13.042015 
	C137.519577,13.034605 138.803970,13.027194 140.770966,13.288204 
	C144.302200,14.043788 147.150833,14.530951 149.999451,15.018115 
	C149.999451,15.018115 149.997803,15.002101 150.001404,15.315121 
	C150.382477,16.370018 150.759964,17.111893 150.660797,17.889595 
	C146.294846,17.959946 142.405533,17.994471 138.290924,17.815964 
	C137.455490,16.082626 136.845337,14.562321 136.235199,13.042015 
z"/>
<path fill="#443C3C" opacity="1.000000" stroke="none" 
	d="
M135.926971,13.005369 
	C136.845337,14.562321 137.455490,16.082626 138.422241,18.138233 
	C139.494019,19.521051 140.209167,20.368565 140.933655,21.575487 
	C140.978607,22.892958 141.014252,23.851021 140.624008,24.875839 
	C138.491318,24.931313 136.784515,24.920034 135.073303,24.593933 
	C135.075623,23.858044 135.082306,23.436981 135.384613,22.970339 
	C135.703873,22.254713 135.727539,21.584663 135.826324,20.549065 
	C135.598160,18.808006 135.294861,17.432497 134.991562,16.056988 
	C134.968582,15.286534 134.945602,14.516082 134.960327,13.361494 
	C135.204941,12.974481 135.411850,12.971602 135.926971,13.005369 
z"/>
<path fill="#724E4A" opacity="1.000000" stroke="none" 
	d="
M149.909225,14.759077 
	C147.150833,14.530951 144.302200,14.043788 141.157837,13.289288 
	C143.292908,13.000724 145.723740,12.979497 148.526932,13.050471 
	C149.205856,13.595128 149.512436,14.047583 149.909225,14.759077 
z"/>
<path fill="#443C3C" opacity="1.000000" stroke="none" 
	d="
M134.882843,12.733512 
	C134.578415,13.000717 134.133087,13.000278 133.343903,13.000179 
	C133.000061,13.000521 133.027847,12.983465 133.027847,12.983465 
	C133.027847,12.983465 133.011246,12.588257 133.008606,12.391580 
	C133.584625,12.285224 134.163269,12.375546 134.882843,12.733512 
z"/>
<path fill="#D8D8D8" opacity="1.000000" stroke="none" 
	d="
M133.707840,64.890503 
	C107.516884,64.857994 81.325920,64.829254 55.135006,64.774117 
	C54.378174,64.772522 53.621933,64.491188 52.490524,64.151001 
	C53.158501,63.331448 54.201374,62.701176 55.817741,62.412605 
	C58.825256,62.414791 61.255386,61.816730 63.693974,61.780003 
	C74.933083,61.610737 86.174561,61.597912 97.719345,61.618698 
	C100.573425,61.646324 103.123337,61.584240 106.035324,61.591984 
	C108.578445,61.569588 110.759491,61.477364 113.384842,61.435440 
	C114.099388,61.046738 114.369637,60.607735 114.746384,60.328609 
	C114.852882,60.488487 115.231026,60.562492 115.231026,60.562492 
	C115.231026,60.562492 115.548187,60.344254 115.660172,60.470642 
	C115.772163,60.597034 116.097794,60.686619 116.207352,61.070274 
	C118.225876,61.533943 120.134857,61.613949 122.144135,62.034187 
	C123.137817,62.114510 124.031189,61.854599 125.245209,61.601257 
	C125.992973,61.591949 126.420105,61.576077 127.126282,61.708572 
	C127.615875,61.864906 127.826416,61.872871 128.402466,62.017502 
	C129.806152,62.197712 130.844299,62.241257 132.018341,62.523048 
	C132.672104,63.471035 133.189972,64.180771 133.707840,64.890503 
z"/>
<path fill="#47484B" opacity="1.000000" stroke="none" 
	d="
M38.958374,48.935505 
	C38.958378,48.935505 38.952408,48.491306 39.265038,48.099762 
	C40.047256,46.241840 40.516842,44.775459 41.340652,43.291134 
	C47.406498,44.842091 50.182785,48.177494 48.683971,54.375378 
	C48.517101,55.065422 49.686443,56.078598 50.236103,56.941914 
	C52.134674,60.201710 49.792599,61.900902 47.073978,63.817070 
	C45.226315,63.606083 44.050495,63.286793 42.525826,62.987129 
	C41.437668,63.933155 40.698353,64.859550 39.927757,65.841492 
	C39.896477,65.897026 39.798187,65.978203 39.530548,66.003204 
	C39.085152,66.050949 38.907394,66.073685 38.555176,66.117035 
	C38.380714,66.137650 38.031769,66.096611 38.021145,65.702988 
	C38.746090,63.085194 39.481663,60.861031 40.161999,58.803883 
	C39.447411,57.886105 38.720509,56.952511 38.029671,55.670155 
	C38.363277,53.192764 38.660824,51.064133 38.958374,48.935505 
M42.582676,46.516167 
	C42.582676,46.516167 42.476658,46.578358 42.582676,46.516167 
z"/>
<path fill="#181310" opacity="1.000000" stroke="none" 
	d="
M50.592762,56.961990 
	C49.686443,56.078598 48.517101,55.065422 48.683971,54.375378 
	C50.182785,48.177494 47.406498,44.842091 40.991707,43.207237 
	C38.790985,43.605907 37.293430,44.070534 35.452457,44.652283 
	C33.403412,45.509762 31.697784,46.250118 29.992157,46.990479 
	C28.180511,50.197880 26.368866,53.405285 24.292862,56.859024 
	C23.852812,57.080704 23.677118,57.056046 23.248564,56.592674 
	C24.013269,52.451477 25.030836,48.748993 26.035461,45.022175 
	C26.022520,44.997845 26.032768,45.048031 26.256927,44.937836 
	C26.763071,44.620441 26.940582,44.345726 27.230576,43.899734 
	C27.719753,43.603844 27.907551,43.349400 28.251631,42.939949 
	C28.713972,42.589764 28.935602,42.332268 29.365467,42.053223 
	C29.573702,42.031673 29.975443,41.913738 30.319725,41.931259 
	C31.434067,41.578987 32.204128,41.209194 32.974190,40.839405 
	C38.113422,41.088158 43.252655,41.336910 48.852997,42.099491 
	C51.241478,46.727283 53.168858,50.841248 55.074787,55.280720 
	C55.370152,56.403042 55.686966,57.199852 55.963989,57.979439 
	C55.924202,57.962215 55.837639,57.967342 55.837639,57.967342 
	C54.208233,57.638916 52.578827,57.310493 50.592762,56.961990 
z"/>
<path fill="#151315" opacity="1.000000" stroke="none" 
	d="
M97.415184,61.528984 
	C86.174561,61.597912 74.933083,61.610737 63.693974,61.780003 
	C61.255386,61.816730 58.825256,62.414791 56.164471,62.450073 
	C56.211578,61.635098 56.485451,61.124355 57.274742,60.324799 
	C58.558304,59.946465 59.326447,59.856949 60.384903,59.809753 
	C61.067715,59.852268 61.460209,59.852459 62.288914,59.905769 
	C64.173561,59.941364 65.622009,59.923843 67.510338,59.913406 
	C77.281525,59.623486 86.612816,59.326477 96.136772,59.336311 
	C96.691345,60.271763 97.053268,60.900372 97.415184,61.528984 
z"/>
<path fill="#707072" opacity="1.000000" stroke="none" 
	d="
M38.031769,66.096611 
	C38.031769,66.096611 38.380714,66.137650 38.691780,66.267532 
	C39.267956,66.257668 39.533070,66.117935 39.798187,65.978203 
	C39.798187,65.978203 39.896477,65.897026 40.267853,65.821411 
	C41.092949,65.743561 41.546665,65.741333 42.037876,66.220467 
	C42.078495,67.023697 42.081619,67.345566 42.084740,67.667435 
	C38.544067,70.106339 35.622055,67.297745 32.238987,66.249023 
	C32.222145,65.556320 32.425438,65.147217 33.036087,64.426590 
	C33.628178,64.076614 33.812916,64.038162 34.224289,64.112411 
	C34.649025,64.494522 34.847126,64.763947 35.236191,65.307915 
	C36.295357,65.753853 37.163563,65.925232 38.031769,66.096611 
z"/>
<path fill="#4E201B" opacity="1.000000" stroke="none" 
	d="
M60.094593,59.767433 
	C59.326447,59.856949 58.558304,59.946465 57.404106,60.064487 
	C56.674774,59.589439 56.331493,59.085876 55.912926,58.274826 
	C55.837639,57.967342 55.924202,57.962215 56.305653,57.944782 
	C58.556618,57.182064 60.202991,56.849995 60.094593,59.767433 
z"/>
<path fill="#76777C" opacity="1.000000" stroke="none" 
	d="
M42.874676,62.967499 
	C44.050495,63.286793 45.226315,63.606083 46.774818,63.963860 
	C46.307419,64.947098 45.467339,65.891838 44.267853,66.589859 
	C43.520241,65.573318 43.132034,64.803505 42.802338,63.770317 
	C42.865456,63.327122 42.870064,63.147312 42.874676,62.967499 
z"/>
<path fill="#525253" opacity="1.000000" stroke="none" 
	d="
M42.743828,64.033699 
	C43.132034,64.803505 43.520241,65.573318 43.954643,66.662720 
	C43.498791,67.293579 42.996738,67.604836 42.289711,67.791763 
	C42.081619,67.345566 42.078495,67.023697 42.053780,65.979553 
	C42.269409,64.849411 42.506618,64.441559 42.743828,64.033699 
z"/>
<path fill="#8D2920" opacity="1.000000" stroke="none" 
	d="
M28.010921,43.032635 
	C27.907551,43.349400 27.719753,43.603844 27.002592,44.005096 
	C26.382690,44.492161 26.207727,44.770096 26.032768,45.048031 
	C26.032768,45.048031 26.022520,44.997845 25.687031,45.004852 
	C22.874329,45.698772 20.397114,46.385681 17.663334,47.056435 
	C17.236097,47.024719 17.065424,47.009155 16.894751,46.993591 
	C17.736868,46.091354 18.578985,45.189117 19.665432,44.092480 
	C22.970526,42.917988 26.031290,41.937897 29.527107,41.190914 
	C29.962164,41.424019 29.975443,41.913738 29.975443,41.913738 
	C29.975443,41.913738 29.573702,42.031673 29.108734,42.123165 
	C28.432816,42.487316 28.221869,42.759975 28.010921,43.032635 
z"/>
<path fill="#462F2C" opacity="1.000000" stroke="none" 
	d="
M16.548691,47.017208 
	C17.065424,47.009155 17.236097,47.024719 17.684208,47.290363 
	C17.961647,47.540443 17.968950,48.011383 17.968950,48.011383 
	C16.195765,48.333973 14.422579,48.656559 12.249691,48.946693 
	C13.300871,48.289764 14.751752,47.665295 16.548691,47.017208 
z"/>
<path fill="#462F2C" opacity="1.000000" stroke="none" 
	d="
M10.758809,49.220619 
	C10.867836,49.610619 10.715858,50.115356 10.346307,50.773861 
	C10.251756,50.396873 10.374781,49.866112 10.758809,49.220619 
z"/>
<path fill="#65615F" opacity="1.000000" stroke="none" 
	d="
M15.009206,37.012169 
	C14.898545,37.041985 14.775926,37.057854 14.811157,37.023952 
	C14.969010,36.974186 14.997246,36.998222 15.009206,37.012169 
z"/>
<path fill="#B63D34" opacity="1.000000" stroke="none" 
	d="
M162.056244,25.031853 
	C163.341064,24.318474 164.625900,23.605097 165.878189,22.528053 
	C167.101730,23.071213 168.357819,23.978037 169.930481,25.043751 
	C170.781616,26.660360 171.316162,28.118082 171.933090,29.800409 
	C170.755630,29.881727 169.386917,29.976255 167.521912,29.778275 
	C166.367111,29.001856 165.708588,28.517948 164.843018,27.773695 
	C163.776077,26.686184 162.916153,25.859016 162.056244,25.031853 
z"/>
<path fill="#623634" opacity="1.000000" stroke="none" 
	d="
M165.050064,28.034039 
	C165.708588,28.517948 166.367111,29.001856 167.151886,29.794840 
	C166.975037,30.873774 166.671936,31.643631 166.344055,32.722939 
	C165.092606,32.753616 163.865921,32.474850 162.271729,31.828743 
	C161.594772,30.986807 161.285339,30.512211 160.994598,29.776192 
	C161.012390,29.340263 161.011505,29.165760 161.350418,28.950340 
	C162.137390,28.819704 162.584579,28.729984 163.248138,28.804008 
	C163.988525,28.656109 164.512497,28.344469 165.031616,28.025385 
	C165.026749,28.017939 165.050064,28.034037 165.050064,28.034039 
z"/>
<path fill="#494A4B" opacity="1.000000" stroke="none" 
	d="
M38.607857,48.955952 
	C38.660824,51.064133 38.363277,53.192764 37.796627,55.785919 
	C37.329166,56.530746 37.130806,56.811043 36.678345,57.011887 
	C36.265724,56.852615 36.107201,56.772793 35.800346,56.453152 
	C35.106995,55.487663 34.561966,54.761990 34.011208,53.694122 
	C34.002213,52.895367 33.998943,52.438812 33.995678,51.982254 
	C35.760738,51.468739 35.120731,47.545345 38.607857,48.955952 
z"/>
<path fill="#4B4B4C" opacity="1.000000" stroke="none" 
	d="
M35.795876,44.535156 
	C37.293430,44.070534 38.790985,43.605907 40.637482,43.225182 
	C40.516842,44.775459 40.047256,46.241840 39.264565,47.877647 
	C38.160946,47.784615 37.370438,47.522160 36.278431,46.721256 
	C35.916584,45.633591 35.856232,45.084373 35.795876,44.535156 
z"/>
<path fill="#47484B" opacity="1.000000" stroke="none" 
	d="
M33.636177,51.976334 
	C33.998943,52.438812 34.002213,52.895367 33.982643,54.001396 
	C33.351376,55.422157 32.742939,56.193447 31.769825,56.955215 
	C30.919683,56.934631 30.434216,56.923569 29.948750,56.912506 
	C29.958492,56.164368 29.968233,55.416233 29.981785,54.291489 
	C29.127558,49.957714 32.280212,52.788773 33.636177,51.976334 
z"/>
<path fill="#494A4B" opacity="1.000000" stroke="none" 
	d="
M35.452457,44.652279 
	C35.856232,45.084373 35.916584,45.633591 35.987709,46.594875 
	C34.150055,47.180317 32.301628,47.353691 30.222679,47.258774 
	C31.697784,46.250118 33.403412,45.509762 35.452457,44.652279 
z"/>
<path fill="#742623" opacity="1.000000" stroke="none" 
	d="
M18.001205,48.398979 
	C17.968950,48.011383 17.961647,47.540443 17.940773,47.306519 
	C20.397114,46.385681 22.874329,45.698772 25.699972,45.029182 
	C25.030836,48.748993 24.013269,52.451477 22.983166,56.573029 
	C20.413935,56.837914 17.857237,56.683735 15.074267,56.283276 
	C14.885584,55.279163 14.923174,54.521332 14.983837,53.385353 
	C15.175060,53.006470 15.343210,53.005730 15.948612,53.237915 
	C17.393230,53.596130 18.400595,53.721424 19.407961,53.846718 
	C18.974407,53.197193 18.540854,52.547668 18.107300,51.898144 
	C18.082685,50.860954 18.058071,49.823765 18.001205,48.398979 
z"/>
<path fill="#434342" opacity="1.000000" stroke="none" 
	d="
M153.072540,55.950699 
	C153.159760,57.089596 153.246994,58.228489 152.854218,59.685677 
	C151.292191,61.015778 150.210159,62.027584 148.775650,63.023739 
	C147.617630,62.674458 146.812088,62.340832 146.140289,61.694473 
	C147.460648,59.176426 148.647293,56.971111 150.168381,54.144238 
	C148.188690,54.530586 147.103073,54.742451 146.152817,54.647697 
	C146.516479,53.269314 146.744797,52.197544 147.274323,51.005508 
	C148.389465,50.264805 149.203400,49.644371 150.008667,49.011971 
	C150.000000,49.000000 150.017990,49.023537 150.330414,49.025024 
	C150.765656,48.694721 150.888458,48.362930 151.018036,48.021248 
	C151.024826,48.011364 151.044693,47.997959 151.332458,48.115028 
	C151.817856,48.170113 152.015488,48.108124 152.404755,48.029076 
	C152.596390,48.012020 152.979507,47.976257 152.979523,47.976257 
	C152.984283,48.680695 152.989044,49.385136 152.673798,50.545040 
	C151.902222,51.679558 151.450638,52.358608 151.177994,53.294281 
	C151.928818,54.350834 152.500687,55.150764 153.072540,55.950699 
z"/>
<path fill="#4A4A4B" opacity="1.000000" stroke="none" 
	d="
M153.176117,47.720840 
	C152.979507,47.976257 152.596390,48.012020 152.279785,47.795044 
	C151.657013,47.718029 151.350861,47.857994 151.044693,47.997963 
	C151.044693,47.997959 151.024826,48.011364 150.677505,47.955910 
	C150.226120,48.274811 150.122055,48.649174 150.017990,49.023537 
	C150.017990,49.023537 150.000000,49.000000 149.744568,48.817879 
	C148.720383,47.798824 147.951599,46.961887 146.860291,46.098709 
	C146.017700,46.383495 145.497650,46.694530 144.642273,47.006584 
	C142.826813,46.602566 141.346695,46.197525 139.887085,45.495296 
	C139.947601,44.803253 139.987610,44.408401 140.027634,44.013546 
	C145.179092,43.363888 150.472748,41.807739 155.018234,46.633217 
	C154.606934,47.110859 153.989822,47.288139 153.176117,47.720840 
z"/>
<path fill="#5D6061" opacity="1.000000" stroke="none" 
	d="
M153.441559,55.970261 
	C152.500687,55.150764 151.928818,54.350834 151.535248,53.275738 
	C152.420303,52.920780 153.127060,52.840984 153.833817,52.761192 
	C154.561752,53.603355 155.289703,54.445511 156.027100,55.664871 
	C155.294571,56.024654 154.552567,56.007240 153.441559,55.970261 
z"/>
<path fill="#202321" opacity="1.000000" stroke="none" 
	d="
M153.848206,52.478210 
	C153.127060,52.840984 152.420303,52.920780 151.356293,53.019119 
	C151.450638,52.358608 151.902222,51.679558 152.672394,50.897274 
	C153.281509,51.261101 153.572052,51.728165 153.848206,52.478210 
z"/>
<path fill="#7D7D82" opacity="1.000000" stroke="none" 
	d="
M149.128143,63.039394 
	C150.210159,62.027584 151.292191,61.015778 152.686523,59.894157 
	C153.358566,60.966145 153.718292,62.147949 154.108154,63.703983 
	C153.588745,64.942719 153.039185,65.807228 152.208511,66.803764 
	C151.220200,66.969933 150.513000,67.004074 149.462158,67.126984 
	C149.118515,67.215736 149.046432,67.091988 149.097244,66.827423 
	C149.274384,66.285934 149.477325,66.087242 149.959015,65.936462 
	C150.274582,65.835892 150.494415,65.732483 150.484512,65.700691 
	C150.411545,65.466621 150.292679,65.246849 149.990204,64.736855 
	C149.587234,64.342812 149.382339,64.234489 149.136444,64.155853 
	C149.095428,64.185539 148.892365,64.205559 148.980682,63.919952 
	C149.088699,63.436031 149.108414,63.237713 149.128143,63.039394 
z"/>
<path fill="#462F2C" opacity="1.000000" stroke="none" 
	d="
M17.924318,52.152782 
	C18.540854,52.547668 18.974407,53.197193 19.407961,53.846718 
	C18.400595,53.721424 17.393230,53.596130 16.200834,53.236382 
	C16.590982,52.803761 17.166159,52.605591 17.924318,52.152782 
z"/>
<path fill="#404242" opacity="1.000000" stroke="none" 
	d="
M32.134502,56.964733 
	C32.742939,56.193447 33.351376,55.422157 33.988373,54.343594 
	C34.561966,54.761990 35.106995,55.487663 35.825119,56.688011 
	C36.309631,57.138901 36.621037,57.115120 36.932446,57.091339 
	C37.130806,56.811043 37.329166,56.530746 37.760567,56.134682 
	C38.720509,56.952511 39.447411,57.886105 40.161999,58.803883 
	C39.481663,60.861031 38.746090,63.085194 38.021145,65.702988 
	C37.163563,65.925232 36.295357,65.753853 35.470741,65.295349 
	C35.514328,65.008240 35.984718,64.992172 36.152618,64.908714 
	C36.386036,64.720367 36.531197,64.559166 36.503590,64.520111 
	C36.367626,64.327782 36.185841,64.167854 36.018791,63.770435 
	C36.017357,63.544376 36.041500,63.092888 36.313255,62.857006 
	C35.365479,62.118759 34.145939,61.616390 32.559509,61.069000 
	C31.453466,60.978390 30.714308,60.932804 29.975151,60.887218 
	C29.972424,60.168968 29.969694,59.450718 30.296515,58.353622 
	C31.128876,57.638092 31.631689,57.301411 32.134502,56.964733 
z"/>
<path fill="#929396" opacity="1.000000" stroke="none" 
	d="
M32.926399,61.114021 
	C34.145939,61.616390 35.365479,62.118759 36.009842,62.850838 
	C34.955666,63.386940 34.476662,63.693325 33.997654,63.999710 
	C33.812916,64.038162 33.628178,64.076614 33.202560,64.267242 
	C32.969357,63.870701 32.977032,63.321964 32.984863,62.153908 
	C32.985023,61.534588 32.926399,61.114025 32.926399,61.114021 
z"/>
<path fill="#D0D2D2" opacity="1.000000" stroke="none" 
	d="
M32.559509,61.069000 
	C32.926399,61.114025 32.985023,61.534588 32.991631,61.746475 
	C32.047665,61.841759 31.097090,61.725163 30.060833,61.247894 
	C30.714308,60.932804 31.453466,60.978390 32.559509,61.069000 
z"/>
<path fill="#1C1D20" opacity="1.000000" stroke="none" 
	d="
M31.769825,56.955215 
	C31.631689,57.301411 31.128876,57.638092 30.306915,57.994476 
	C29.976305,57.831017 29.964838,57.647858 29.951061,57.188599 
	C30.434216,56.923569 30.919683,56.934631 31.769825,56.955215 
z"/>
<path fill="#1D1E1D" opacity="1.000000" stroke="none" 
	d="
M139.727448,43.986217 
	C139.987610,44.408401 139.947601,44.803253 139.584244,45.570099 
	C138.482834,46.591167 137.704758,47.240242 136.664993,48.120560 
	C135.913116,49.893902 135.422928,51.436001 134.661987,53.258095 
	C134.620712,56.022404 134.850189,58.506721 135.089294,61.289455 
	C135.415680,62.054409 135.732407,62.520943 136.146347,63.249306 
	C136.504456,64.003578 136.765366,64.496025 137.026260,64.988464 
	C136.196075,64.977974 135.365891,64.967484 134.121765,64.923752 
	C133.189972,64.180771 132.672104,63.471035 132.025635,62.161232 
	C131.570282,60.661861 131.243530,59.762558 130.926880,58.483932 
	C130.980698,57.088459 131.024429,56.072304 131.338837,54.797379 
	C132.743973,50.129330 132.525818,44.802460 138.827469,43.898434 
	C139.027420,43.918587 139.227356,43.938736 139.727448,43.986217 
z"/>
<path fill="#464749" opacity="1.000000" stroke="none" 
	d="
M137.330505,65.053490 
	C136.765366,64.496025 136.504456,64.003578 136.550110,63.253586 
	C139.234100,63.975227 141.611526,64.954414 143.988968,65.933594 
	C143.412125,66.126740 142.835266,66.319885 142.097504,66.777672 
	C141.213135,67.032257 140.489685,67.022209 139.405151,66.999535 
	C138.574310,66.364120 138.104523,65.741318 137.330505,65.053490 
z"/>
<path fill="#4A4B4B" opacity="1.000000" stroke="none" 
	d="
M144.233521,65.966370 
	C141.611526,64.954414 139.234100,63.975227 136.452896,62.991760 
	C135.732407,62.520943 135.415680,62.054409 135.377960,61.268906 
	C136.110519,60.626831 136.564056,60.303726 137.421173,59.984535 
	C141.308182,60.943443 141.818832,58.034817 143.043304,56.374683 
	C144.057083,58.499855 145.031815,60.253532 146.006561,62.007210 
	C146.812088,62.340832 147.617630,62.674458 148.775650,63.023739 
	C149.108414,63.237713 149.088699,63.436031 148.984253,63.935936 
	C148.899521,64.237518 148.900421,64.274033 148.754608,64.612312 
	C148.364929,65.634895 148.121063,66.319199 147.877197,67.003502 
	C147.036713,66.852478 146.196228,66.701454 145.301056,66.230156 
	C145.154465,65.949562 145.062561,65.989235 144.970673,66.028915 
	C144.970673,66.028915 144.478088,65.999146 144.233521,65.966370 
z"/>
<path fill="#B6B8B8" opacity="1.000000" stroke="none" 
	d="
M148.154724,67.022537 
	C148.121063,66.319199 148.364929,65.634895 148.847443,64.619034 
	C149.086075,64.287468 149.177444,64.126167 149.177444,64.126167 
	C149.382339,64.234489 149.587234,64.342812 149.863922,64.964493 
	C149.876083,65.640839 149.816483,65.803810 149.756882,65.966774 
	C149.477325,66.087242 149.274384,66.285934 149.065567,66.763206 
	C148.799469,66.989555 148.615845,67.015556 148.154724,67.022537 
z"/>
<path fill="#902821" opacity="1.000000" stroke="none" 
	d="
M55.096237,54.955212 
	C53.168858,50.841248 51.241478,46.727283 49.176689,42.306877 
	C51.241764,42.793716 53.444252,43.586998 55.863205,45.048279 
	C57.782360,47.754150 59.485054,49.792011 61.579903,51.791451 
	C63.931248,51.518513 65.886360,51.124920 67.850258,51.074577 
	C84.056229,50.659184 100.267113,50.404877 116.468353,49.859482 
	C119.981209,49.741226 123.461212,48.647190 127.268448,47.858017 
	C128.390335,46.161953 129.200134,44.610462 130.340912,43.039471 
	C131.113632,42.999584 131.555374,42.979198 131.997116,42.958809 
	C132.746872,42.968697 133.496613,42.978584 134.472504,43.296364 
	C133.126892,47.390305 131.555145,51.176357 129.654404,55.121353 
	C127.555664,55.835083 125.785912,56.389881 123.678871,56.932335 
	C122.893776,56.875278 122.445976,56.830566 121.677155,56.536255 
	C114.515404,56.137405 107.674675,55.988159 100.787277,55.453033 
	C95.501602,54.718609 90.262596,54.370064 84.553543,54.011871 
	C80.604546,54.001163 77.120239,53.877586 73.647964,54.029411 
	C69.102966,54.228153 64.567467,54.644474 59.615562,54.970871 
	C57.834240,54.968102 56.465237,54.961658 55.096237,54.955212 
z"/>
<path fill="#A82D25" opacity="1.000000" stroke="none" 
	d="
M61.187744,51.829876 
	C59.485054,49.792011 57.782360,47.754150 56.034706,45.359688 
	C56.326157,42.976109 56.662571,40.949123 56.993023,38.516441 
	C57.541290,37.941811 58.095516,37.772877 58.842255,37.388794 
	C63.391968,36.856777 67.749176,36.539913 72.987228,36.157898 
	C79.897820,35.717213 85.927574,35.341671 92.289062,34.930927 
	C93.425148,33.931889 94.229507,32.968052 95.267052,32.003304 
	C95.500237,32.002392 95.966591,31.998549 95.983139,32.348763 
	C96.900116,36.217384 99.757835,34.841026 102.438133,35.090790 
	C111.932335,35.417377 120.955879,35.738525 129.986557,36.493202 
	C129.999100,38.970814 130.004517,41.014893 130.009933,43.058971 
	C129.200134,44.610462 128.390335,46.161953 127.018127,47.778141 
	C125.990013,47.595329 125.524315,47.347824 125.047668,46.713272 
	C125.282417,43.987682 126.461739,41.180553 125.573624,39.411079 
	C123.881111,36.038929 120.460037,37.198750 117.232147,37.616058 
	C112.685158,38.203907 108.016060,37.792652 103.406128,37.979923 
	C101.925484,38.040073 100.466858,38.642311 98.597702,38.996704 
	C97.128792,39.002846 96.060349,39.008835 94.661171,39.012501 
	C93.889450,39.010727 93.448456,39.011269 92.577713,39.006229 
	C90.428207,39.006706 88.708450,39.012764 86.660095,39.018757 
	C85.893410,39.022926 85.455315,39.027168 84.681046,39.021370 
	C83.896629,39.011375 83.448395,39.011414 82.562675,39.007332 
	C80.083466,39.003296 78.041725,39.003380 75.612938,39.002037 
	C73.485199,39.327248 71.744514,39.653889 69.789238,39.725212 
	C68.381851,39.642883 67.189064,39.815865 65.571899,39.989792 
	C60.912643,39.504116 58.826916,40.733040 60.898746,45.299290 
	C61.346966,46.287144 61.763668,47.289295 62.141289,48.599648 
	C61.787712,49.886242 61.487724,50.858059 61.187744,51.829876 
z"/>
<path fill="#742623" opacity="1.000000" stroke="none" 
	d="
M30.319725,41.931259 
	C29.975443,41.913738 29.962164,41.424019 29.944956,41.178982 
	C30.812773,40.752945 31.697800,40.571945 32.778507,40.615173 
	C32.204128,41.209194 31.434067,41.578987 30.319725,41.931259 
z"/>
<path fill="#E25149" opacity="1.000000" stroke="none" 
	d="
M64.061691,29.042118 
	C64.616341,28.863214 65.170982,28.684313 66.235275,28.270487 
	C67.167664,27.982534 67.590408,27.929502 68.355408,28.064781 
	C71.781494,28.114923 74.865318,27.976757 78.229301,27.936480 
	C78.698746,28.091894 78.888046,28.149416 79.353806,28.441986 
	C81.739525,28.491755 83.848778,28.306479 86.172104,28.055527 
	C86.386192,27.989849 86.827835,27.915478 87.292595,27.938862 
	C90.249725,27.984707 92.742088,28.007170 95.112640,28.418762 
	C92.006447,29.228933 89.022064,29.649973 85.711594,30.074526 
	C84.584808,30.399105 83.784126,30.720169 82.620651,31.027168 
	C81.533897,31.022976 80.809921,31.032852 80.085945,31.042728 
	C74.995766,30.720411 69.905586,30.398092 64.405373,29.795210 
	C63.995335,29.514647 64.061691,29.042118 64.061691,29.042118 
z"/>
<path fill="#E25149" opacity="1.000000" stroke="none" 
	d="
M91.957321,34.966129 
	C85.927574,35.341671 79.897820,35.717213 73.389313,36.085732 
	C75.233994,35.718231 77.602791,35.530167 79.864548,34.935204 
	C81.315140,34.553619 82.607971,33.572304 84.370255,32.441833 
	C85.517532,31.995575 86.266083,31.967316 87.374237,31.946041 
	C89.125732,31.660656 90.517624,31.368288 91.933495,31.463524 
	C91.957413,32.889462 91.957367,33.927795 91.957321,34.966129 
z"/>
<path fill="#BB3E36" opacity="1.000000" stroke="none" 
	d="
M87.014633,31.939056 
	C86.266083,31.967316 85.517532,31.995575 84.394997,32.034775 
	C83.846359,32.029221 83.671700,32.012726 83.244339,31.748377 
	C82.991646,31.500525 82.983437,31.041237 82.983437,31.041237 
	C83.784126,30.720169 84.584808,30.399105 85.809921,30.318769 
	C86.494446,31.019352 86.754539,31.479204 87.014633,31.939056 
z"/>
<path fill="#B12E26" opacity="1.000000" stroke="none" 
	d="
M82.620651,31.027168 
	C82.983437,31.041237 82.991646,31.500525 82.981857,31.729576 
	C82.131966,31.828661 81.291870,31.698696 80.268860,31.305729 
	C80.809921,31.032852 81.533897,31.022976 82.620651,31.027168 
z"/>
<path fill="#1D1F19" opacity="1.000000" stroke="none" 
	d="
M63.693760,29.040899 
	C64.061691,29.042118 63.995335,29.514647 64.018677,29.751871 
	C63.445541,29.839493 62.849068,29.689888 62.052551,29.296333 
	C62.343616,29.048149 62.834721,29.043915 63.693760,29.040899 
z"/>
<path fill="#B0AFB1" opacity="1.000000" stroke="none" 
	d="
M79.077339,28.206940 
	C78.888046,28.149416 78.698746,28.091894 78.028122,27.685047 
	C77.027405,26.259909 76.508034,25.184095 75.988663,24.108280 
	C79.685638,23.728247 83.382622,23.348211 87.726913,23.317528 
	C91.575714,24.441015 94.777199,25.215149 97.692993,26.055857 
	C96.922920,26.401794 96.438522,26.681158 95.982224,26.967363 
	C96.010315,26.974203 95.963875,26.937988 95.528122,26.877972 
	C92.337532,27.183794 89.582680,27.549637 86.827835,27.915478 
	C86.827835,27.915478 86.386192,27.989849 85.744064,28.002256 
	C83.093742,28.078754 81.085541,28.142847 79.077339,28.206940 
z"/>
<path fill="#C0C2C2" opacity="1.000000" stroke="none" 
	d="
M84.999771,17.407970 
	C89.197037,16.396395 93.391029,15.638068 97.615814,15.142088 
	C100.570892,14.795169 101.297722,16.679312 100.928406,19.634811 
	C95.971542,19.897108 91.093605,19.794661 86.225067,19.523554 
	C85.788788,19.499260 85.413345,18.382599 84.999771,17.407970 
z"/>
<path fill="#A5A9AA" opacity="1.000000" stroke="none" 
	d="
M97.978683,25.989283 
	C94.777199,25.215149 91.575714,24.441015 88.184708,23.329603 
	C91.763351,22.673483 95.531509,22.354639 99.706734,22.513683 
	C99.970528,24.101007 99.827255,25.210449 99.617546,26.456999 
	C99.551117,26.594109 99.485626,26.897001 99.307419,26.824772 
	C98.865685,26.714888 98.616501,26.758711 98.276947,26.662119 
	C98.172241,26.440220 97.978683,25.989283 97.978683,25.989283 
z"/>
<path fill="#7F7876" opacity="1.000000" stroke="none" 
	d="
M75.557388,24.039925 
	C76.508034,25.184095 77.027405,26.259909 77.747971,27.587154 
	C74.865318,27.976757 71.781494,28.114923 68.426712,27.830978 
	C68.423172,26.995970 68.690575,26.583073 68.960442,25.899548 
	C68.980942,25.449396 68.998970,25.269873 69.016991,25.090349 
	C69.008125,24.901846 68.999260,24.713343 69.013657,24.242735 
	C71.066650,23.964275 73.096390,23.967922 75.557388,24.039925 
z"/>
<path fill="#282626" opacity="1.000000" stroke="none" 
	d="
M99.683975,26.319889 
	C99.827255,25.210449 99.970528,24.101007 100.167267,22.575470 
	C100.220726,22.159372 100.585991,22.092207 100.751633,22.008286 
	C102.675232,21.437572 104.433197,20.950779 106.548973,20.613705 
	C107.273796,21.510571 107.640800,22.257721 107.850281,23.287117 
	C107.483734,24.397663 107.274719,25.225965 107.041542,26.099827 
	C107.017380,26.145386 107.013931,26.248466 106.568527,26.186216 
	C103.976738,26.189274 101.830353,26.254583 99.683975,26.319889 
z"/>
<path fill="#1D1F19" opacity="1.000000" stroke="none" 
	d="
M68.957977,26.170176 
	C68.690575,26.583073 68.423172,26.995970 68.084465,27.642670 
	C67.590408,27.929502 67.167664,27.982534 66.425430,28.044556 
	C64.999100,28.038504 63.892246,28.023460 62.368942,27.999374 
	C62.521336,27.634130 63.090191,27.277925 64.295181,26.689108 
	C66.273544,26.361053 67.615761,26.265615 68.957977,26.170176 
z"/>
<path fill="#898A88" opacity="1.000000" stroke="none" 
	d="
M68.960442,25.899548 
	C67.615761,26.265615 66.273544,26.361053 64.627106,26.593079 
	C65.630379,26.178371 66.937874,25.627081 68.631180,25.083069 
	C68.998970,25.269873 68.980942,25.449396 68.960442,25.899548 
z"/>
<path fill="#AAAEAF" opacity="1.000000" stroke="none" 
	d="
M108.007812,23.004871 
	C107.640800,22.257721 107.273796,21.510571 106.855667,20.449760 
	C108.608620,19.088732 110.363586,17.248941 112.225426,17.133558 
	C119.599388,16.676575 127.006798,16.759308 134.696686,16.349478 
	C135.294861,17.432497 135.598160,18.808006 135.400406,20.559475 
	C131.927658,21.284414 128.955963,21.633392 125.523857,22.011169 
	C119.378242,22.361601 113.693024,22.683235 108.007812,23.004871 
z"/>
<path fill="#6F7273" opacity="1.000000" stroke="none" 
	d="
M133.008820,12.987182 
	C132.058792,13.692454 131.099976,14.411066 130.141174,15.129678 
	C129.915131,14.657299 129.689087,14.184919 129.463043,13.712541 
	C130.406906,13.474328 131.350769,13.236116 132.661240,12.990685 
	C133.027847,12.983465 133.000061,13.000521 133.008820,12.987182 
z"/>
<path fill="#E15048" opacity="1.000000" stroke="none" 
	d="
M154.005493,36.912590 
	C150.651459,36.919556 147.297409,36.926521 143.480164,36.525627 
	C143.350677,34.097748 143.684387,32.077728 144.432739,30.036036 
	C146.233261,29.975559 147.619171,29.936756 149.441711,29.920486 
	C151.919540,29.967941 153.960709,29.992861 155.995834,30.390720 
	C155.328369,32.813305 154.666931,34.862949 154.005493,36.912590 
z"/>
<path fill="#DC574F" opacity="1.000000" stroke="none" 
	d="
M129.979431,36.059669 
	C120.955879,35.738525 111.932335,35.417377 102.532936,34.850445 
	C102.410667,34.382858 102.664246,34.161049 103.376495,33.959389 
	C110.749283,33.653416 117.666603,33.381699 124.576103,32.976578 
	C127.697334,32.793575 130.802994,32.345104 134.039474,32.240635 
	C134.433319,32.666698 134.703430,32.869194 134.987732,33.425659 
	C136.030228,34.880772 137.058517,35.981922 138.086807,37.083076 
	C136.936691,37.708775 135.786560,38.334473 134.270996,38.648056 
	C132.596832,37.577187 131.288132,36.818428 129.979431,36.059669 
z"/>
<path fill="#D44B44" opacity="1.000000" stroke="none" 
	d="
M138.405579,37.068108 
	C137.058517,35.981922 136.030228,34.880772 135.388275,33.399269 
	C138.522430,32.031849 141.270264,31.044781 144.018097,30.057711 
	C143.684387,32.077728 143.350677,34.097748 143.024673,36.501194 
	C142.565659,36.898865 142.098953,36.913109 141.194183,36.767189 
	C140.504898,36.737396 140.253662,36.867764 140.002426,36.998131 
	C139.576401,37.016464 139.150375,37.034798 138.405579,37.068108 
z"/>
<path fill="#DD554F" opacity="1.000000" stroke="none" 
	d="
M154.365723,36.982697 
	C154.666931,34.862949 155.328369,32.813305 156.410522,30.381643 
	C158.212799,30.012289 159.594360,30.024952 160.975906,30.037617 
	C161.285339,30.512211 161.594772,30.986807 162.026459,31.717972 
	C161.243774,33.098328 159.870193,34.095612 159.525986,35.370762 
	C158.660950,38.575417 156.829468,37.957253 154.365723,36.982697 
z"/>
<path fill="#862922" opacity="1.000000" stroke="none" 
	d="
M129.983398,54.962418 
	C131.555145,51.176357 133.126892,47.390305 134.847427,43.294861 
	C137.510452,42.130116 140.024658,41.274761 142.762726,40.677776 
	C141.709137,41.725868 140.431686,42.515591 138.990860,43.601875 
	C132.525818,44.802460 132.743973,50.129330 131.067703,54.769630 
	C130.345062,54.987904 130.164230,54.975159 129.983398,54.962418 
z"/>
<path fill="#B6352D" opacity="1.000000" stroke="none" 
	d="
M129.986557,36.493202 
	C131.288132,36.818428 132.596832,37.577187 133.936356,38.677296 
	C133.312820,40.103962 132.658463,41.189278 132.000610,42.616703 
	C131.555374,42.979198 131.113632,42.999584 130.340912,43.039471 
	C130.004517,41.014893 129.999100,38.970814 129.986557,36.493202 
z"/>
<path fill="#862922" opacity="1.000000" stroke="none" 
	d="
M157.967560,42.657120 
	C156.472183,42.501602 154.941513,42.007362 153.207947,41.238228 
	C154.647430,41.415020 156.289856,41.866711 157.967560,42.657120 
z"/>
<path fill="#DC574F" opacity="1.000000" stroke="none" 
	d="
M140.236267,36.987617 
	C140.253662,36.867764 140.504898,36.737396 140.844177,36.754761 
	C140.932236,36.902500 140.470093,36.977104 140.236267,36.987617 
z"/>
<path fill="#D4453C" opacity="1.000000" stroke="none" 
	d="
M163.031754,28.640265 
	C162.584579,28.729984 162.137390,28.819704 161.059418,28.660440 
	C156.621475,28.614368 152.814362,28.817282 148.567520,29.011713 
	C146.072144,28.969185 144.016464,28.935139 141.942383,28.602482 
	C142.605911,27.224958 143.287888,26.146046 144.305695,25.016869 
	C145.093353,24.977966 145.545151,24.989328 146.094727,25.167561 
	C146.469040,25.198236 146.745575,25.062046 147.195465,24.882486 
	C147.368790,24.839117 147.725754,24.856205 147.725754,24.856205 
	C152.187088,24.906237 156.648438,24.956270 161.583008,25.019077 
	C162.916153,25.859016 163.776077,26.686184 164.843018,27.773693 
	C165.050064,28.034037 165.026749,28.017939 164.754700,28.012882 
	C163.999023,28.218639 163.515381,28.429451 163.031754,28.640265 
z"/>
<path fill="#605B5E" opacity="1.000000" stroke="none" 
	d="
M147.809891,24.670681 
	C147.725754,24.856205 147.368790,24.839117 146.937531,24.881262 
	C146.336502,24.949167 146.166733,24.974928 145.996948,25.000690 
	C145.545151,24.989328 145.093353,24.977966 143.940872,24.972458 
	C142.510086,24.921904 141.779984,24.865494 141.049881,24.809084 
	C141.014252,23.851021 140.978607,22.892958 141.394836,21.483093 
	C145.843079,20.913050 149.839447,20.794809 153.886917,21.071703 
	C153.967773,21.997780 153.997498,22.528723 154.027237,23.059664 
	C152.600616,23.379097 151.174011,23.698530 149.280640,23.846977 
	C148.553986,23.818195 148.294098,23.960398 148.034195,24.102602 
	C148.034195,24.102602 147.894028,24.485155 147.809891,24.670681 
z"/>
<path fill="#724E4A" opacity="1.000000" stroke="none" 
	d="
M154.354462,23.010975 
	C153.997498,22.528723 153.967773,21.997780 153.877304,20.943838 
	C153.816574,20.420837 153.798599,20.162064 153.917419,20.057541 
	C154.036255,19.953020 154.270233,19.739893 154.270233,19.739893 
	C154.407394,20.814024 154.544540,21.888157 154.354462,23.010975 
z"/>
<path fill="#724E4A" opacity="1.000000" stroke="none" 
	d="
M151.137451,17.853767 
	C150.759964,17.111893 150.382477,16.370018 149.993408,15.314078 
	C151.022507,16.041685 152.063156,17.083355 153.101196,18.515869 
	C153.098587,18.906712 152.943192,19.055536 152.691864,18.949036 
	C152.006180,18.512945 151.571823,18.183357 151.137451,17.853767 
z"/>
<path fill="#724E4A" opacity="1.000000" stroke="none" 
	d="
M153.175919,18.831919 
	C153.536423,18.910009 153.781631,19.109537 154.129562,19.547802 
	C154.270233,19.739893 154.036255,19.953020 153.722168,19.919102 
	C153.179764,19.649744 153.024796,19.373194 152.943192,19.055536 
	C152.943192,19.055536 153.098587,18.906712 153.175919,18.831919 
z"/>
<path fill="#724E4A" opacity="1.000000" stroke="none" 
	d="
M148.278214,24.100536 
	C148.294098,23.960398 148.553986,23.818195 148.908035,23.842962 
	C149.002182,24.009933 148.522232,24.098471 148.278214,24.100536 
z"/>
<path fill="#A1A8A8" opacity="1.000000" stroke="none" 
	d="
M152.691864,18.949036 
	C153.024796,19.373194 153.179764,19.649744 153.603333,20.023624 
	C153.798599,20.162064 153.816574,20.420837 153.826187,20.548702 
	C149.839447,20.794809 145.843079,20.913050 141.385529,21.123684 
	C140.209167,20.368565 139.494019,19.521051 138.647537,18.351265 
	C142.405533,17.994471 146.294846,17.959946 150.660812,17.889595 
	C151.571823,18.183357 152.006180,18.512945 152.691864,18.949036 
z"/>
<path fill="#DA4F47" opacity="1.000000" stroke="none" 
	d="
M140.624008,24.875839 
	C141.779984,24.865494 142.510086,24.921904 143.605011,25.022724 
	C143.287888,26.146046 142.605911,27.224958 141.478546,28.631502 
	C132.240967,28.982885 123.448006,28.950172 114.657288,29.075251 
	C112.766678,29.102152 110.884186,29.699005 108.547028,30.030197 
	C104.714157,29.743963 101.332222,29.460842 97.857895,28.911938 
	C97.460182,28.443666 97.154854,28.241177 96.600815,28.060389 
	C96.352112,28.082088 95.853607,28.053984 95.897850,27.776634 
	C95.949356,27.312185 95.956619,27.125086 95.963875,26.937988 
	C95.963875,26.937988 96.010315,26.974203 96.385239,26.991947 
	C97.300667,26.967802 97.841156,26.925909 98.381653,26.884018 
	C98.616501,26.758711 98.865685,26.714888 99.768234,26.865486 
	C102.609489,26.735107 104.811707,26.491787 107.013931,26.248466 
	C107.013931,26.248466 107.017380,26.145386 107.504044,26.118580 
	C115.992836,25.734772 123.994949,25.377769 132.332077,25.049335 
	C133.113235,25.042213 133.559402,25.006521 134.275681,24.991385 
	C134.723099,24.977545 134.900406,24.943151 135.077698,24.908756 
	C136.784515,24.920034 138.491318,24.931313 140.624008,24.875839 
z"/>
<path fill="#5D5C5E" opacity="1.000000" stroke="none" 
	d="
M134.005554,24.970829 
	C133.559402,25.006521 133.113235,25.042213 132.118286,24.779385 
	C129.707748,23.648031 127.846001,22.815201 125.984261,21.982370 
	C128.955963,21.633392 131.927658,21.284414 135.325272,20.925026 
	C135.727539,21.584663 135.703873,22.254713 135.122192,23.119045 
	C134.377975,23.865828 134.191757,24.418329 134.005554,24.970829 
z"/>
<path fill="#696263" opacity="1.000000" stroke="none" 
	d="
M134.275681,24.991386 
	C134.191757,24.418329 134.377975,23.865828 134.826584,23.164623 
	C135.082306,23.436981 135.075623,23.858044 135.073303,24.593933 
	C134.900406,24.943151 134.723099,24.977545 134.275681,24.991386 
z"/>
<path fill="#413B37" opacity="1.000000" stroke="none" 
	d="
M97.719345,61.618698 
	C97.053268,60.900372 96.691345,60.271763 96.485611,59.322838 
	C97.408653,58.873131 98.175522,58.743732 99.319992,58.550617 
	C97.222672,57.991028 95.602486,57.558743 94.451881,57.088242 
	C103.267525,57.041992 111.613579,57.033962 119.746979,57.293293 
	C118.205612,58.488522 116.876900,59.416386 115.548187,60.344254 
	C115.548187,60.344254 115.231026,60.562492 115.231026,60.562492 
	C115.231026,60.562492 114.852882,60.488487 114.313293,60.243629 
	C113.481659,59.974033 113.189606,59.949299 112.461685,59.915771 
	C109.908295,60.445370 107.790771,60.983765 105.673248,61.522156 
	C103.123337,61.584240 100.573425,61.646324 97.719345,61.618698 
z"/>
<path fill="#262224" opacity="1.000000" stroke="none" 
	d="
M115.660172,60.470642 
	C116.876900,59.416386 118.205612,58.488522 120.089813,57.271072 
	C121.096268,56.916275 121.547218,56.851063 121.998177,56.785854 
	C122.445976,56.830566 122.893776,56.875278 123.901253,57.218544 
	C126.612877,57.965820 128.764832,58.414539 130.916779,58.863251 
	C131.243530,59.762558 131.570282,60.661861 131.889740,61.922981 
	C130.844299,62.241257 129.806152,62.197712 128.283691,61.790680 
	C127.518234,61.235867 127.237076,61.044540 126.641357,60.584106 
	C122.917130,60.438869 119.507462,60.562744 116.097794,60.686623 
	C116.097794,60.686619 115.772163,60.597034 115.660172,60.470642 
z"/>
<path fill="#151315" opacity="1.000000" stroke="none" 
	d="
M116.207352,61.070278 
	C119.507462,60.562744 122.917130,60.438869 126.567696,60.753922 
	C126.808594,61.192852 126.847229,61.560204 126.847229,61.560204 
	C126.420105,61.576077 125.992973,61.591949 125.062241,61.387695 
	C123.720367,61.343037 122.882103,61.518497 122.043831,61.693958 
	C120.134857,61.613949 118.225876,61.533943 116.207352,61.070278 
z"/>
<path fill="#262224" opacity="1.000000" stroke="none" 
	d="
M106.035324,61.591988 
	C107.790771,60.983765 109.908295,60.445370 112.489441,60.280823 
	C112.948898,60.898163 112.944717,61.141651 112.940544,61.385139 
	C110.759491,61.477364 108.578445,61.569588 106.035324,61.591988 
z"/>
<path fill="#595959" opacity="1.000000" stroke="none" 
	d="
M122.144135,62.034187 
	C122.882103,61.518497 123.720367,61.343037 124.741608,61.381134 
	C124.031189,61.854599 123.137817,62.114510 122.144135,62.034187 
z"/>
<path fill="#595959" opacity="1.000000" stroke="none" 
	d="
M127.126282,61.708572 
	C126.847229,61.560204 126.808594,61.192852 126.882263,61.023033 
	C127.237076,61.044540 127.518234,61.235867 127.918167,61.654011 
	C127.826416,61.872871 127.615875,61.864906 127.126282,61.708572 
z"/>
<path fill="#151315" opacity="1.000000" stroke="none" 
	d="
M113.384842,61.435440 
	C112.944717,61.141651 112.948898,60.898163 112.925316,60.289619 
	C113.189606,59.949299 113.481659,59.974033 114.206795,60.083748 
	C114.369637,60.607735 114.099388,61.046738 113.384842,61.435440 
z"/>
<path fill="#47494A" opacity="1.000000" stroke="none" 
	d="
M42.802338,63.770317 
	C42.506618,64.441559 42.269409,64.849411 42.016289,65.498184 
	C41.546665,65.741333 41.092949,65.743561 40.299133,65.765869 
	C40.698353,64.859550 41.437668,63.933155 42.525826,62.987129 
	C42.870064,63.147312 42.865456,63.327122 42.802338,63.770317 
z"/>
<path fill="#4B4B4C" opacity="1.000000" stroke="none" 
	d="
M42.529667,46.547264 
	C42.476658,46.578358 42.582676,46.516167 42.529667,46.547264 
z"/>
<path fill="#404242" opacity="1.000000" stroke="none" 
	d="
M39.530548,66.003204 
	C39.533070,66.117935 39.267956,66.257668 38.866241,66.246918 
	C38.907394,66.073685 39.085152,66.050949 39.530548,66.003204 
z"/>
<path fill="#6B221E" opacity="1.000000" stroke="none" 
	d="
M55.074787,55.280720 
	C56.465237,54.961658 57.834240,54.968102 59.933662,55.023125 
	C61.477180,55.909389 62.290276,56.747074 63.080887,57.688942 
	C63.058407,57.793121 62.994263,57.996403 62.773132,58.092773 
	C62.270973,58.372566 62.079742,58.624222 61.948681,59.171494 
	C61.919056,59.398876 61.852707,59.852650 61.852707,59.852650 
	C61.460209,59.852459 61.067715,59.852268 60.384903,59.809753 
	C60.202991,56.849995 58.556618,57.182064 56.345444,57.962006 
	C55.686966,57.199852 55.370152,56.403042 55.074787,55.280720 
z"/>
<path fill="#742623" opacity="1.000000" stroke="none" 
	d="
M26.256927,44.937836 
	C26.207727,44.770096 26.382690,44.492161 26.785637,44.108864 
	C26.940582,44.345726 26.763071,44.620441 26.256927,44.937836 
z"/>
<path fill="#742623" opacity="1.000000" stroke="none" 
	d="
M28.251631,42.939949 
	C28.221869,42.759975 28.432816,42.487316 28.900499,42.144714 
	C28.935602,42.332268 28.713972,42.589764 28.251631,42.939949 
z"/>
<path fill="#493F3C" opacity="1.000000" stroke="none" 
	d="
M93.982300,57.126457 
	C95.602486,57.558743 97.222672,57.991028 99.319992,58.550617 
	C98.175522,58.743732 97.408653,58.873131 96.292953,59.015999 
	C86.612816,59.326477 77.281525,59.623486 67.488281,59.602333 
	C67.019142,58.866386 67.011963,58.448608 67.472878,58.021244 
	C70.761276,58.003143 73.586365,58.096355 76.400848,57.964085 
	C81.623138,57.718662 86.839226,57.341568 92.379318,57.027161 
	C93.127930,57.065495 93.555115,57.095978 93.982300,57.126457 
z"/>
<path fill="#302A2A" opacity="1.000000" stroke="none" 
	d="
M67.004776,58.030827 
	C67.011963,58.448608 67.019142,58.866386 67.048386,59.595245 
	C65.622009,59.923843 64.173561,59.941364 62.288914,59.905769 
	C61.852707,59.852650 61.919056,59.398876 62.173008,59.080917 
	C62.707081,58.574821 62.896183,58.319302 62.994263,57.996403 
	C62.994263,57.996403 63.058407,57.793121 63.409546,57.772655 
	C64.438721,57.778152 65.116753,57.804119 66.095802,57.895218 
	C66.599472,57.983845 66.802124,58.007336 67.004776,58.030827 
z"/>
<path fill="#57585D" opacity="1.000000" stroke="none" 
	d="
M34.224289,64.112411 
	C34.476662,63.693325 34.955666,63.386940 35.738083,63.086720 
	C36.041500,63.092888 36.017357,63.544376 36.010418,64.019371 
	C36.003479,64.494370 35.984718,64.992172 35.984718,64.992172 
	C35.984718,64.992172 35.514328,65.008240 35.279778,65.020798 
	C34.847126,64.763947 34.649025,64.494522 34.224289,64.112411 
z"/>
<path fill="#B63D34" opacity="1.000000" stroke="none" 
	d="
M149.007233,29.020193 
	C152.814362,28.817282 156.621475,28.614368 160.719604,28.701357 
	C161.011505,29.165760 161.012390,29.340263 160.994598,29.776192 
	C159.594360,30.024952 158.212799,30.012289 156.416565,30.008703 
	C153.960709,29.992861 151.919540,29.967941 149.441605,29.701597 
	C149.004837,29.460173 149.007233,29.020193 149.007233,29.020193 
z"/>
<path fill="#B63D34" opacity="1.000000" stroke="none" 
	d="
M163.248138,28.804005 
	C163.515381,28.429451 163.999023,28.218639 164.759567,28.020329 
	C164.512497,28.344469 163.988525,28.656109 163.248138,28.804005 
z"/>
<path fill="#707270" opacity="1.000000" stroke="none" 
	d="
M36.678345,57.011887 
	C36.621037,57.115120 36.309631,57.138901 35.973450,56.927826 
	C36.107201,56.772793 36.265724,56.852615 36.678345,57.011887 
z"/>
<path fill="#47484A" opacity="1.000000" stroke="none" 
	d="
M143.004272,56.003189 
	C141.818832,58.034817 141.308182,60.943443 137.415222,59.570244 
	C137.003983,57.767639 137.002304,56.383247 137.332214,54.997917 
	C138.105942,54.996124 138.548096,54.995266 139.028900,55.277271 
	C139.371033,55.882118 139.674484,56.204102 139.977951,56.526085 
	C140.158005,56.318138 140.338043,56.110191 140.518097,55.902245 
	C140.010208,55.598270 139.502304,55.294292 138.994629,54.617367 
	C138.994247,53.498787 138.993652,52.753155 138.989380,51.657230 
	C138.299332,50.167732 137.613007,49.028522 136.926666,47.889313 
	C137.704758,47.240242 138.482834,46.591167 139.563751,45.867287 
	C141.346695,46.197525 142.826813,46.602566 144.964798,47.005791 
	C146.051529,47.014168 146.480408,47.024353 146.948456,47.441868 
	C146.982788,48.941391 146.977936,50.033581 146.973099,51.125774 
	C146.744797,52.197544 146.516479,53.269314 145.924561,54.793808 
	C144.708725,55.498753 143.856491,55.750969 143.004272,56.003189 
z"/>
<path fill="#515252" opacity="1.000000" stroke="none" 
	d="
M143.043304,56.374680 
	C143.856491,55.750969 144.708725,55.498753 145.789215,55.100426 
	C147.103073,54.742451 148.188690,54.530586 150.168381,54.144238 
	C148.647293,56.971111 147.460648,59.176426 146.140289,61.694473 
	C145.031815,60.253532 144.057083,58.499855 143.043304,56.374680 
z"/>
<path fill="#9EA3A4" opacity="1.000000" stroke="none" 
	d="
M147.274323,51.005508 
	C146.977936,50.033581 146.982788,48.941391 147.028564,47.217884 
	C147.069489,46.586571 147.182831,46.124950 147.182831,46.124950 
	C147.951599,46.961887 148.720383,47.798824 149.753235,48.829849 
	C149.203400,49.644371 148.389465,50.264805 147.274323,51.005508 
z"/>
<path fill="#949294" opacity="1.000000" stroke="none" 
	d="
M151.332458,48.115028 
	C151.350861,47.857994 151.657013,47.718029 152.088150,47.812099 
	C152.015488,48.108124 151.817856,48.170113 151.332458,48.115028 
z"/>
<path fill="#9EA3A4" opacity="1.000000" stroke="none" 
	d="
M150.330414,49.025024 
	C150.122055,48.649174 150.226120,48.274811 150.670715,47.965794 
	C150.888458,48.362930 150.765656,48.694721 150.330414,49.025024 
z"/>
<path fill="#5F6164" opacity="1.000000" stroke="none" 
	d="
M146.860291,46.098709 
	C147.182831,46.124950 147.069489,46.586571 146.989380,46.810555 
	C146.480408,47.024353 146.051529,47.014168 145.300140,47.004776 
	C145.497650,46.694530 146.017700,46.383495 146.860291,46.098709 
z"/>
<path fill="#666769" opacity="1.000000" stroke="none" 
	d="
M149.959015,65.936462 
	C149.816483,65.803810 149.876083,65.640839 150.061981,65.250214 
	C150.292679,65.246849 150.411545,65.466621 150.484512,65.700691 
	C150.494415,65.732483 150.274582,65.835892 149.959015,65.936462 
z"/>
<path fill="#595A5C" opacity="1.000000" stroke="none" 
	d="
M149.136444,64.155853 
	C149.177444,64.126167 149.086075,64.287468 148.993256,64.280746 
	C148.900421,64.274033 148.899521,64.237518 148.895935,64.221542 
	C148.892365,64.205559 149.095428,64.185539 149.136444,64.155853 
z"/>
<path fill="#47494A" opacity="1.000000" stroke="none" 
	d="
M36.152618,64.908714 
	C35.984718,64.992172 36.003479,64.494370 36.011856,64.245430 
	C36.185841,64.167854 36.367626,64.327782 36.503590,64.520111 
	C36.531197,64.559166 36.386036,64.720367 36.152618,64.908714 
z"/>
<path fill="#464749" opacity="1.000000" stroke="none" 
	d="
M137.000610,54.998856 
	C137.002304,56.383247 137.003983,57.767639 137.011642,59.566326 
	C136.564056,60.303726 136.110519,60.626831 135.368317,60.970490 
	C134.850189,58.506721 134.620712,56.022404 134.929138,53.265228 
	C135.644699,52.994858 135.822342,52.997353 136.022797,53.296875 
	C136.363937,54.062222 136.682266,54.530540 137.000610,54.998856 
z"/>
<path fill="#6B221E" opacity="1.000000" stroke="none" 
	d="
M130.926880,58.483932 
	C128.764832,58.414539 126.612877,57.965820 124.238548,57.230888 
	C125.785912,56.389881 127.555664,55.835083 129.654419,55.121353 
	C130.164230,54.975159 130.345062,54.987904 130.797028,55.028404 
	C131.024429,56.072304 130.980698,57.088459 130.926880,58.483932 
z"/>
<path fill="#4A4A4B" opacity="1.000000" stroke="none" 
	d="
M136.000000,52.999847 
	C135.822342,52.997353 135.644699,52.994858 135.199890,52.985237 
	C135.422928,51.436001 135.913116,49.893902 136.664993,48.120560 
	C137.613007,49.028522 138.299332,50.167732 138.652557,51.655998 
	C137.546310,52.336655 136.773148,52.668251 136.000000,52.999847 
z"/>
<path fill="#434342" opacity="1.000000" stroke="none" 
	d="
M144.985336,66.014450 
	C145.062561,65.989235 145.154465,65.949562 145.108765,65.969658 
	C144.971161,66.029434 145.000000,66.000000 144.985336,66.014450 
z"/>
<path fill="#D84941" opacity="1.000000" stroke="none" 
	d="
M125.058624,47.100315 
	C125.524315,47.347824 125.990013,47.595329 126.706024,47.922714 
	C123.461212,48.647190 119.981209,49.741226 116.468353,49.859482 
	C100.267113,50.404877 84.056229,50.659184 67.850258,51.074577 
	C65.886360,51.124920 63.931248,51.518513 61.579903,51.791451 
	C61.487724,50.858059 61.787712,49.886242 62.302872,48.577919 
	C62.518044,48.241413 62.840488,48.299225 63.181999,48.551300 
	C68.945000,48.560276 74.364601,48.257393 79.788345,48.085720 
	C93.850273,47.640640 107.914024,47.253326 122.357727,46.911282 
	C123.511810,47.019848 124.285217,47.060081 125.058624,47.100315 
z"/>
<path fill="#A2322A" opacity="1.000000" stroke="none" 
	d="
M65.794785,57.830078 
	C65.116753,57.804119 64.438721,57.778152 63.432030,57.668472 
	C62.290276,56.747074 61.477180,55.909389 60.345985,55.019451 
	C64.567467,54.644474 69.102966,54.228153 73.647964,54.029411 
	C77.120239,53.877586 80.604546,54.001163 84.547409,54.330654 
	C85.021294,55.083878 85.031258,55.508678 84.652069,55.963295 
	C82.796150,56.284313 81.329384,56.575512 79.412369,56.877983 
	C74.573006,57.202858 70.183891,57.516468 65.794785,57.830078 
z"/>
<path fill="#6B221E" opacity="1.000000" stroke="none" 
	d="
M79.862617,56.866714 
	C81.329384,56.575512 82.796150,56.284313 85.114151,55.983528 
	C90.921570,55.928932 95.877754,55.883923 100.833946,55.838913 
	C107.674675,55.988159 114.515404,56.137405 121.677155,56.536255 
	C121.547218,56.851063 121.096268,56.916275 120.302475,57.003708 
	C111.613579,57.033962 103.267525,57.041992 94.451881,57.088242 
	C93.555115,57.095978 93.127930,57.065495 91.911530,57.016354 
	C87.369080,56.954033 83.615852,56.910374 79.862617,56.866714 
z"/>
<path fill="#BA3E39" opacity="1.000000" stroke="none" 
	d="
M100.787277,55.453033 
	C95.877754,55.883923 90.921570,55.928932 85.503296,55.953712 
	C85.031258,55.508678 85.021294,55.083878 85.017456,54.340294 
	C90.262596,54.370064 95.501602,54.718609 100.787277,55.453033 
z"/>
<path fill="#8A231C" opacity="1.000000" stroke="none" 
	d="
M121.977051,46.842953 
	C107.914024,47.253326 93.850273,47.640640 79.788345,48.085720 
	C74.364601,48.257393 68.945000,48.560276 63.234924,48.131096 
	C64.299492,45.307293 65.652649,43.155766 67.380005,41.003597 
	C68.502808,41.002125 69.251404,41.001293 70.394882,41.049706 
	C73.516922,41.718994 76.217377,42.613338 78.978737,42.882202 
	C81.759583,43.152962 84.917191,43.288902 85.017220,39.031410 
	C85.455315,39.027168 85.893410,39.022926 86.676529,39.412239 
	C88.229118,40.528831 89.427223,41.765610 90.647675,41.788063 
	C91.416985,41.802219 92.219727,39.999516 93.007469,39.011814 
	C93.448456,39.011269 93.889450,39.010727 94.720764,39.360195 
	C97.073227,40.137112 99.035362,40.564018 101.466095,40.992531 
	C107.193153,40.996445 112.451622,40.999088 117.710098,41.000950 
	C121.797226,41.002396 123.544037,42.712254 121.977051,46.842953 
z"/>
<path fill="#97261E" opacity="1.000000" stroke="none" 
	d="
M122.357727,46.911282 
	C123.544037,42.712254 121.797226,41.002396 117.710098,41.000950 
	C112.451622,40.999088 107.193153,40.996445 101.309830,40.751606 
	C100.122704,40.004898 99.560432,39.500721 98.998161,38.996544 
	C100.466858,38.642311 101.925484,38.040073 103.406128,37.979923 
	C108.016060,37.792652 112.685158,38.203907 117.232147,37.616058 
	C120.460037,37.198750 123.881111,36.038929 125.573624,39.411079 
	C126.461739,41.180553 125.282417,43.987682 125.047668,46.713272 
	C124.285217,47.060081 123.511810,47.019848 122.357727,46.911282 
z"/>
<path fill="#B12E26" opacity="1.000000" stroke="none" 
	d="
M97.950279,29.177719 
	C101.332222,29.460842 104.714157,29.743963 108.543152,30.257198 
	C108.990196,30.487312 108.978477,30.941875 108.554413,30.957680 
	C106.434120,30.996199 104.737892,31.018915 102.632294,31.027401 
	C100.137466,31.341629 98.052032,31.670088 95.966591,31.998547 
	C95.966591,31.998549 95.500237,32.002392 95.047485,31.737968 
	C93.699669,31.341005 92.804596,31.208462 91.909523,31.075920 
	C90.517624,31.368288 89.125732,31.660656 87.374237,31.946041 
	C86.754539,31.479204 86.494446,31.019352 86.136017,30.315256 
	C89.022064,29.649973 92.006447,29.228933 95.265854,28.427818 
	C95.540871,28.047743 95.853607,28.053984 95.853607,28.053984 
	C95.853607,28.053984 96.352112,28.082088 96.734924,28.294281 
	C97.395248,28.730223 97.672768,28.953972 97.950279,29.177719 
z"/>
<path fill="#96251D" opacity="1.000000" stroke="none" 
	d="
M84.681046,39.021370 
	C84.917191,43.288902 81.759583,43.152962 78.978737,42.882202 
	C76.217377,42.613338 73.516922,41.718994 70.395462,40.794716 
	C70.002052,40.320496 70.002937,40.150513 70.003830,39.980530 
	C71.744514,39.653889 73.485199,39.327248 75.693573,39.376125 
	C78.658043,41.511261 81.048279,42.286434 83.000153,39.011456 
	C83.448395,39.011414 83.896629,39.011375 84.681046,39.021370 
z"/>
<path fill="#96251D" opacity="1.000000" stroke="none" 
	d="
M67.005806,41.004238 
	C65.652649,43.155766 64.299492,45.307293 62.893414,47.879021 
	C62.840488,48.299225 62.518044,48.241413 62.356464,48.263138 
	C61.763668,47.289295 61.346966,46.287144 60.898746,45.299290 
	C58.826916,40.733040 60.912643,39.504116 65.682556,40.210682 
	C66.419136,40.705902 66.681877,40.897106 67.005806,41.004238 
z"/>
<path fill="#BB3E36" opacity="1.000000" stroke="none" 
	d="
M95.983139,32.348763 
	C98.052032,31.670088 100.137466,31.341629 102.610909,31.389280 
	C102.971886,32.490009 102.944862,33.214626 102.917831,33.939240 
	C102.664246,34.161049 102.410667,34.382858 102.062286,34.845009 
	C99.757835,34.841026 96.900116,36.217384 95.983139,32.348763 
z"/>
<path fill="#96251D" opacity="1.000000" stroke="none" 
	d="
M92.577713,39.006229 
	C92.219727,39.999516 91.416985,41.802219 90.647675,41.788063 
	C89.427223,41.765610 88.229118,40.528831 87.005127,39.412308 
	C88.708450,39.012764 90.428207,39.006706 92.577713,39.006229 
z"/>
<path fill="#96251D" opacity="1.000000" stroke="none" 
	d="
M98.597702,38.996704 
	C99.560432,39.500721 100.122704,40.004898 100.841240,40.750000 
	C99.035362,40.564018 97.073227,40.137112 95.051498,39.362514 
	C96.060349,39.008835 97.128792,39.002846 98.597702,38.996704 
z"/>
<path fill="#97261E" opacity="1.000000" stroke="none" 
	d="
M82.562675,39.007332 
	C81.048279,42.286434 78.658043,41.511261 76.080627,39.377552 
	C78.041725,39.003380 80.083466,39.003296 82.562675,39.007332 
z"/>
<path fill="#BB3E36" opacity="1.000000" stroke="none" 
	d="
M91.933495,31.463522 
	C92.804596,31.208462 93.699669,31.341005 94.814301,31.738884 
	C94.229507,32.968052 93.425148,33.931889 92.289062,34.930927 
	C91.957367,33.927795 91.957413,32.889462 91.933495,31.463522 
z"/>
<path fill="#97261E" opacity="1.000000" stroke="none" 
	d="
M67.380005,41.003597 
	C66.681877,40.897106 66.419136,40.705902 66.106918,40.209740 
	C67.189064,39.815865 68.381851,39.642883 69.789238,39.725212 
	C70.002937,40.150513 70.002052,40.320496 70.000580,40.745472 
	C69.251404,41.001293 68.502808,41.002125 67.380005,41.003597 
z"/>
<path fill="#B2524C" opacity="1.000000" stroke="none" 
	d="
M95.897850,27.776634 
	C95.853607,28.053984 95.540871,28.047743 95.387665,28.038689 
	C92.742088,28.007170 90.249725,27.984707 87.292595,27.938862 
	C89.582680,27.549637 92.337532,27.183794 95.528122,26.877972 
	C95.956619,27.125086 95.949356,27.312185 95.897850,27.776634 
z"/>
<path fill="#DA4F47" opacity="1.000000" stroke="none" 
	d="
M79.353806,28.441986 
	C81.085541,28.142847 83.093742,28.078754 85.529984,28.067932 
	C83.848778,28.306479 81.739525,28.491755 79.353806,28.441986 
z"/>
<path fill="#B2524C" opacity="1.000000" stroke="none" 
	d="
M98.276947,26.662119 
	C97.841156,26.925909 97.300667,26.967802 96.357147,26.985107 
	C96.438522,26.681158 96.922920,26.401794 97.692993,26.055857 
	C97.978683,25.989283 98.172241,26.440220 98.276947,26.662119 
z"/>
<path fill="#B2524C" opacity="1.000000" stroke="none" 
	d="
M106.568527,26.186216 
	C104.811707,26.491787 102.609489,26.735107 99.946442,26.937714 
	C99.485626,26.897001 99.551117,26.594109 99.617546,26.457001 
	C101.830353,26.254583 103.976738,26.189274 106.568527,26.186216 
z"/>
<path fill="#696263" opacity="1.000000" stroke="none" 
	d="
M125.523857,22.011169 
	C127.846001,22.815201 129.707748,23.648031 131.783279,24.750816 
	C123.994949,25.377769 115.992836,25.734772 107.528214,26.073021 
	C107.274719,25.225965 107.483734,24.397663 107.850281,23.287117 
	C113.693024,22.683235 119.378242,22.361601 125.523857,22.011169 
z"/>
<path fill="#BB382F" opacity="1.000000" stroke="none" 
	d="
M108.978477,30.941875 
	C108.978477,30.941875 108.990196,30.487312 108.994080,30.260311 
	C110.884186,29.699005 112.766678,29.102152 114.657288,29.075251 
	C123.448006,28.950172 132.240967,28.982885 141.496964,28.930111 
	C144.016464,28.935139 146.072144,28.969185 148.567520,29.011713 
	C149.007233,29.020193 149.004837,29.460173 149.004944,29.679062 
	C147.619171,29.936756 146.233261,29.975559 144.432739,30.036037 
	C141.270264,31.044781 138.522430,32.031849 135.374054,33.045303 
	C134.703430,32.869194 134.433319,32.666698 133.972656,31.842875 
	C132.288742,30.816954 130.786270,30.036213 129.303650,30.072224 
	C122.525543,30.236855 115.753014,30.630505 108.978477,30.941875 
z"/>
<path fill="#DA4E45" opacity="1.000000" stroke="none" 
	d="
M108.554413,30.957680 
	C115.753014,30.630505 122.525543,30.236855 129.303650,30.072224 
	C130.786270,30.036213 132.288742,30.816954 133.848907,31.619310 
	C130.802994,32.345104 127.697334,32.793575 124.576103,32.976578 
	C117.666603,33.381699 110.749283,33.653416 103.376495,33.959389 
	C102.944862,33.214626 102.971886,32.490009 103.020294,31.403511 
	C104.737892,31.018915 106.434120,30.996199 108.554413,30.957680 
z"/>
<path fill="#DA4F47" opacity="1.000000" stroke="none" 
	d="
M146.094727,25.167561 
	C146.166733,24.974928 146.336502,24.949167 146.764206,24.924631 
	C146.745575,25.062046 146.469040,25.198236 146.094727,25.167561 
z"/>
<path fill="#E25149" opacity="1.000000" stroke="none" 
	d="
M97.857895,28.911938 
	C97.672768,28.953972 97.395248,28.730223 96.983627,28.272579 
	C97.154854,28.241177 97.460182,28.443666 97.857895,28.911938 
z"/>
<path fill="#4E201B" opacity="1.000000" stroke="none" 
	d="
M62.773132,58.092773 
	C62.896183,58.319302 62.707081,58.574821 62.202633,58.853539 
	C62.079742,58.624222 62.270973,58.372566 62.773132,58.092773 
z"/>
<path fill="#4E201B" opacity="1.000000" stroke="none" 
	d="
M79.412369,56.877983 
	C83.615852,56.910374 87.369080,56.954033 91.590103,57.008499 
	C86.839226,57.341568 81.623138,57.718662 76.400848,57.964085 
	C73.586365,58.096355 70.761276,58.003143 67.472870,58.021244 
	C66.802124,58.007336 66.599472,57.983845 66.095802,57.895218 
	C70.183891,57.516468 74.573006,57.202858 79.412369,56.877983 
z"/>
<path fill="#4D4F54" opacity="1.000000" stroke="none" 
	d="
M136.022797,53.296875 
	C136.773148,52.668251 137.546310,52.336655 138.656265,52.006290 
	C138.993652,52.753155 138.994247,53.498787 138.997421,54.622177 
	C139.000000,54.999931 138.990234,54.994408 138.990234,54.994408 
	C138.548096,54.995266 138.105942,54.996124 137.332214,54.997917 
	C136.682266,54.530540 136.363937,54.062222 136.022797,53.296875 
z"/>
<path fill="#464749" opacity="1.000000" stroke="none" 
	d="
M138.997208,54.995125 
	C139.502304,55.294292 140.010208,55.598270 140.518097,55.902245 
	C140.338043,56.110191 140.158005,56.318138 139.977951,56.526085 
	C139.674484,56.204102 139.371033,55.882118 139.028900,55.277271 
	C138.990234,54.994408 139.000000,54.999931 138.997208,54.995125 
z"/>
</svg>